<svg width="32" height="32" viewBox="0 0 32 32" fill="none" xmlns="http://www.w3.org/2000/svg">
<path d="M16 4L18.107 5.40752L20.5922 4.91345L22.0002 7.02013L24.4853 7.51472L24.9799 9.99984L27.0866 11.4078L26.5925 13.893L28 16L26.5925 18.107L27.0866 20.5922L24.9799 22.0002L24.4853 24.4853L22.0002 24.9799L20.5922 27.0866L18.107 26.5925L16 28L13.893 26.5925L11.4078 27.0866L9.99984 24.9799L7.51472 24.4853L7.02013 22.0002L4.91345 20.5922L5.40752 18.107L4 16L5.40752 13.893L4.91345 11.4078L7.02013 9.99984L7.51472 7.51472L9.99984 7.02013L11.4078 4.91345L13.893 5.40752L16 4Z" stroke="black" stroke-width="2" stroke-linecap="round" stroke-linejoin="round"/>
<path d="M17.0909 13.8182C17.0909 15.6257 15.6257 17.0909 13.8182 17.0909C12.0107 17.0909 10.5455 15.6257 10.5455 13.8182C10.5455 12.0107 12.0107 10.5455 13.8182 10.5455C15.6257 10.5455 17.0909 12.0107 17.0909 13.8182Z" stroke="black" stroke-width="2" stroke-linecap="round" stroke-linejoin="round"/>
<path d="M21.4545 19.8182C21.4545 20.7219 20.7219 21.4545 19.8182 21.4545C18.9144 21.4545 18.1818 20.7219 18.1818 19.8182C18.1818 18.9144 18.9144 18.1818 19.8182 18.1818C20.7219 18.1818 21.4545 18.9144 21.4545 19.8182Z" stroke="black" stroke-width="2" stroke-linecap="round" stroke-linejoin="round"/>
</svg>
