<svg width="32" height="32" viewBox="0 0 32 32" fill="none" xmlns="http://www.w3.org/2000/svg">
<path d="M11.7199 13.1003L8.2646 16.5556C8.1769 16.6433 8.11712 16.755 8.09279 16.8766L7.30802 20.8004C7.25888 21.0461 7.13811 21.2718 6.96093 21.449L4.54034 23.8696C3.54905 24.8609 3.54905 26.4681 4.54034 27.4593C5.53162 28.4506 7.13881 28.4506 8.1301 27.4593L10.5507 25.0387C10.7279 24.8616 10.9535 24.7408 11.1992 24.6917L15.1231 23.9069C15.2447 23.8826 15.3564 23.8228 15.4441 23.7351L25.1815 13.9977C27.164 12.0152 27.164 8.8008 25.1815 6.81823C23.1989 4.83566 19.9845 4.83566 18.0019 6.81823L15.3096 9.51055M11.7199 13.1003L15.3096 9.51055M11.7199 13.1003L15.3096 16.6901M15.3096 9.51055L18.8994 13.1003" stroke="#161616" stroke-width="2" stroke-linecap="round" stroke-linejoin="round"/>
</svg>
