<svg width="32" height="32" viewBox="0 0 32 32" fill="none" xmlns="http://www.w3.org/2000/svg">
<path d="M16.667 3.33368C17.7714 3.33386 18.667 4.22922 18.667 5.33368C18.6668 6.43796 17.7713 7.3335 16.667 7.33368C15.5626 7.33368 14.6672 6.43807 14.667 5.33368C14.667 4.22911 15.5624 3.33368 16.667 3.33368Z" fill="black" stroke="black" stroke-width="1.33333"/>
<mask id="path-2-inside-1_1412_3061" fill="white">
<path d="M15.6675 9.33331C15.9492 9.33331 16.2238 9.42258 16.4517 9.5882L16.4546 9.59015L16.4702 9.60187L16.5083 9.63019C16.5407 9.65431 16.5863 9.68888 16.6431 9.73273C16.7568 9.82055 16.917 9.94729 17.1119 10.1087C17.5013 10.4314 18.0339 10.897 18.6109 11.4739C19.7442 12.6072 21.1407 14.2587 21.9058 16.1712C22.3489 17.2791 22.3601 18.319 22.0044 19.2337C21.6624 20.1128 21.0358 20.7366 20.4517 21.1614C19.8645 21.5884 19.2464 21.8677 18.7954 22.0384C18.6077 22.1094 18.4418 22.1648 18.3091 22.2054L17.3345 27.3333V28.0003C17.3343 28.7364 16.7376 29.3331 16.0015 29.3333C15.2652 29.3333 14.6677 28.7366 14.6675 28.0003V27.3333C14.6675 23.4299 14.6655 20.8947 14.4351 18.3128C14.2418 18.2787 14.0528 18.2016 13.8833 18.0784L10.2173 15.4114C9.64772 14.9972 9.49837 14.2117 9.8765 13.6175L9.87748 13.6155L9.87943 13.6136L9.88529 13.6038L9.90677 13.5687C9.92577 13.5393 9.95409 13.4977 9.9888 13.4446C10.0583 13.3387 10.1575 13.1884 10.2798 13.0091C10.5232 12.6521 10.8623 12.1708 11.2378 11.6849C11.6075 11.2065 12.04 10.6872 12.4702 10.2757C12.6841 10.0712 12.9302 9.86188 13.1949 9.69562C13.4316 9.54675 13.8362 9.33331 14.3345 9.33331H15.6675ZM13.3482 13.3157C13.1646 13.5534 12.9881 13.7919 12.8296 14.014L13.9966 14.8636C13.8977 14.2533 13.7842 13.6133 13.6538 12.931C13.5528 13.0539 13.4506 13.1832 13.3482 13.3157Z"/>
</mask>
<path d="M15.6675 9.33331C15.9492 9.33331 16.2238 9.42258 16.4517 9.5882L16.4546 9.59015L16.4702 9.60187L16.5083 9.63019C16.5407 9.65431 16.5863 9.68888 16.6431 9.73273C16.7568 9.82055 16.917 9.94729 17.1119 10.1087C17.5013 10.4314 18.0339 10.897 18.6109 11.4739C19.7442 12.6072 21.1407 14.2587 21.9058 16.1712C22.3489 17.2791 22.3601 18.319 22.0044 19.2337C21.6624 20.1128 21.0358 20.7366 20.4517 21.1614C19.8645 21.5884 19.2464 21.8677 18.7954 22.0384C18.6077 22.1094 18.4418 22.1648 18.3091 22.2054L17.3345 27.3333V28.0003C17.3343 28.7364 16.7376 29.3331 16.0015 29.3333C15.2652 29.3333 14.6677 28.7366 14.6675 28.0003V27.3333C14.6675 23.4299 14.6655 20.8947 14.4351 18.3128C14.2418 18.2787 14.0528 18.2016 13.8833 18.0784L10.2173 15.4114C9.64772 14.9972 9.49837 14.2117 9.8765 13.6175L9.87748 13.6155L9.87943 13.6136L9.88529 13.6038L9.90677 13.5687C9.92577 13.5393 9.95409 13.4977 9.9888 13.4446C10.0583 13.3387 10.1575 13.1884 10.2798 13.0091C10.5232 12.6521 10.8623 12.1708 11.2378 11.6849C11.6075 11.2065 12.04 10.6872 12.4702 10.2757C12.6841 10.0712 12.9302 9.86188 13.1949 9.69562C13.4316 9.54675 13.8362 9.33331 14.3345 9.33331H15.6675ZM13.3482 13.3157C13.1646 13.5534 12.9881 13.7919 12.8296 14.014L13.9966 14.8636C13.8977 14.2533 13.7842 13.6133 13.6538 12.931C13.5528 13.0539 13.4506 13.1832 13.3482 13.3157Z" fill="black"/>
<path d="M16.4517 9.5882L15.6678 10.6668L15.6896 10.6826L15.7121 10.6976L16.4517 9.5882ZM16.4546 9.59015L17.2546 8.52348L17.225 8.50128L17.1942 8.48075L16.4546 9.59015ZM16.4702 9.60187L15.6702 10.6685L15.6746 10.6718L16.4702 9.60187ZM16.5083 9.63019L17.3059 8.5617L17.3039 8.56024L16.5083 9.63019ZM16.6431 9.73273L17.458 8.6774L17.4577 8.67714L16.6431 9.73273ZM17.1119 10.1087L17.9625 9.08196L17.9625 9.08196L17.1119 10.1087ZM18.6109 11.4739L17.6681 12.4167L17.6681 12.4168L18.6109 11.4739ZM21.9058 16.1712L23.1438 15.6761L23.1437 15.676L21.9058 16.1712ZM22.0044 19.2337L23.247 19.7172L23.2471 19.7169L22.0044 19.2337ZM20.4517 21.1614L21.2358 22.2398L21.236 22.2397L20.4517 21.1614ZM18.7954 22.0384L19.2672 23.2855L19.2673 23.2854L18.7954 22.0384ZM18.3091 22.2054L17.9191 20.9304L17.1495 21.1658L16.9992 21.9564L18.3091 22.2054ZM17.3345 27.3333L16.0246 27.0844L16.0012 27.2077V27.3333H17.3345ZM17.3345 28.0003L18.6678 28.0006V28.0003H17.3345ZM16.0015 29.3333V30.6666H16.0019L16.0015 29.3333ZM14.6675 28.0003H13.3342V28.0006L14.6675 28.0003ZM14.6675 27.3333H16.0008H14.6675ZM14.4351 18.3128L15.7631 18.1943L15.6724 17.1771L14.6667 16.9997L14.4351 18.3128ZM13.8833 18.0784L13.099 19.1566L13.0992 19.1568L13.8833 18.0784ZM10.2173 15.4114L11.0017 14.3332L11.0016 14.3331L10.2173 15.4114ZM9.8765 13.6175L11.0014 14.3333L11.0383 14.2753L11.0691 14.2138L9.8765 13.6175ZM9.87748 13.6155L8.93467 12.6727L8.78167 12.8257L8.68491 13.0193L9.87748 13.6155ZM9.87943 13.6136L10.8222 14.5564L10.9383 14.4403L11.0228 14.2996L9.87943 13.6136ZM9.88529 13.6038L8.74754 12.9085L8.74196 12.9178L9.88529 13.6038ZM9.90677 13.5687L8.78694 12.845L8.77782 12.8591L8.76906 12.8734L9.90677 13.5687ZM9.9888 13.4446L8.87415 12.713L8.87319 12.7144L9.9888 13.4446ZM10.2798 13.0091L11.3813 13.7605L11.3815 13.7601L10.2798 13.0091ZM11.2378 11.6849L10.1828 10.8695L10.1828 10.8696L11.2378 11.6849ZM12.4702 10.2757L13.3918 11.2393L13.3919 11.2392L12.4702 10.2757ZM13.1949 9.69562L13.9042 10.8246L13.9046 10.8244L13.1949 9.69562ZM13.3482 13.3157L12.2931 12.5005L12.2931 12.5005L13.3482 13.3157ZM12.8296 14.014L11.7444 13.2393L10.977 14.3145L12.0449 15.0919L12.8296 14.014ZM13.9966 14.8636L13.2119 15.9415L15.8313 17.8485L15.3128 14.6502L13.9966 14.8636ZM13.6538 12.931L14.9635 12.6808L14.4297 9.88625L12.6236 12.0846L13.6538 12.931ZM15.6675 9.33331V10.6666L15.6678 10.6668L16.4517 9.5882L17.2356 8.50962C16.7799 8.17847 16.2309 7.99998 15.6675 7.99998V9.33331ZM16.4517 9.5882L15.7121 10.6976L15.715 10.6995L16.4546 9.59015L17.1942 8.48075L17.1913 8.4788L16.4517 9.5882ZM16.4546 9.59015L15.6546 10.6568L15.6702 10.6685L16.4702 9.60187L17.2702 8.5352L17.2546 8.52348L16.4546 9.59015ZM16.4702 9.60187L15.6746 10.6718L15.7127 10.7001L16.5083 9.63019L17.3039 8.56024L17.2659 8.53192L16.4702 9.60187ZM16.5083 9.63019L15.7108 10.6987C15.7365 10.7179 15.7764 10.748 15.8285 10.7883L16.6431 9.73273L17.4577 8.67714C17.3962 8.62972 17.3449 8.59077 17.3059 8.5617L16.5083 9.63019ZM16.6431 9.73273L15.8282 10.7881C15.9304 10.867 16.0786 10.9842 16.2612 11.1354L17.1119 10.1087L17.9625 9.08196C17.7554 8.91039 17.5833 8.77413 17.458 8.6774L16.6431 9.73273ZM17.1119 10.1087L16.2612 11.1354C16.6261 11.4378 17.1267 11.8754 17.6681 12.4167L18.6109 11.4739L19.5537 10.5311C18.9412 9.91865 18.3765 9.42496 17.9625 9.08196L17.1119 10.1087ZM18.6109 11.4739L17.6681 12.4168C18.7512 13.4998 20.0011 14.9998 20.6678 16.6664L21.9058 16.1712L23.1437 15.676C22.2803 13.5175 20.7372 11.7146 19.5537 10.5311L18.6109 11.4739ZM21.9058 16.1712L20.6678 16.6664C21.0015 17.5006 20.9802 18.1887 20.7617 18.7505L22.0044 19.2337L23.2471 19.7169C23.74 18.4492 23.6964 17.0577 23.1438 15.6761L21.9058 16.1712ZM22.0044 19.2337L20.7618 18.7503C20.5434 19.3118 20.1268 19.749 19.6674 20.0832L20.4517 21.1614L21.236 22.2397C21.9447 21.7242 22.7814 20.9139 23.247 19.7172L22.0044 19.2337ZM20.4517 21.1614L19.6676 20.0831C19.2092 20.4163 18.709 20.6455 18.3235 20.7914L18.7954 22.0384L19.2673 23.2854C19.7838 23.09 20.5198 22.7605 21.2358 22.2398L20.4517 21.1614ZM18.7954 22.0384L18.3237 20.7913C18.1639 20.8517 18.0253 20.8979 17.9191 20.9304L18.3091 22.2054L18.6991 23.4804C18.8582 23.4317 19.0514 23.3671 19.2672 23.2855L18.7954 22.0384ZM18.3091 22.2054L16.9992 21.9564L16.0246 27.0844L17.3345 27.3333L18.6444 27.5823L19.619 22.4543L18.3091 22.2054ZM17.3345 27.3333H16.0012V28.0003H17.3345H18.6678V27.3333H17.3345ZM17.3345 28.0003L16.0012 28L16.0011 28L16.0015 29.3333L16.0019 30.6666C17.4739 30.6662 18.6675 29.473 18.6678 28.0006L17.3345 28.0003ZM16.0015 29.3333V28L16.0008 28L14.6675 28.0003L13.3342 28.0006C13.3345 29.474 14.5298 30.6666 16.0015 30.6666V29.3333ZM14.6675 28.0003H16.0008V27.3333H14.6675H13.3342V28.0003H14.6675ZM14.6675 27.3333H16.0008C16.0008 23.4452 15.9999 20.8469 15.7631 18.1943L14.4351 18.3128L13.107 18.4313C13.3311 20.9426 13.3342 23.4147 13.3342 27.3333H14.6675ZM14.4351 18.3128L14.6667 16.9997L14.6674 17L13.8833 18.0784L13.0992 19.1568C13.4379 19.4031 13.8171 19.5577 14.2035 19.6259L14.4351 18.3128ZM13.8833 18.0784L14.6677 17.0002L11.0017 14.3332L10.2173 15.4114L9.43294 16.4896L13.099 19.1566L13.8833 18.0784ZM10.2173 15.4114L11.0016 14.3331L11.0014 14.3333L9.8765 13.6175L8.75162 12.9017C7.99516 14.0904 8.29425 15.6615 9.43308 16.4897L10.2173 15.4114ZM9.8765 13.6175L11.0691 14.2138L11.07 14.2118L9.87748 13.6155L8.68491 13.0193L8.68393 13.0212L9.8765 13.6175ZM9.87748 13.6155L10.8203 14.5583L10.8222 14.5564L9.87943 13.6136L8.93662 12.6708L8.93467 12.6727L9.87748 13.6155ZM9.87943 13.6136L11.0228 14.2996L11.0286 14.2898L9.88529 13.6038L8.74196 12.9178L8.73611 12.9276L9.87943 13.6136ZM9.88529 13.6038L11.023 14.2991L11.0445 14.2639L9.90677 13.5687L8.76906 12.8734L8.74758 12.9086L9.88529 13.6038ZM9.90677 13.5687L11.0266 14.2924C11.054 14.25 11.0396 14.2739 11.1044 14.1748L9.9888 13.4446L8.87319 12.7144C8.85917 12.7359 8.84617 12.7554 8.83231 12.7762C8.82047 12.794 8.80266 12.8206 8.78694 12.845L9.90677 13.5687ZM9.9888 13.4446L11.1035 14.1763C11.1711 14.0733 11.2654 13.9304 11.3813 13.7605L10.2798 13.0091L9.17836 12.2577C9.04968 12.4464 8.94559 12.6041 8.87415 12.713L9.9888 13.4446ZM10.2798 13.0091L11.3815 13.7601C11.6156 13.4168 11.9386 12.9586 12.2929 12.5001L11.2378 11.6849L10.1828 10.8696C9.786 11.3831 9.43086 11.8873 9.17811 12.2581L10.2798 13.0091ZM11.2378 11.6849L12.2928 12.5002C12.6474 12.0415 13.0327 11.5828 13.3918 11.2393L12.4702 10.2757L11.5487 9.31214C11.0474 9.79153 10.5676 10.3716 10.1828 10.8695L11.2378 11.6849ZM12.4702 10.2757L13.3919 11.2392C13.57 11.0688 13.7438 10.9254 13.9042 10.8246L13.1949 9.69562L12.4855 8.56663C12.1167 8.79835 11.7981 9.07353 11.5486 9.3122L12.4702 10.2757ZM13.1949 9.69562L13.9046 10.8244C14.0638 10.7243 14.2096 10.6666 14.3345 10.6666V9.33331V7.99998C13.4628 7.99998 12.7994 8.36925 12.4851 8.56687L13.1949 9.69562ZM14.3345 9.33331V10.6666H15.6675V9.33331V7.99998H14.3345V9.33331ZM13.3482 13.3157L12.2931 12.5005C12.0986 12.7523 11.9121 13.0044 11.7444 13.2393L12.8296 14.014L13.9149 14.7886C14.0642 14.5794 14.2306 14.3544 14.4033 14.1309L13.3482 13.3157ZM12.8296 14.014L12.0449 15.0919L13.2119 15.9415L13.9966 14.8636L14.7814 13.7857L13.6144 12.9361L12.8296 14.014ZM13.9966 14.8636L15.3128 14.6502C15.2116 14.0263 15.0959 13.3739 14.9635 12.6808L13.6538 12.931L12.3442 13.1811C12.4725 13.8526 12.5838 14.4804 12.6805 15.077L13.9966 14.8636ZM13.6538 12.931L12.6236 12.0846C12.5121 12.2203 12.4013 12.3605 12.2931 12.5005L13.3482 13.3157L14.4033 14.1309C14.4999 14.0059 14.5936 13.8875 14.6841 13.7774L13.6538 12.931Z" fill="black" mask="url(#path-2-inside-1_1412_3061)"/>
</svg>
