<svg width="32" height="32" viewBox="0 0 32 32" fill="none" xmlns="http://www.w3.org/2000/svg">
<path d="M15.8359 4C20.1656 4.00027 23.6757 7.51017 23.6758 11.8398C23.6758 15.7249 20.849 18.9467 17.1406 19.5684C17.1437 19.6051 17.1465 19.6422 17.1465 19.6797V20.9873H19.7578C20.4795 20.9873 21.0645 21.5723 21.0645 22.2939C21.0642 23.0154 20.4793 23.6006 19.7578 23.6006H17.1465V27.5205C17.1462 28.2419 16.5613 28.8271 15.8398 28.8271C15.1184 28.8271 14.5335 28.2419 14.5332 27.5205V23.6006H11.918C11.1965 23.6006 10.6116 23.0154 10.6113 22.2939C10.6113 21.5723 11.1963 20.9873 11.918 20.9873H14.5332V19.6797C14.5332 19.6432 14.5351 19.607 14.5381 19.5713C10.8258 18.9529 7.99609 15.7277 7.99609 11.8398C7.99618 7.51 11.5061 4 15.8359 4ZM15.8369 6.61328C12.9504 6.61334 10.6105 8.95339 10.6104 11.8398C10.6104 14.7264 12.9504 17.0663 15.8369 17.0664C18.7234 17.0662 21.0635 14.7263 21.0635 11.8398C21.0633 8.95347 18.7233 6.61346 15.8369 6.61328Z" fill="black"/>
</svg>
