<svg width="18" height="13" viewBox="0 0 18 13" fill="none" xmlns="http://www.w3.org/2000/svg">
<g clip-path="url(#clip0_1111_8505)">
<mask id="mask0_1111_8505" style="mask-type:alpha" maskUnits="userSpaceOnUse" x="0" y="0" width="18" height="13">
<path d="M16.2857 12.8572H1.71429C0.767512 12.8572 0 12.0897 0 11.1429V1.71432C0 0.767548 0.767512 3.52859e-05 1.71429 3.52859e-05H16.2857C17.2325 3.52859e-05 18 0.767548 18 1.71432V11.1429C18 12.0897 17.2325 12.8572 16.2857 12.8572Z" fill="white"/>
</mask>
<g mask="url(#mask0_1111_8505)">
<path d="M16.2857 12.8572H1.71429C0.767512 12.8572 0 12.0897 0 11.1429V1.71432C0 0.767548 0.767512 3.52859e-05 1.71429 3.52859e-05H16.2857C17.2325 3.52859e-05 18 0.767548 18 1.71432V11.1429C18 12.0897 17.2325 12.8572 16.2857 12.8572Z" fill="#DF0A37"/>
<path fill-rule="evenodd" clip-rule="evenodd" d="M0 12.8572H18V6.00003H0V12.8572Z" fill="white"/>
<path d="M16.2859 12.4287H1.71443C1.00434 12.4287 0.428711 11.8531 0.428711 11.143V1.71443C0.428711 1.00434 1.00434 0.428711 1.71443 0.428711H16.2859C16.9959 0.428711 17.5716 1.00434 17.5716 1.71443V11.143C17.5716 11.8531 16.9959 12.4287 16.2859 12.4287Z" stroke="black" stroke-opacity="0.1" stroke-width="0.857143"/>
</g>
</g>
<defs>
<clipPath id="clip0_1111_8505">
<rect width="18" height="12.8571" fill="white" transform="matrix(1 0 0 -1 0 12.8572)"/>
</clipPath>
</defs>
</svg>
