<svg width="18" height="13" viewBox="0 0 18 13" fill="none" xmlns="http://www.w3.org/2000/svg">
<g clip-path="url(#clip0_1111_8480)">
<mask id="mask0_1111_8480" style="mask-type:alpha" maskUnits="userSpaceOnUse" x="0" y="0" width="18" height="13">
<path d="M16.2857 0H1.71429C0.767512 0 0 0.767512 0 1.71429V11.1429C0 12.0896 0.767512 12.8571 1.71429 12.8571H16.2857C17.2325 12.8571 18 12.0896 18 11.1429V1.71429C18 0.767512 17.2325 0 16.2857 0Z" fill="white"/>
</mask>
<g mask="url(#mask0_1111_8480)">
<path d="M16.2857 0H1.71429C0.767512 0 0 0.767512 0 1.71429V11.1429C0 12.0896 0.767512 12.8571 1.71429 12.8571H16.2857C17.2325 12.8571 18 12.0896 18 11.1429V1.71429C18 0.767512 17.2325 0 16.2857 0Z" fill="#FFBF00"/>
<path fill-rule="evenodd" clip-rule="evenodd" d="M1.71436 1.71436H4.28578V11.1429H1.71436V1.71436Z" fill="#00614A"/>
<path fill-rule="evenodd" clip-rule="evenodd" d="M4.28564 1.71436H6.85707V11.1429H4.28564V1.71436Z" fill="#FF6600"/>
<path fill-rule="evenodd" clip-rule="evenodd" d="M7.71436 1.71436H16.2858V11.1429H7.71436V1.71436Z" fill="#98232E"/>
<path fill-rule="evenodd" clip-rule="evenodd" d="M10.7442 9.09943L10.7939 9.06171L10.8144 9.09943C10.8427 9.15086 10.9207 9.14914 10.9722 9.09943L11.0124 9.05914L11.0467 9.09772C11.0896 9.14914 11.1702 9.14914 11.2216 9.09772C11.2593 9.06172 11.2644 9.06086 11.2884 9.08914C11.3022 9.10457 11.3442 9.12343 11.381 9.12943C11.4479 9.14143 11.4496 9.14057 11.4882 9.06257C11.5224 8.99743 11.5267 8.97171 11.519 8.90829C11.5139 8.86543 11.5079 8.79857 11.5062 8.75829C11.5044 8.68457 11.5044 8.68372 11.585 8.64686C11.6279 8.62629 11.6793 8.59886 11.699 8.58514C11.7307 8.56286 11.819 8.42486 11.819 8.39657C11.819 8.38971 11.7847 8.37943 11.7419 8.37257C11.5747 8.34686 11.5464 8.22686 11.6562 8.004C11.8336 7.64229 11.9407 7.28829 11.9416 7.06286C11.9416 6.96257 11.9459 6.92829 11.9562 6.95143C11.9956 7.03971 11.9244 7.41429 11.8164 7.68429L11.7736 7.79314L11.8147 7.78029C11.837 7.77171 11.9716 7.69714 12.1122 7.61229C12.4979 7.38086 12.6307 7.33457 12.881 7.34829C13.0902 7.36029 13.1793 7.41429 13.3267 7.62086C13.4056 7.72971 13.481 7.80771 13.6182 7.92257C13.913 8.16772 13.925 8.18829 13.9387 8.47629C13.9533 8.76771 13.9473 8.78486 13.7802 8.83286C13.6387 8.874 13.5487 8.96143 13.5256 9.084C13.5136 9.15 13.5402 9.15257 13.6113 9.09086L13.6627 9.04629L13.6867 9.09086C13.7176 9.15086 13.7827 9.15086 13.8367 9.09086L13.877 9.048L13.9182 9.09086C13.9833 9.15943 14.0699 9.144 14.0939 9.05657C14.0982 9.04114 14.111 9.04629 14.1367 9.07543C14.1839 9.13029 14.3047 9.15429 14.3184 9.10971C14.3236 9.09429 14.3133 9.054 14.297 9.02057C14.2267 8.88 14.2044 8.81229 14.2027 8.736C14.2027 8.62972 14.2259 8.57829 14.3176 8.49086C14.429 8.38543 14.4633 8.25086 14.3793 8.25086C14.3279 8.25086 14.2747 8.18829 14.2422 8.088C14.1736 7.88657 14.1864 7.65943 14.2884 7.28229C14.3913 6.89657 14.4033 6.828 14.4042 6.57086C14.4042 6.36257 14.4016 6.32657 14.3656 6.21257C14.3442 6.144 14.2996 6.03943 14.2679 5.98286L14.2104 5.88L14.285 5.796C14.5139 5.544 14.4676 5.13086 14.1907 4.97314C14.1076 4.92343 14.0862 4.91914 13.9387 4.92172C13.8496 4.92172 13.7159 4.93714 13.6387 4.956C13.5599 4.97314 13.4279 4.98857 13.337 4.98857C13.193 4.98857 13.169 4.98514 13.1142 4.94572C13.0559 4.90457 13.0456 4.88572 13.0344 4.79143C13.0327 4.77086 13.0224 4.752 13.0122 4.74857C12.9924 4.74 12.9007 4.84286 12.8887 4.89086C12.8819 4.91314 12.8759 4.91143 12.857 4.88229C12.8442 4.86086 12.8262 4.81371 12.8167 4.77771C12.7936 4.68514 12.8219 4.61486 12.9024 4.56343L12.9667 4.524L12.9307 4.49314C12.8536 4.42972 12.7224 4.47257 12.6753 4.57886C12.6616 4.60714 12.647 4.632 12.6427 4.632C12.6384 4.632 12.6127 4.60371 12.5862 4.56943C12.4867 4.44086 12.521 4.24886 12.6547 4.18972C12.725 4.15886 12.7876 4.18286 12.8004 4.24543C12.8202 4.34143 12.8827 4.21543 12.8716 4.10143C12.863 4.026 12.863 4.02257 12.9033 4.02257C12.9582 4.02257 13.0747 4.11857 13.1116 4.194C13.1544 4.27972 13.1502 4.41686 13.103 4.518L13.0687 4.59771L13.115 4.58571C13.1836 4.56686 13.2522 4.50857 13.2864 4.44C13.3224 4.36629 13.3267 4.22314 13.295 4.14514C13.2633 4.07057 13.2667 4.05943 13.3122 4.08514C13.391 4.128 13.4322 4.17429 13.4639 4.25657C13.493 4.32943 13.4947 4.34743 13.4793 4.42371C13.4707 4.47086 13.4493 4.53257 13.433 4.56086C13.4073 4.60629 13.4073 4.614 13.427 4.614C13.4639 4.614 13.5427 4.56686 13.5702 4.52829C13.5839 4.50771 13.6044 4.45972 13.6156 4.41857L13.6353 4.34657L13.6584 4.40143C13.691 4.47857 13.7527 4.54972 13.8299 4.59343C13.913 4.64143 13.9473 4.64486 13.9044 4.60029C13.8753 4.57029 13.8213 4.36029 13.8376 4.34057C13.8462 4.32857 13.9593 4.44343 14.0862 4.596C14.2079 4.74172 14.2833 4.788 14.3947 4.788C14.5379 4.788 14.6202 4.62343 14.5576 4.46829C14.519 4.37743 14.4359 4.36543 14.3879 4.44257C14.3656 4.47857 14.3596 4.50686 14.3656 4.54372C14.3742 4.59 14.3707 4.59514 14.3399 4.59514C14.297 4.59514 14.2164 4.52657 14.0724 4.36543C13.8522 4.12114 13.5839 3.91372 13.391 3.83829C13.2667 3.78857 13.0019 3.76972 12.8767 3.80057C12.7396 3.83314 12.5767 3.93771 12.4893 4.04914C12.3333 4.24629 12.3316 4.50772 12.4833 4.74686L12.5262 4.81543L12.497 4.87543C12.4542 4.96457 12.4576 5.08372 12.5056 5.17114C12.527 5.20972 12.5484 5.24143 12.5536 5.24143C12.5587 5.24143 12.5639 5.21572 12.5656 5.18572C12.5699 5.10857 12.5947 5.05714 12.6376 5.03743C12.6753 5.01857 12.7002 5.02714 12.8759 5.11972C13.0602 5.21829 13.3627 5.22429 13.685 5.13686C13.8436 5.09572 14.0296 5.09829 14.1119 5.14372C14.2619 5.22772 14.297 5.44543 14.1864 5.61086C14.1384 5.68114 14.0922 5.71029 13.9379 5.76686C13.8196 5.80972 13.7922 5.81314 13.5239 5.80972C13.295 5.80629 13.2127 5.81229 13.1193 5.838C13.0182 5.86629 12.9564 5.86886 12.6582 5.85943L12.3136 5.84743L12.3522 5.89029C12.3727 5.91257 12.4036 5.94172 12.4182 5.95286C12.4439 5.97172 12.4439 5.97429 12.4044 5.99314C12.3813 6.00514 12.3316 6.01371 12.293 6.01371H12.2219L12.2133 6.09429C12.2082 6.13886 12.2082 6.18857 12.2133 6.20829C12.2219 6.23657 12.2193 6.24 12.1962 6.22972C12.1824 6.22114 12.1413 6.20829 12.1053 6.198C12.0693 6.18772 12.0213 6.168 11.9982 6.15257C11.9587 6.12686 11.9553 6.12686 11.9399 6.16114C11.9279 6.192 11.8079 6.31029 11.7899 6.31029C11.7873 6.31029 11.7839 6.28714 11.7813 6.25886C11.7813 6.23143 11.7642 6.15857 11.7436 6.09771C11.7247 6.03771 11.7042 5.97086 11.699 5.95029C11.6904 5.91943 11.6879 5.91772 11.6776 5.94172C11.6716 5.95629 11.6622 5.99743 11.657 6.03343C11.6527 6.06772 11.6347 6.12772 11.6176 6.162L11.5867 6.22543L11.567 6.17057C11.5464 6.11229 11.5113 6.05057 11.4984 6.05057C11.4942 6.05057 11.4864 6.07029 11.4813 6.09343C11.4727 6.14057 11.3896 6.27343 11.3699 6.27343C11.3613 6.27343 11.3553 6.23572 11.3553 6.19029C11.3553 6.144 11.3493 6.10714 11.3407 6.10714C11.3339 6.10714 11.327 6.11829 11.327 6.13286C11.327 6.16714 11.2559 6.27257 11.2327 6.27257C11.2216 6.27257 11.2053 6.28457 11.195 6.3C11.1693 6.33943 11.1479 6.33429 11.1582 6.29143C11.1642 6.27 11.1607 6.22286 11.1513 6.18429L11.1282 6.09429C11.1247 6.08057 11.0999 6.084 11.0459 6.10714C10.9584 6.144 10.9293 6.138 10.9739 6.09C10.991 6.07286 11.0167 6.01457 11.0296 5.95972C11.0433 5.90486 11.0639 5.85686 11.0759 5.85086C11.0913 5.84572 11.0904 5.85343 11.0716 5.88686C11.0587 5.91086 11.0476 5.94343 11.0476 5.95886C11.0476 5.97429 11.0364 6.01029 11.0244 6.04029C11.0124 6.07114 11.0047 6.09772 11.0073 6.10029C11.0107 6.10457 11.0433 6.08829 11.081 6.06429L11.1496 6.02143V6.06C11.1496 6.08143 11.1582 6.13714 11.1667 6.18514L11.1856 6.27086L11.2319 6.24257C11.279 6.21343 11.3244 6.10971 11.3244 6.03C11.3244 5.98886 11.3416 5.99572 11.3484 6.03857L11.3724 6.14143L11.393 6.222L11.4247 6.17057C11.4419 6.14229 11.465 6.08743 11.4744 6.048C11.4916 5.98114 11.5156 5.952 11.5156 6.00086C11.5156 6.03686 11.5893 6.16371 11.603 6.15343C11.6099 6.14829 11.6236 6.10029 11.633 6.04714C11.6536 5.93571 11.6862 5.86029 11.7076 5.87572C11.7162 5.88257 11.7179 5.89286 11.7136 5.90143C11.7102 5.91 11.7264 5.98286 11.7513 6.06257C11.777 6.14229 11.8027 6.22286 11.807 6.24086C11.8156 6.27086 11.8242 6.26657 11.8773 6.204C11.9116 6.16543 11.9407 6.12257 11.9442 6.108C11.9493 6.08743 11.957 6.08829 11.987 6.11314C12.0299 6.14914 12.1756 6.20743 12.1867 6.192C12.191 6.18686 12.1953 6.13629 12.1953 6.08057L12.1979 5.97772L12.2407 5.98886C12.2639 5.99572 12.3119 5.99486 12.3479 5.98886L12.413 5.976L12.3556 5.92286C12.3239 5.89371 12.2913 5.856 12.2836 5.83886C12.275 5.82171 12.2459 5.80457 12.215 5.802C12.1267 5.79172 11.9716 5.676 11.9716 5.622C11.9716 5.61086 11.993 5.628 12.0196 5.66057C12.0779 5.73086 12.1584 5.77543 12.2287 5.77543H12.2819L12.2493 5.71886C12.2304 5.68457 12.2133 5.62286 12.209 5.57057C12.203 5.48914 12.1962 5.47629 12.1319 5.41629C12.0933 5.38029 12.0444 5.32629 12.0247 5.29629L11.9887 5.24229L11.9699 5.30657C11.9596 5.34257 11.9467 5.37086 11.9424 5.37086C11.9373 5.37086 11.9167 5.35029 11.8996 5.32543C11.8799 5.29971 11.8602 5.27914 11.8567 5.27914C11.8507 5.27914 11.8344 5.31343 11.8182 5.35629L11.7899 5.43086L11.7676 5.388C11.7547 5.36229 11.7264 5.32114 11.7033 5.29372C11.6802 5.26457 11.6673 5.24229 11.6759 5.24229C11.6844 5.24229 11.7136 5.27143 11.7402 5.30657L11.789 5.37172L11.8087 5.32371C11.8199 5.29629 11.8242 5.25257 11.819 5.21743C11.8104 5.166 11.8122 5.16429 11.8276 5.196C11.8362 5.21657 11.8644 5.256 11.8902 5.28172L11.9364 5.33314L11.9682 5.256C11.9999 5.17886 12.0007 5.17886 12.0144 5.22343C12.0342 5.28514 12.173 5.43772 12.2913 5.52514C12.3084 5.53886 12.3016 5.49086 12.2682 5.38372C12.2596 5.35543 12.251 5.304 12.251 5.26971C12.251 5.21829 12.2407 5.19514 12.191 5.14543C12.1207 5.07343 12.0984 5.02286 12.0847 4.90714C12.0796 4.86 12.0676 4.80772 12.0573 4.79143C12.0427 4.76572 12.0402 4.78029 12.0444 4.86686C12.0462 4.92686 12.0402 4.99886 12.0307 5.02972L12.0136 5.08457L11.9999 5.03829C11.9913 5.01257 11.9596 4.96972 11.927 4.93972C11.8927 4.91143 11.8713 4.88314 11.8756 4.87714C11.8799 4.872 11.9142 4.89771 11.9502 4.93543C12.0059 4.99286 12.0187 4.99886 12.0256 4.974C12.0342 4.944 12.0256 4.81457 12.0084 4.72543C11.9999 4.67914 11.9999 4.67914 12.0427 4.734C12.0736 4.77686 12.0899 4.82486 12.1027 4.91057C12.1199 5.01943 12.1284 5.03914 12.2039 5.12486C12.2493 5.17886 12.2896 5.21914 12.2913 5.21572C12.2947 5.21229 12.2999 5.07514 12.3042 4.91143C12.3127 4.59857 12.3042 4.524 12.2467 4.42714L12.2176 4.37743L12.263 4.31143C12.323 4.22572 12.3504 4.15714 12.3624 4.06286L12.3727 3.98572L12.3213 4.05172C12.2784 4.10486 12.2587 4.11686 12.2099 4.11686C12.161 4.11686 12.1413 4.10657 12.1096 4.05943C12.0702 4.00372 11.9999 3.95057 11.933 3.924C11.9073 3.91543 11.8987 3.91886 11.8987 3.94114C11.8987 3.95829 11.8859 4.00457 11.8687 4.04571L11.8387 4.12114L11.7753 4.03714C11.7359 3.98572 11.6896 3.94629 11.6553 3.93429C11.567 3.90343 11.5627 3.906 11.5627 3.99429C11.5627 4.12543 11.5199 4.15029 11.4427 4.06286C11.3853 3.99429 11.3364 3.98057 11.2259 3.99686L11.1402 4.00971L11.1573 4.06114C11.1693 4.104 11.1659 4.12114 11.1384 4.17C11.0939 4.24886 11.0356 4.28314 10.9464 4.28314C10.9053 4.28314 10.8539 4.29429 10.8316 4.30886C10.8102 4.32171 10.7562 4.338 10.7116 4.34314C10.667 4.34914 10.6199 4.36029 10.6062 4.36629C10.5856 4.37657 10.583 4.368 10.589 4.30457C10.6002 4.20686 10.5496 4.13571 10.469 4.13571C10.3662 4.13571 10.319 4.25829 10.3593 4.42029C10.3679 4.45114 10.3764 4.50086 10.3816 4.52914C10.3876 4.55914 10.433 4.63886 10.4913 4.71514C10.5462 4.78886 10.5976 4.86514 10.6062 4.88486C10.6147 4.90457 10.643 4.93629 10.6687 4.95514L10.7159 4.98943L10.7099 4.92343C10.703 4.84971 10.715 4.83772 10.7442 4.88914C10.7553 4.90886 10.7819 4.93886 10.8042 4.95772C10.8384 4.98514 10.8444 4.986 10.8444 4.96114C10.8444 4.944 10.8513 4.90971 10.8599 4.88057L10.877 4.82914L10.9027 4.89943C10.9182 4.938 10.9679 5.02629 11.0124 5.09657C11.0999 5.22943 11.153 5.37943 11.1256 5.41372C11.1144 5.42829 11.0844 5.42657 11.0227 5.41029C10.9739 5.39829 10.9139 5.39143 10.889 5.39572C10.8376 5.40429 10.835 5.39572 10.8659 5.34429C10.8984 5.29029 10.8933 5.28172 10.829 5.28172C10.7544 5.28172 10.5702 5.23371 10.499 5.196C10.4304 5.16171 10.4133 5.17029 10.3936 5.256L10.3567 5.41457L10.337 5.50029L10.4116 5.49172C10.4527 5.48572 10.5059 5.47457 10.529 5.46429C10.553 5.45571 10.5744 5.45057 10.577 5.45314C10.5796 5.45657 10.5684 5.49086 10.5539 5.52857L10.5247 5.59714L10.5719 5.58514C10.5976 5.57829 10.6362 5.56114 10.6576 5.54743C10.6953 5.52343 10.6979 5.52514 10.7279 5.58772C10.7639 5.66486 10.793 5.66229 10.799 5.57914C10.8059 5.49514 10.8273 5.508 10.8676 5.62029C10.9044 5.72829 10.9447 5.766 10.9516 5.70257C10.9542 5.682 10.9739 5.64686 10.997 5.62543C11.0424 5.58257 11.0767 5.59629 11.0956 5.66314C11.117 5.73171 11.0716 5.80371 10.9413 5.91C10.6756 6.12257 10.523 6.414 10.4784 6.78429C10.439 7.11857 10.5624 7.46486 10.8102 7.71343C10.9284 7.83343 11.117 7.95772 11.105 7.91057C11.0553 7.70657 11.057 7.31914 11.1084 7.25314C11.117 7.24286 11.1136 7.28314 11.1024 7.34229C11.0613 7.56343 11.0793 7.73914 11.1856 8.15143C11.2799 8.52514 11.2679 8.68457 11.1324 8.78914C11.0896 8.82343 11.0604 8.82857 10.9439 8.82686C10.817 8.82514 10.8033 8.82857 10.7622 8.87143C10.7227 8.91429 10.6722 9.05143 10.6722 9.11486C10.6722 9.14914 10.7004 9.14486 10.7579 9.10114L10.7442 9.09943ZM9.78415 8.41371C9.79787 8.39057 9.80815 8.35371 9.80815 8.33229C9.80815 8.29971 9.8193 8.29114 9.87415 8.28086L9.94015 8.26886L9.8973 8.22171C9.84415 8.16686 9.83901 8.124 9.8853 8.124C9.93072 8.124 10.0087 8.06057 10.0207 8.01257C10.0267 7.992 10.0233 7.96286 10.0139 7.94743C9.98815 7.90886 9.9393 7.91486 9.93073 7.95772C9.92044 8.004 9.90501 8.00486 9.86815 7.95772C9.8133 7.88914 9.81158 7.74514 9.86558 7.66114C9.88958 7.62171 9.88958 7.61829 9.85701 7.57886C9.82272 7.53429 9.79701 7.44771 9.81415 7.42714C9.8193 7.42114 9.84673 7.42714 9.87415 7.43914C9.9153 7.45629 9.93158 7.458 9.94787 7.43914C9.9993 7.38771 9.94358 7.31914 9.86215 7.33457C9.83044 7.34057 9.81758 7.33457 9.81244 7.31229C9.80901 7.29514 9.78072 7.272 9.74815 7.26086C9.69158 7.242 9.69072 7.24371 9.69072 7.29514C9.69072 7.35257 9.66501 7.36372 9.61958 7.32686C9.58101 7.29686 9.54415 7.32 9.54415 7.374C9.54415 7.42371 9.58272 7.44857 9.65044 7.44257C9.70187 7.43829 9.70444 7.49057 9.65472 7.56429L9.61872 7.61829L9.64701 7.67229C9.68987 7.752 9.68558 7.88486 9.63844 7.95086L9.60415 8.00229L9.58015 7.96114C9.54758 7.90372 9.50301 7.908 9.49015 7.96972C9.48158 8.01 9.49015 8.028 9.52701 8.07086C9.55272 8.09914 9.58958 8.12229 9.6093 8.12229C9.65901 8.12229 9.6573 8.17371 9.60587 8.22686L9.56558 8.268L9.62901 8.28086C9.6633 8.28771 9.69072 8.30143 9.69072 8.31086C9.69072 8.34514 9.73358 8.45486 9.74815 8.45486C9.75672 8.45486 9.77387 8.43772 9.78501 8.41457L9.78415 8.41371ZM10.001 6.55371C10.1433 6.47057 10.1553 6.25886 10.0216 6.20229C9.96587 6.18 9.93072 6.19372 9.91015 6.24257C9.89301 6.28114 9.90415 6.35057 9.9273 6.35057C9.93415 6.35057 9.94015 6.36257 9.94015 6.378C9.94015 6.45171 9.7233 6.48514 9.63501 6.42514C9.60415 6.40371 9.59215 6.34971 9.61787 6.34971C9.63501 6.34971 9.64958 6.29314 9.64015 6.25372C9.62644 6.20057 9.5853 6.18172 9.52701 6.20229C9.39415 6.24857 9.39844 6.456 9.53301 6.54514C9.64444 6.61629 9.88787 6.62057 10.0027 6.55371H10.001ZM9.91272 6.39086C9.9213 6.38229 9.91787 6.36514 9.90415 6.35057C9.87415 6.31886 9.87587 6.27172 9.90844 6.21772C9.93415 6.17743 9.93672 6.11743 9.9453 5.50972C9.95987 4.46057 10.0182 3.67286 10.0953 3.48429C10.1262 3.40886 10.121 3.40714 10.0422 3.48C9.9393 3.57257 9.86215 3.69429 9.79358 3.86572C9.6633 4.19143 9.61787 4.63029 9.61787 5.56629C9.61787 6.09772 9.6213 6.16629 9.64358 6.21772C9.66587 6.264 9.66672 6.282 9.65215 6.33257C9.64187 6.36514 9.63758 6.39686 9.64187 6.40114C9.67101 6.43886 9.88187 6.42943 9.91358 6.39L9.91272 6.39086Z" fill="#FFB700"/>
<path fill-rule="evenodd" clip-rule="evenodd" d="M8.57129 2.57153H9.42843V3.42868H8.57129V2.57153ZM14.5713 2.57153H15.4284V3.42868H14.5713V2.57153ZM8.57129 9.42868H9.42843V10.2858H8.57129V9.42868ZM14.5713 9.42868H15.4284V10.2858H14.5713V9.42868Z" fill="#DA8210"/>
<path d="M16.2859 0.428711H1.71443C1.00434 0.428711 0.428711 1.00434 0.428711 1.71443V11.143C0.428711 11.8531 1.00434 12.4287 1.71443 12.4287H16.2859C16.9959 12.4287 17.5716 11.8531 17.5716 11.143V1.71443C17.5716 1.00434 16.9959 0.428711 16.2859 0.428711Z" stroke="black" stroke-opacity="0.1" stroke-width="0.857143"/>
</g>
</g>
<defs>
<clipPath id="clip0_1111_8480">
<rect width="18" height="12.8571" fill="white"/>
</clipPath>
</defs>
</svg>
