<svg width="18" height="13" viewBox="0 0 18 13" fill="none" xmlns="http://www.w3.org/2000/svg">
<g clip-path="url(#clip0_1111_8300)">
<mask id="mask0_1111_8300" style="mask-type:alpha" maskUnits="userSpaceOnUse" x="0" y="0" width="18" height="13">
<path d="M16.2857 0H1.71429C0.767512 0 0 0.767512 0 1.71429V11.1429C0 12.0896 0.767512 12.8571 1.71429 12.8571H16.2857C17.2325 12.8571 18 12.0896 18 11.1429V1.71429C18 0.767512 17.2325 0 16.2857 0Z" fill="white"/>
</mask>
<g mask="url(#mask0_1111_8300)">
<path d="M16.2857 0H1.71429C0.767512 0 0 0.767512 0 1.71429V11.1429C0 12.0896 0.767512 12.8571 1.71429 12.8571H16.2857C17.2325 12.8571 18 12.0896 18 11.1429V1.71429C18 0.767512 17.2325 0 16.2857 0Z" fill="#E3001A"/>
<path fill-rule="evenodd" clip-rule="evenodd" d="M6.85735 4.28564H7.28592L7.71449 5.14279H6.85735V4.28564ZM7.71449 5.14279H8.57164V5.99993H7.71449V5.14279ZM6.85735 5.99993H7.71449V6.85707H6.85735V5.99993ZM6.00021 6.85707H6.85735V7.71422H6.00021V6.85707ZM6.00021 7.71422H6.85735V8.57136H6.00021V7.71422ZM5.57164 7.71422H6.00021V8.57136H5.14307L5.57164 7.71422ZM7.71449 6.85707H9.42878V8.57136H7.71449V6.85707ZM11.1431 4.28564H10.7145L10.2859 5.14279H11.1431V4.28564ZM10.2859 5.14279H9.42878V5.99993H10.2859V5.14279ZM11.1431 5.99993H10.2859V6.85707H11.1431V5.99993ZM12.0002 6.85707H11.1431V7.71422H12.0002V6.85707ZM12.0002 7.71422H11.1431V8.57136H12.0002V7.71422ZM12.4288 7.71422H12.0002V8.57136H12.8574L12.4288 7.71422ZM10.2859 6.85707H9.42878V8.57136H10.2859V6.85707Z" fill="white"/>
<path fill-rule="evenodd" clip-rule="evenodd" d="M7.71429 5.99997H8.57143V6.85711H7.71429V5.99997ZM6.85714 6.85711H7.71429V8.57139H6.85714V6.85711ZM6.85714 5.14282H7.71429V5.99997H6.85714V5.14282ZM6.42857 5.99997H6.85714V6.85711H6L6.42857 5.99997ZM10.2857 5.99997H9.42857V6.85711H10.2857V5.99997ZM11.1429 6.85711H10.2857V8.57139H11.1429V6.85711ZM11.1429 5.14282H10.2857V5.99997H11.1429V5.14282ZM11.5714 5.99997H11.1429V6.85711H12L11.5714 5.99997ZM9.42857 5.14282H8.57143V6.85711H9.42857V5.14282Z" fill="#F5DDE0"/>
<path fill-rule="evenodd" clip-rule="evenodd" d="M8.57129 4.28564H9.42843V5.14279H8.57129V4.28564Z" fill="#B4B4B4"/>
<path fill-rule="evenodd" clip-rule="evenodd" d="M0 0H18V3.42857H0V0ZM0 9.42857H18V12.8571H0V9.42857Z" fill="#0028A4"/>
<path d="M16.2859 0.428467H1.71443C1.00434 0.428467 0.428711 1.0041 0.428711 1.71418V11.1428C0.428711 11.8528 1.00434 12.4285 1.71443 12.4285H16.2859C16.9959 12.4285 17.5716 11.8528 17.5716 11.1428V1.71418C17.5716 1.0041 16.9959 0.428467 16.2859 0.428467Z" stroke="black" stroke-opacity="0.1" stroke-width="0.857143"/>
</g>
</g>
<defs>
<clipPath id="clip0_1111_8300">
<rect width="18" height="12.8571" fill="white"/>
</clipPath>
</defs>
</svg>
