<svg width="18" height="13" viewBox="0 0 18 13" fill="none" xmlns="http://www.w3.org/2000/svg">
<g clip-path="url(#clip0_1111_8198)">
<mask id="mask0_1111_8198" style="mask-type:alpha" maskUnits="userSpaceOnUse" x="0" y="0" width="18" height="13">
<path d="M16.2857 0H1.71429C0.767512 0 0 0.767512 0 1.71429V11.1429C0 12.0896 0.767512 12.8571 1.71429 12.8571H16.2857C17.2325 12.8571 18 12.0896 18 11.1429V1.71429C18 0.767512 17.2325 0 16.2857 0Z" fill="white"/>
</mask>
<g mask="url(#mask0_1111_8198)">
<path d="M16.2857 0H1.71429C0.767512 0 0 0.767512 0 1.71429V11.1429C0 12.0896 0.767512 12.8571 1.71429 12.8571H16.2857C17.2325 12.8571 18 12.0896 18 11.1429V1.71429C18 0.767512 17.2325 0 16.2857 0Z" fill="white"/>
<path fill-rule="evenodd" clip-rule="evenodd" d="M0 0H7.71429V6H0V0Z" fill="#444379"/>
<path fill-rule="evenodd" clip-rule="evenodd" d="M0.856934 0.857178V1.71432H1.71408V0.857178H0.856934ZM2.57122 0.857178V1.71432H3.42836V0.857178H2.57122ZM4.28551 0.857178V1.71432H5.14265V0.857178H4.28551ZM5.99979 0.857178V1.71432H6.85693V0.857178H5.99979ZM5.14265 1.71432V2.57146H5.99979V1.71432H5.14265ZM3.42836 1.71432V2.57146H4.28551V1.71432H3.42836ZM1.71408 1.71432V2.57146H2.57122V1.71432H1.71408ZM0.856934 2.57146V3.42861H1.71408V2.57146H0.856934ZM2.57122 2.57146V3.42861H3.42836V2.57146H2.57122ZM4.28551 2.57146V3.42861H5.14265V2.57146H4.28551ZM5.99979 2.57146V3.42861H6.85693V2.57146H5.99979ZM0.856934 4.28575V5.14289H1.71408V4.28575H0.856934ZM2.57122 4.28575V5.14289H3.42836V4.28575H2.57122ZM4.28551 4.28575V5.14289H5.14265V4.28575H4.28551ZM5.99979 4.28575V5.14289H6.85693V4.28575H5.99979ZM5.14265 3.42861V4.28575H5.99979V3.42861H5.14265ZM3.42836 3.42861V4.28575H4.28551V3.42861H3.42836ZM1.71408 3.42861V4.28575H2.57122V3.42861H1.71408Z" fill="#A7B6E7"/>
<path fill-rule="evenodd" clip-rule="evenodd" d="M7.71429 0V0.857143H18V0H7.71429ZM7.71429 1.71429V2.57143H18V1.71429H7.71429ZM7.71429 3.42857V4.28571H18V3.42857H7.71429ZM7.71429 5.14286V6H18V5.14286H7.71429ZM0 6.85714V7.71429H18V6.85714H0ZM0 8.57143V9.42857H18V8.57143H0ZM0 10.2857V11.1429H18V10.2857H0ZM0 12V12.8571H18V12H0Z" fill="#ED4C49"/>
<path d="M16.2859 0.428467H1.71443C1.00434 0.428467 0.428711 1.0041 0.428711 1.71418V11.1428C0.428711 11.8528 1.00434 12.4285 1.71443 12.4285H16.2859C16.9959 12.4285 17.5716 11.8528 17.5716 11.1428V1.71418C17.5716 1.0041 16.9959 0.428467 16.2859 0.428467Z" stroke="black" stroke-opacity="0.1" stroke-width="0.857143"/>
</g>
</g>
<defs>
<clipPath id="clip0_1111_8198">
<rect width="18" height="12.8571" fill="white"/>
</clipPath>
</defs>
</svg>
