<svg width="18" height="13" viewBox="0 0 18 13" fill="none" xmlns="http://www.w3.org/2000/svg">
<g clip-path="url(#clip0_1111_8456)">
<mask id="mask0_1111_8456" style="mask-type:alpha" maskUnits="userSpaceOnUse" x="0" y="0" width="18" height="13">
<path d="M16.2857 0H1.71429C0.767512 0 0 0.767512 0 1.71429V11.1429C0 12.0896 0.767512 12.8571 1.71429 12.8571H16.2857C17.2325 12.8571 18 12.0896 18 11.1429V1.71429C18 0.767512 17.2325 0 16.2857 0Z" fill="white"/>
</mask>
<g mask="url(#mask0_1111_8456)">
<path d="M16.2857 0H1.71429C0.767512 0 0 0.767512 0 1.71429V11.1429C0 12.0896 0.767512 12.8571 1.71429 12.8571H16.2857C17.2325 12.8571 18 12.0896 18 11.1429V1.71429C18 0.767512 17.2325 0 16.2857 0Z" fill="#006B4D"/>
<path d="M8.14279 10.2858C10.273 10.2858 11.9999 8.55892 11.9999 6.42868C11.9999 4.29843 10.273 2.57153 8.14279 2.57153C6.01255 2.57153 4.28564 4.29843 4.28564 6.42868C4.28564 8.55892 6.01255 10.2858 8.14279 10.2858Z" fill="#F7253B"/>
<path d="M16.2859 0.428711H1.71443C1.00434 0.428711 0.428711 1.00434 0.428711 1.71443V11.143C0.428711 11.8531 1.00434 12.4287 1.71443 12.4287H16.2859C16.9959 12.4287 17.5716 11.8531 17.5716 11.143V1.71443C17.5716 1.00434 16.9959 0.428711 16.2859 0.428711Z" stroke="black" stroke-opacity="0.1" stroke-width="0.857143"/>
</g>
</g>
<defs>
<clipPath id="clip0_1111_8456">
<rect width="18" height="12.8571" fill="white"/>
</clipPath>
</defs>
</svg>
