<svg width="18" height="13" viewBox="0 0 18 13" fill="none" xmlns="http://www.w3.org/2000/svg">
<g clip-path="url(#clip0_1111_8390)">
<mask id="mask0_1111_8390" style="mask-type:alpha" maskUnits="userSpaceOnUse" x="0" y="0" width="18" height="13">
<path d="M16.2857 0H1.71429C0.767512 0 0 0.767512 0 1.71429V11.1429C0 12.0896 0.767512 12.8571 1.71429 12.8571H16.2857C17.2325 12.8571 18 12.0896 18 11.1429V1.71429C18 0.767512 17.2325 0 16.2857 0Z" fill="white"/>
</mask>
<g mask="url(#mask0_1111_8390)">
<path d="M16.2857 0H1.71429C0.767512 0 0 0.767512 0 1.71429V11.1429C0 12.0896 0.767512 12.8571 1.71429 12.8571H16.2857C17.2325 12.8571 18 12.0896 18 11.1429V1.71429C18 0.767512 17.2325 0 16.2857 0Z" fill="#E02600"/>
<path fill-rule="evenodd" clip-rule="evenodd" d="M4.7126 6.19725L3.4526 6.85982L3.6926 5.45668L2.67432 4.46239L4.0826 4.25925L4.7126 2.9821L5.34174 4.25925L6.75003 4.46239L5.73003 5.45668L5.97175 6.85896L4.7126 6.19725ZM7.71432 2.57153H8.57146V3.42868H7.71432V2.57153ZM8.57146 4.28582H9.4286V5.14296H8.57146V4.28582ZM8.57146 6.0001H9.4286V6.85725H8.57146V6.0001ZM7.71432 7.71439H8.57146V8.57153H7.71432V7.71439Z" fill="#FFE000"/>
<path d="M16.2859 0.428711H1.71443C1.00434 0.428711 0.428711 1.00434 0.428711 1.71443V11.143C0.428711 11.8531 1.00434 12.4287 1.71443 12.4287H16.2859C16.9959 12.4287 17.5716 11.8531 17.5716 11.143V1.71443C17.5716 1.00434 16.9959 0.428711 16.2859 0.428711Z" stroke="black" stroke-opacity="0.1" stroke-width="0.857143"/>
</g>
</g>
<defs>
<clipPath id="clip0_1111_8390">
<rect width="18" height="12.8571" fill="white"/>
</clipPath>
</defs>
</svg>
