<svg width="18" height="13" viewBox="0 0 18 13" fill="none" xmlns="http://www.w3.org/2000/svg">
<g clip-path="url(#clip0_1111_8526)">
<mask id="mask0_1111_8526" style="mask-type:alpha" maskUnits="userSpaceOnUse" x="0" y="0" width="18" height="13">
<path d="M16.2857 0H1.71429C0.767512 0 0 0.767512 0 1.71429V11.1429C0 12.0896 0.767512 12.8571 1.71429 12.8571H16.2857C17.2325 12.8571 18 12.0896 18 11.1429V1.71429C18 0.767512 17.2325 0 16.2857 0Z" fill="white"/>
</mask>
<g mask="url(#mask0_1111_8526)">
<path d="M16.2857 0H1.71429C0.767512 0 0 0.767512 0 1.71429V11.1429C0 12.0896 0.767512 12.8571 1.71429 12.8571H16.2857C17.2325 12.8571 18 12.0896 18 11.1429V1.71429C18 0.767512 17.2325 0 16.2857 0Z" fill="#00421A"/>
<path fill-rule="evenodd" clip-rule="evenodd" d="M13.692 5.12057C13.6354 5.63143 13.4743 6 13.2857 6C13.0971 6 12.936 5.63143 12.8794 5.12057C12.3686 5.064 12 4.90286 12 4.71429C12 4.52571 12.3686 4.36457 12.8794 4.308C12.936 3.79714 13.0971 3.42857 13.2857 3.42857C13.4743 3.42857 13.6354 3.79714 13.692 4.308C14.2029 4.36457 14.5714 4.52571 14.5714 4.71429C14.5714 4.90286 14.2029 5.064 13.692 5.12057ZM0 0H5.14286V12.8571H0V0Z" fill="white"/>
<path fill-rule="evenodd" clip-rule="evenodd" d="M15.4029 5.97268C15.4201 6.12268 15.4286 6.27439 15.4286 6.42868C15.4286 8.55868 13.7015 10.2858 11.5715 10.2858C9.4415 10.2858 7.71436 8.55868 7.71436 6.42868C7.71436 4.29868 9.4415 2.57153 11.5715 2.57153C11.7258 2.57153 11.8775 2.5801 12.0275 2.59725C10.5601 2.79439 9.42864 4.05182 9.42864 5.57153C9.42864 7.22839 10.7718 8.57153 12.4286 8.57153C13.9492 8.57153 15.2058 7.4401 15.4029 5.97268Z" fill="white"/>
<path d="M16.2859 0.428467H1.71443C1.00434 0.428467 0.428711 1.0041 0.428711 1.71418V11.1428C0.428711 11.8528 1.00434 12.4285 1.71443 12.4285H16.2859C16.9959 12.4285 17.5716 11.8528 17.5716 11.1428V1.71418C17.5716 1.0041 16.9959 0.428467 16.2859 0.428467Z" stroke="black" stroke-opacity="0.1" stroke-width="0.857143"/>
</g>
</g>
<defs>
<clipPath id="clip0_1111_8526">
<rect width="18" height="12.8571" fill="white"/>
</clipPath>
</defs>
</svg>
