<svg width="18" height="13" viewBox="0 0 18 13" fill="none" xmlns="http://www.w3.org/2000/svg">
<g clip-path="url(#clip0_1111_8553)">
<mask id="mask0_1111_8553" style="mask-type:alpha" maskUnits="userSpaceOnUse" x="0" y="0" width="18" height="13">
<path d="M16.2857 0H1.71429C0.767512 0 0 0.767512 0 1.71429V11.1429C0 12.0896 0.767512 12.8571 1.71429 12.8571H16.2857C17.2325 12.8571 18 12.0896 18 11.1429V1.71429C18 0.767512 17.2325 0 16.2857 0Z" fill="white"/>
</mask>
<g mask="url(#mask0_1111_8553)">
<path d="M16.2857 0H1.71429C0.767512 0 0 0.767512 0 1.71429V11.1429C0 12.0896 0.767512 12.8571 1.71429 12.8571H16.2857C17.2325 12.8571 18 12.0896 18 11.1429V1.71429C18 0.767512 17.2325 0 16.2857 0Z" fill="#012A87"/>
<path d="M18 0H0V6H18V0Z" fill="#DC171D"/>
<path fill-rule="evenodd" clip-rule="evenodd" d="M0 0L8.57143 6.42857L0 12.8571V0Z" fill="white"/>
<path fill-rule="evenodd" clip-rule="evenodd" d="M0.856934 4.28589H2.57122L3.42836 5.14303L4.28551 4.28589H5.99979L4.28551 5.14303H2.57122L0.856934 4.28589Z" fill="#BC725D"/>
<path d="M3.42843 8.57164C3.90182 8.57164 4.28557 7.80413 4.28557 6.85735C4.28557 5.91058 3.90182 5.14307 3.42843 5.14307C2.95504 5.14307 2.57129 5.91058 2.57129 6.85735C2.57129 7.80413 2.95504 8.57164 3.42843 8.57164Z" fill="#62AFE1"/>
<path fill-rule="evenodd" clip-rule="evenodd" d="M2.5715 6.00024V7.71453H3.42864H4.28578V6.00024L5.14293 7.71453L4.28578 8.57167H2.5715L1.71436 7.71453L2.5715 6.00024Z" fill="#FFDF00"/>
<path d="M16.2859 0.428711H1.71443C1.00434 0.428711 0.428711 1.00434 0.428711 1.71443V11.143C0.428711 11.8531 1.00434 12.4287 1.71443 12.4287H16.2859C16.9959 12.4287 17.5716 11.8531 17.5716 11.143V1.71443C17.5716 1.00434 16.9959 0.428711 16.2859 0.428711Z" stroke="black" stroke-opacity="0.1" stroke-width="0.857143"/>
</g>
</g>
<defs>
<clipPath id="clip0_1111_8553">
<rect width="18" height="12.8571" fill="white"/>
</clipPath>
</defs>
</svg>
