<svg width="18" height="13" viewBox="0 0 18 13" fill="none" xmlns="http://www.w3.org/2000/svg">
<g clip-path="url(#clip0_803_1700)">
<mask id="mask0_803_1700" style="mask-type:alpha" maskUnits="userSpaceOnUse" x="0" y="0" width="18" height="13">
<path d="M16.2857 0H1.71429C0.767512 0 0 0.767512 0 1.71429V11.1429C0 12.0896 0.767512 12.8571 1.71429 12.8571H16.2857C17.2325 12.8571 18 12.0896 18 11.1429V1.71429C18 0.767512 17.2325 0 16.2857 0Z" fill="white"/>
</mask>
<g mask="url(#mask0_803_1700)">
<path d="M16.2857 0H1.71429C0.767512 0 0 0.767512 0 1.71429V11.1429C0 12.0896 0.767512 12.8571 1.71429 12.8571H16.2857C17.2325 12.8571 18 12.0896 18 11.1429V1.71429C18 0.767512 17.2325 0 16.2857 0Z" fill="#DC220D"/>
<path fill-rule="evenodd" clip-rule="evenodd" d="M9.00115 7.99704L7.20972 8.9399L7.55258 6.94532L6.104 5.53361L8.10629 5.24218L9.00115 3.42847L9.89686 5.24218L11.8983 5.53361L10.4497 6.94532L10.7926 8.93904" fill="#FFFF00"/>
<path d="M16.2859 0.428467H1.71443C1.00434 0.428467 0.428711 1.0041 0.428711 1.71418V11.1428C0.428711 11.8528 1.00434 12.4285 1.71443 12.4285H16.2859C16.9959 12.4285 17.5716 11.8528 17.5716 11.1428V1.71418C17.5716 1.0041 16.9959 0.428467 16.2859 0.428467Z" stroke="black" stroke-opacity="0.1" stroke-width="0.857143"/>
</g>
</g>
<defs>
<clipPath id="clip0_803_1700">
<rect width="18" height="12.8571" fill="white"/>
</clipPath>
</defs>
</svg>
