<svg width="18" height="13" viewBox="0 0 18 13" fill="none" xmlns="http://www.w3.org/2000/svg">
<g clip-path="url(#clip0_1111_8372)">
<mask id="mask0_1111_8372" style="mask-type:alpha" maskUnits="userSpaceOnUse" x="0" y="0" width="18" height="13">
<path d="M16.2857 0H1.71429C0.767512 0 0 0.767512 0 1.71429V11.1429C0 12.0896 0.767512 12.8571 1.71429 12.8571H16.2857C17.2325 12.8571 18 12.0896 18 11.1429V1.71429C18 0.767512 17.2325 0 16.2857 0Z" fill="white"/>
</mask>
<g mask="url(#mask0_1111_8372)">
<path d="M16.2857 0H1.71429C0.767512 0 0 0.767512 0 1.71429V11.1429C0 12.0896 0.767512 12.8571 1.71429 12.8571H16.2857C17.2325 12.8571 18 12.0896 18 11.1429V1.71429C18 0.767512 17.2325 0 16.2857 0Z" fill="#004F99"/>
<path fill-rule="evenodd" clip-rule="evenodd" d="M0 0H6V12.8571H0V0Z" fill="#C62429"/>
<path fill-rule="evenodd" clip-rule="evenodd" d="M1.71436 6H2.5715V9.42857H1.71436V6ZM4.28578 6H5.14293V9.42857H4.28578V6Z" fill="#FAD000"/>
<path d="M3.42843 9.42864C3.90182 9.42864 4.28557 9.04489 4.28557 8.5715C4.28557 8.09811 3.90182 7.71436 3.42843 7.71436C2.95504 7.71436 2.57129 8.09811 2.57129 8.5715C2.57129 9.04489 2.95504 9.42864 3.42843 9.42864Z" fill="#FAD000"/>
<path d="M3.42843 6.85735C3.90182 6.85735 4.28557 6.4736 4.28557 6.00021C4.28557 5.52682 3.90182 5.14307 3.42843 5.14307C2.95504 5.14307 2.57129 5.52682 2.57129 6.00021C2.57129 6.4736 2.95504 6.85735 3.42843 6.85735Z" fill="#FAD000"/>
<path fill-rule="evenodd" clip-rule="evenodd" d="M3.42843 2.57153L4.28557 4.28582H2.57129L3.42843 2.57153Z" fill="#FAD000"/>
<path fill-rule="evenodd" clip-rule="evenodd" d="M12 0H18V12.8571H12V0Z" fill="#C62429"/>
<path d="M16.2859 0.428711H1.71443C1.00434 0.428711 0.428711 1.00434 0.428711 1.71443V11.143C0.428711 11.8531 1.00434 12.4287 1.71443 12.4287H16.2859C16.9959 12.4287 17.5716 11.8531 17.5716 11.143V1.71443C17.5716 1.00434 16.9959 0.428711 16.2859 0.428711Z" stroke="black" stroke-opacity="0.1" stroke-width="0.857143"/>
</g>
</g>
<defs>
<clipPath id="clip0_1111_8372">
<rect width="18" height="12.8571" fill="white"/>
</clipPath>
</defs>
</svg>
