<svg width="24" height="24" viewBox="0 0 24 24" fill="none" xmlns="http://www.w3.org/2000/svg">
<g clip-path="url(#clip0_803_1707)">
<rect width="18" height="12.8571" transform="translate(3 5.57153)" fill="white"/>
<mask id="mask0_803_1707" style="mask-type:alpha" maskUnits="userSpaceOnUse" x="3" y="5" width="18" height="14">
<path d="M19.2857 5.57153H4.71429C3.76751 5.57153 3 6.33904 3 7.28582V16.7144C3 17.6612 3.76751 18.4287 4.71429 18.4287H19.2857C20.2325 18.4287 21 17.6612 21 16.7144V7.28582C21 6.33904 20.2325 5.57153 19.2857 5.57153Z" fill="white"/>
</mask>
<g mask="url(#mask0_803_1707)">
<path fill-rule="evenodd" clip-rule="evenodd" d="M15 12.0001C15 13.6569 13.6569 15.0001 12 15.0001C10.3431 15.0001 9 13.6569 9 12.0001C9 11.0401 11.0143 10.6372 12.7097 10.7889C12.8897 10.7409 13.0834 10.7144 13.2857 10.7144C14.2329 10.7144 15 11.2904 15 12.0001Z" fill="#0048AB"/>
<path fill-rule="evenodd" clip-rule="evenodd" d="M11.5714 11.5714C11.5714 11.5714 12.3386 10.7143 13.2857 10.7143C14.2329 10.7143 15 11.2903 15 12C15 10.3431 13.6569 9 12 9C10.8026 9 9.76886 9.70114 9.288 10.716C9 11.5714 9 11.8217 9 12C9.42857 12.4286 9.90514 12.4286 10.2857 12.4286C10.6663 12.4286 11.0083 12.2631 11.244 12L11.5714 11.5714Z" fill="#CD0027"/>
<path fill-rule="evenodd" clip-rule="evenodd" d="M15.8583 9.85711H17.5725L15.8583 8.14282H15.0011L15.8583 9.85711ZM8.14397 9.85711H6.42969L8.14397 8.14282H9.00112L8.14397 9.85711ZM15.8583 14.1428H17.5725L15.8583 15.8571H15.0011L15.8583 14.1428ZM8.14397 14.1428H6.42969L8.14397 15.8571H9.00112L8.14397 14.1428Z" fill="#252526"/>
<path d="M19.2868 6H4.7154C4.00532 6 3.42969 6.57563 3.42969 7.28571V16.7143C3.42969 17.4244 4.00532 18 4.7154 18H19.2868C19.9969 18 20.5725 17.4244 20.5725 16.7143V7.28571C20.5725 6.57563 19.9969 6 19.2868 6Z" stroke="black" stroke-opacity="0.1" stroke-width="0.857143"/>
</g>
</g>
<defs>
<clipPath id="clip0_803_1707">
<rect width="18" height="12.8571" fill="white" transform="translate(3 5.57153)"/>
</clipPath>
</defs>
</svg>
