<svg width="18" height="13" viewBox="0 0 18 13" fill="none" xmlns="http://www.w3.org/2000/svg">
<g clip-path="url(#clip0_1111_8234)">
<mask id="mask0_1111_8234" style="mask-type:alpha" maskUnits="userSpaceOnUse" x="0" y="0" width="18" height="13">
<path d="M16.2857 0H1.71429C0.767512 0 0 0.767512 0 1.71429V11.1429C0 12.0896 0.767512 12.8571 1.71429 12.8571H16.2857C17.2325 12.8571 18 12.0896 18 11.1429V1.71429C18 0.767512 17.2325 0 16.2857 0Z" fill="white"/>
</mask>
<g mask="url(#mask0_1111_8234)">
<path d="M16.2857 0H1.71429C0.767512 0 0 0.767512 0 1.71429V11.1429C0 12.0896 0.767512 12.8571 1.71429 12.8571H16.2857C17.2325 12.8571 18 12.0896 18 11.1429V1.71429C18 0.767512 17.2325 0 16.2857 0Z" fill="#D4112A"/>
<path fill-rule="evenodd" clip-rule="evenodd" d="M0 9.42847H18V12.857H0V9.42847Z" fill="#20BD42"/>
<path fill-rule="evenodd" clip-rule="evenodd" d="M0 0H18V3.42857H0V0Z" fill="#02A3BD"/>
<path fill-rule="evenodd" clip-rule="evenodd" d="M0 4.28575H18V8.57146H0V4.28575ZM4.28571 3.35575C4.152 3.40289 4.00714 3.42861 3.85714 3.42861C3.14743 3.42861 2.57143 2.85261 2.57143 2.14289C2.57143 1.43318 3.14743 0.857178 3.85714 0.857178C4.00714 0.857178 4.152 0.882892 4.28571 0.930035C3.786 1.10661 3.42857 1.58318 3.42857 2.14289C3.42857 2.70261 3.786 3.18003 4.28571 3.35575Z" fill="white"/>
<path fill-rule="evenodd" clip-rule="evenodd" d="M5.14307 1.71432H6.00021V2.57146H5.14307V1.71432ZM6.00021 0.857178H6.85735V1.71432H6.00021V0.857178ZM6.85735 1.71432H7.71449V2.57146H6.85735V1.71432ZM7.71449 0.857178H8.57164V1.71432H7.71449V0.857178ZM8.57164 1.71432H9.42878V2.57146H8.57164V1.71432ZM7.71449 2.57146H8.57164V3.42861H7.71449V2.57146ZM6.00021 2.57146H6.85735V3.42861H6.00021V2.57146Z" fill="#78CDDB"/>
<path d="M16.2859 0.428467H1.71443C1.00434 0.428467 0.428711 1.0041 0.428711 1.71418V11.1428C0.428711 11.8528 1.00434 12.4285 1.71443 12.4285H16.2859C16.9959 12.4285 17.5716 11.8528 17.5716 11.1428V1.71418C17.5716 1.0041 16.9959 0.428467 16.2859 0.428467Z" stroke="black" stroke-opacity="0.1" stroke-width="0.857143"/>
</g>
</g>
<defs>
<clipPath id="clip0_1111_8234">
<rect width="18" height="12.8571" fill="white"/>
</clipPath>
</defs>
</svg>
