<svg width="18" height="13" viewBox="0 0 18 13" fill="none" xmlns="http://www.w3.org/2000/svg">
<g clip-path="url(#clip0_1111_8441)">
<mask id="mask0_1111_8441" style="mask-type:alpha" maskUnits="userSpaceOnUse" x="0" y="0" width="18" height="13">
<path d="M16.2857 0H1.71429C0.767512 0 0 0.767512 0 1.71429V11.1429C0 12.0896 0.767512 12.8571 1.71429 12.8571H16.2857C17.2325 12.8571 18 12.0896 18 11.1429V1.71429C18 0.767512 17.2325 0 16.2857 0Z" fill="white"/>
</mask>
<g mask="url(#mask0_1111_8441)">
<path d="M16.2857 0H1.71429C0.767512 0 0 0.767512 0 1.71429V11.1429C0 12.0896 0.767512 12.8571 1.71429 12.8571H16.2857C17.2325 12.8571 18 12.0896 18 11.1429V1.71429C18 0.767512 17.2325 0 16.2857 0Z" fill="#2BB428"/>
<path fill-rule="evenodd" clip-rule="evenodd" d="M0 8.57129H18V12.857H0V8.57129Z" fill="#ED2432"/>
<path fill-rule="evenodd" clip-rule="evenodd" d="M0 0H18V4.28571H0V0Z" fill="#FFCC00"/>
<path fill-rule="evenodd" clip-rule="evenodd" d="M9.00011 8.357L6.73297 9.54843L7.16583 7.02415L5.33154 5.237L7.86611 4.86843L9.00011 2.57129L10.1341 4.86843L12.6687 5.237L10.8344 7.02415L11.2673 9.54929" fill="white"/>
<path d="M16.2859 0.428467H1.71443C1.00434 0.428467 0.428711 1.0041 0.428711 1.71418V11.1428C0.428711 11.8528 1.00434 12.4285 1.71443 12.4285H16.2859C16.9959 12.4285 17.5716 11.8528 17.5716 11.1428V1.71418C17.5716 1.0041 16.9959 0.428467 16.2859 0.428467Z" stroke="black" stroke-opacity="0.1" stroke-width="0.857143"/>
</g>
</g>
<defs>
<clipPath id="clip0_1111_8441">
<rect width="18" height="12.8571" fill="white"/>
</clipPath>
</defs>
</svg>
