<svg width="24" height="24" viewBox="0 0 24 24" fill="none" xmlns="http://www.w3.org/2000/svg">
<g clip-path="url(#clip0_803_1709)">
<mask id="mask0_803_1709" style="mask-type:alpha" maskUnits="userSpaceOnUse" x="3" y="5" width="18" height="14">
<path d="M19.2857 5.57153H4.71429C3.76751 5.57153 3 6.33904 3 7.28582V16.7144C3 17.6612 3.76751 18.4287 4.71429 18.4287H19.2857C20.2325 18.4287 21 17.6612 21 16.7144V7.28582C21 6.33904 20.2325 5.57153 19.2857 5.57153Z" fill="white"/>
</mask>
<g mask="url(#mask0_803_1709)">
<path d="M19.2857 5.57153H4.71429C3.76751 5.57153 3 6.33904 3 7.28582V16.7144C3 17.6612 3.76751 18.4287 4.71429 18.4287H19.2857C20.2325 18.4287 21 17.6612 21 16.7144V7.28582C21 6.33904 20.2325 5.57153 19.2857 5.57153Z" fill="#DC220D"/>
<path fill-rule="evenodd" clip-rule="evenodd" d="M12.0026 13.5686L10.2112 14.5114L10.554 12.5169L9.10547 11.1051L11.1078 10.8137L12.0026 9L12.8983 10.8137L14.8998 11.1051L13.4512 12.5169L13.794 14.5106" fill="#FFFF00"/>
<path d="M19.2868 6H4.7154C4.00532 6 3.42969 6.57563 3.42969 7.28571V16.7143C3.42969 17.4244 4.00532 18 4.7154 18H19.2868C19.9969 18 20.5725 17.4244 20.5725 16.7143V7.28571C20.5725 6.57563 19.9969 6 19.2868 6Z" stroke="black" stroke-opacity="0.1" stroke-width="0.857143"/>
</g>
</g>
<defs>
<clipPath id="clip0_803_1709">
<rect width="18" height="12.8571" fill="white" transform="translate(3 5.57153)"/>
</clipPath>
</defs>
</svg>
