<svg width="12" height="13" viewBox="0 0 12 13" fill="none" xmlns="http://www.w3.org/2000/svg">
<g clip-path="url(#clip0_1111_8273)">
<mask id="mask0_1111_8273" style="mask-type:alpha" maskUnits="userSpaceOnUse" x="0" y="0" width="18" height="13">
<path d="M16.2857 0H1.71429C0.767512 0 0 0.767512 0 1.71429V11.1429C0 12.0896 0.767512 12.8571 1.71429 12.8571H16.2857C17.2325 12.8571 18 12.0896 18 11.1429V1.71429C18 0.767512 17.2325 0 16.2857 0Z" fill="white"/>
</mask>
<g mask="url(#mask0_1111_8273)">
<path fill-rule="evenodd" clip-rule="evenodd" d="M0 0L11.1429 6.85714H5.14286L11.1429 12.8571H0V0Z" fill="#003495"/>
<path fill-rule="evenodd" clip-rule="evenodd" d="M0.856934 1.71411L7.71408 5.99983H2.57122L8.57122 11.9998H1.71236C1.24093 11.9998 0.856934 11.609 0.856934 11.141V1.71411Z" fill="#DF0A37"/>
<path fill-rule="evenodd" clip-rule="evenodd" d="M4.21293 4.28564C4.26007 4.3525 4.28578 4.4245 4.28578 4.49993C4.28578 4.85479 3.70978 5.14279 3.00007 5.14279C2.29036 5.14279 1.71436 4.85479 1.71436 4.49993C1.71436 4.4245 1.74007 4.3525 1.78721 4.28564C1.96378 4.41079 2.44036 4.49993 3.00007 4.49993C3.55978 4.49993 4.03721 4.41079 4.21293 4.28564Z" fill="white"/>
<path d="M3.00007 11.1427C3.71015 11.1427 4.28578 10.5671 4.28578 9.857C4.28578 9.14692 3.71015 8.57129 3.00007 8.57129C2.28999 8.57129 1.71436 9.14692 1.71436 9.857C1.71436 10.5671 2.28999 11.1427 3.00007 11.1427Z" fill="white"/>
<path d="M1.50994 1.11679C0.912508 0.737079 0.428223 1.00708 0.428223 1.71251V11.1445C0.428223 11.8534 1.00079 12.4285 1.71651 12.4285H10.2854L4.28537 6.42851H9.85679L1.50994 1.11679Z" stroke="black" stroke-opacity="0.1" stroke-width="0.857143"/>
</g>
</g>
<defs>
<clipPath id="clip0_1111_8273">
<rect width="11.1429" height="12.8571" fill="white"/>
</clipPath>
</defs>
</svg>
