<svg width="24" height="24" viewBox="0 0 24 24" fill="none" xmlns="http://www.w3.org/2000/svg">
<path d="M2 3.25C1.58579 3.25 1.25 3.58579 1.25 4C1.25 4.41421 1.58579 4.75 2 4.75V4V3.25ZM8 4.75C8.41421 4.75 8.75 4.41421 8.75 4C8.75 3.58579 8.41421 3.25 8 3.25V4V4.75ZM2 9.25C1.58579 9.25 1.25 9.58579 1.25 10C1.25 10.4142 1.58579 10.75 2 10.75V10V9.25ZM6 10.75C6.41421 10.75 6.75 10.4142 6.75 10C6.75 9.58579 6.41421 9.25 6 9.25V10V10.75ZM2 14.25C1.58579 14.25 1.25 14.5858 1.25 15C1.25 15.4142 1.58579 15.75 2 15.75V15V14.25ZM8 15.75C8.41421 15.75 8.75 15.4142 8.75 15C8.75 14.5858 8.41421 14.25 8 14.25V15V15.75ZM2 19.25C1.58579 19.25 1.25 19.5858 1.25 20C1.25 20.4142 1.58579 20.75 2 20.75V20V19.25ZM20 20.75C20.4142 20.75 20.75 20.4142 20.75 20C20.75 19.5858 20.4142 19.25 20 19.25V20V20.75ZM21.4697 16.5303C21.7626 16.8232 22.2374 16.8232 22.5303 16.5303C22.8232 16.2374 22.8232 15.7626 22.5303 15.4697L22 16L21.4697 16.5303ZM2 4V4.75H8V4V3.25H2V4ZM2 10V10.75H6V10V9.25H2V10ZM2 15V15.75H8V15V14.25H2V15ZM2 20V20.75H20V20V19.25H2V20ZM21.5294 9.76471H20.7794C20.7794 12.5343 18.5343 14.7794 15.7647 14.7794V15.5294V16.2794C19.3627 16.2794 22.2794 13.3627 22.2794 9.76471H21.5294ZM15.7647 15.5294V14.7794C12.9952 14.7794 10.75 12.5343 10.75 9.76471H10H9.25C9.25 13.3627 12.1667 16.2794 15.7647 16.2794V15.5294ZM10 9.76471H10.75C10.75 6.99516 12.9952 4.75 15.7647 4.75V4V3.25C12.1667 3.25 9.25 6.16673 9.25 9.76471H10ZM15.7647 4V4.75C18.5343 4.75 20.7794 6.99516 20.7794 9.76471H21.5294H22.2794C22.2794 6.16673 19.3627 3.25 15.7647 3.25V4ZM19.8824 13.8824L19.352 14.4127L21.4697 16.5303L22 16L22.5303 15.4697L20.4127 13.352L19.8824 13.8824Z" fill="#808080"/>
</svg>
