<svg width="32" height="32" viewBox="0 0 32 32" fill="none" xmlns="http://www.w3.org/2000/svg">
<path d="M30.0016 28C28.6683 30 21.335 31.3333 18.0016 27.3333C15.335 29.3333 4.00156 28.375 2.00156 23.7084C0.00156248 19.0418 11.3349 4.00005 12.6683 3.33339C14.0016 2.66673 17.3349 1.33336 18.6683 2.00002C20.0016 2.66668 23.3349 5.33337 22.0016 7.33335C20.6683 9.33333 18.0016 8.66667 16.0016 8.66667C13.2529 8.66667 12.6683 11.3333 12.6683 12C12.6683 12.6667 12.0016 16.6667 11.335 18C12.6683 18 16.0016 14.0001 21.335 20M30.0016 17.3333C28.0016 15.3334 22.3713 13.154 17.7046 17.1539" stroke="#161616" stroke-width="2" stroke-linecap="round" stroke-linejoin="round"/>
</svg>
