<svg width="32" height="32" viewBox="0 0 32 32" fill="none" xmlns="http://www.w3.org/2000/svg">
<path d="M11.4089 2.6665V4.6665C11.4089 6.13926 10.2018 7.33479 8.77309 7.69239C7.61894 7.98127 6.50029 8.40808 5.54265 8.83511C3.72035 9.64772 2.77789 11.5898 2.95465 13.5772L4.00019 25.3332M20.6669 2.6665V4.6665C20.6669 6.13926 21.8744 7.33397 23.3023 7.69456C24.4437 7.98279 25.5462 8.40731 26.4894 8.83236C28.2958 9.64638 29.2236 11.5772 29.0481 13.5508L28.0002 25.3332M8.66686 14.6665C8.66686 16.6665 8.66686 21.9998 14.0002 21.9998M10.0002 20.6665C10.0002 22.6665 10.6669 26.6665 8.66686 29.3332M23.3335 14.6665C23.3335 16.6665 23.3335 21.9998 18.0002 21.9998M22.0002 20.6665C22.0002 22.6665 21.3335 26.6665 23.3335 29.3332" stroke="#161616" stroke-width="2" stroke-linecap="round" stroke-linejoin="round"/>
</svg>
