<svg width="32" height="32" viewBox="0 0 32 32" fill="none" xmlns="http://www.w3.org/2000/svg">
<path d="M8 11.5554C8 6.64619 12.1787 2.6665 17.3333 2.6665C22.488 2.6665 26.6667 6.64619 26.6667 11.5554C26.6667 16.4468 24.0288 18.6466 21.6562 19.6358C19.7143 20.4455 17.9556 22.1499 17.9556 24.2538C17.9556 27.0591 15.7269 29.3332 12.9778 29.3332C10.2286 29.3332 8 27.0591 8 24.2538V21.7141M21.9103 12.4892C22.1557 9.92361 20.2747 7.64485 17.7091 7.39949C15.4292 7.18146 13.3759 8.64246 12.7746 10.7709M14.2457 15.6039C13.1224 14.6494 12.4684 13.1793 12.6194 11.6007C12.6467 11.3149 12.6993 11.0377 12.7746 10.7709M12.7746 10.7709C13.3729 10.5127 14.0428 10.3974 14.7372 10.4638C16.9363 10.6741 18.5486 12.6273 18.3383 14.8265C18.1904 16.3728 17.351 17.5568 16 18.0931L15.5286 20.7664C15.3368 21.8542 14.2995 22.5806 13.2117 22.3888C12.1239 22.197 11.3976 21.1596 11.5894 20.0718" stroke="#161616" stroke-width="2" stroke-linecap="round" stroke-linejoin="round"/>
</svg>
