<svg width="32" height="32" viewBox="0 0 32 32" fill="none" xmlns="http://www.w3.org/2000/svg">
<path d="M8.84245 7.51058L10.5721 9.92405M23.75 7.8068L22.0203 10.2203M16.0059 4.6665V8.6665M16 27.3332C22.6274 27.3332 28 21.7852 28 17.9998C28 14.2145 22.6274 8.6665 16 8.6665C9.3726 8.6665 4 14.2184 4 17.9998C4 21.7813 9.3726 27.3332 16 27.3332ZM16 21.9998C18.2091 21.9998 20 20.209 20 17.9998C20 15.7907 18.2091 13.9998 16 13.9998C13.7909 13.9998 12 15.7907 12 17.9998C12 20.209 13.7909 21.9998 16 21.9998Z" stroke="#161616" stroke-width="2" stroke-linecap="round" stroke-linejoin="round"/>
</svg>
