<svg width="32" height="32" viewBox="0 0 32 32" fill="none" xmlns="http://www.w3.org/2000/svg">
<path d="M5.33464 29.9998V24.0972C5.33464 22.8759 4.87732 21.7132 4.26693 20.6554C3.24988 18.8929 2.66797 16.8476 2.66797 14.6665C2.66797 8.03909 8.04055 2.6665 14.668 2.6665C21.2094 2.6665 26.5284 7.86238 26.6653 15.0488C26.6688 15.2354 26.7071 15.4213 26.7829 15.5917L29.3346 21.3332L26.668 22.6665C25.3346 27.3332 25.6013 28.6665 21.3346 28.6665C17.068 28.6665 16.668 27.9998 16.0013 25.9998M13.3346 19.9998C13.3346 18.5271 14.5285 17.3332 16.0013 17.3332C17.8423 17.3332 19.3346 15.8408 19.3346 13.9998M19.3346 13.9998C20.4392 13.9998 21.3346 13.1044 21.3346 11.9998C21.3346 10.8953 20.4392 9.99984 19.3346 9.99984C19.0505 9.99984 18.7802 10.0591 18.5354 10.1659C18.6214 9.90392 18.668 9.62398 18.668 9.33317C18.668 7.86041 17.4741 6.6665 16.0013 6.6665C14.7393 6.6665 13.682 7.54321 13.4053 8.72081M19.3346 13.9998C18.7423 13.9998 18.2101 13.7423 17.8439 13.3332M8.29414 12.7014C7.36824 12.8764 6.66797 13.6897 6.66797 14.6665C6.66797 15.7711 7.5634 16.6665 8.66797 16.6665C9.53878 16.6665 10.2796 16.11 10.5542 15.3332M8.29414 12.7014C8.41525 12.6785 8.54021 12.6665 8.66797 12.6665M14.668 11.3332C14.668 10.2747 14.1746 9.33142 13.4053 8.72081C12.8366 8.26944 12.1171 7.99984 11.3346 7.99984C9.49369 7.99984 8.0013 9.49222 8.0013 11.3332C8.0013 11.8208 8.106 12.2839 8.29414 12.7014" stroke="#2592FF" stroke-width="2" stroke-linecap="round" stroke-linejoin="round"/>
</svg>
