<svg width="32" height="32" viewBox="0 0 32 32" fill="none" xmlns="http://www.w3.org/2000/svg">
<path d="M20 8.04846C18.7373 7.68645 17.3333 9.47152 16 9.47152C14.6667 9.47152 13.2627 7.68645 12 8.04846C6.59054 9.5993 2 14.3785 2 16C2 18.0012 8.63627 23.4715 16 23.4715C23.3638 23.4715 30 18.001 30 16C30 14.3785 25.4095 9.5993 20 8.04846Z" stroke="#161616" stroke-width="2" stroke-linecap="round" stroke-linejoin="round"/>
<path d="M26 16C26 16.6667 21.5228 18 16 18C10.4772 18 6 16.6667 6 16C6 15.3333 10.4772 14 16 14C21.5228 14 26 15.3333 26 16Z" stroke="#161616" stroke-width="2" stroke-linecap="round" stroke-linejoin="round"/>
</svg>
