<svg width="32" height="32" viewBox="0 0 32 32" fill="none" xmlns="http://www.w3.org/2000/svg">
<path d="M24.0012 28.1464C26.9468 28.1464 29.3346 25.7586 29.3346 22.8131C29.3346 22.0495 29.1741 21.3234 28.885 20.6667L24.085 14.2667C22.0079 11.4971 20.885 8.12858 20.885 4.66665V2M24.0013 24.1465C22.6894 22.8346 20.4778 23.1935 19.648 24.8529L19.1502 25.8487C17.8527 28.4435 14.1498 28.4435 12.8524 25.8487L12.3545 24.8529C11.5248 23.1935 9.31315 22.8346 8.00126 24.1465M8.0013 28.1464C5.05578 28.1464 2.66797 25.7586 2.66797 22.8131C2.66797 22.0495 2.82844 21.3234 3.1175 20.6667L7.91751 14.2667C9.99468 11.4971 11.1175 8.12858 11.1175 4.66665V2" stroke="#161616" stroke-width="2" stroke-linecap="round" stroke-linejoin="round"/>
</svg>
