<svg width="32" height="32" viewBox="0 0 32 32" fill="none" xmlns="http://www.w3.org/2000/svg">
<path d="M7.99866 4C9.33203 8 8.66537 11.3333 5.33201 15.3333C4.83404 15.9309 4.45509 16.5731 4.17517 17.2421C2.58134 21.0516 4.19785 25.7317 5.332 28M23.9987 4C22.6653 8 23.332 11.3333 26.6654 15.3333C27.1477 15.9121 27.5183 16.5328 27.7955 17.1792C29.4339 20.9999 27.8058 25.7192 26.6654 28M16.0489 12V11.3333M15.9986 25.3334L16.0865 24.6307C16.4171 21.9853 18.666 20 21.332 20M15.9986 25.3334V28M15.9986 25.3334L15.9108 24.6306C15.5801 21.9852 13.3313 20 10.6653 20" stroke="#161616" stroke-width="2" stroke-linecap="round" stroke-linejoin="round"/>
</svg>
