<svg width="32" height="32" viewBox="0 0 32 32" fill="none" xmlns="http://www.w3.org/2000/svg">
<path d="M11.8196 4.6665L11.4006 8.71349C11.2599 10.0727 10.1003 11.093 8.77639 11.4313C7.52373 11.7514 6.31932 12.2642 5.31596 12.7708C3.61358 13.6304 2.78795 15.5104 2.98265 17.4075L4.0013 27.3332M8.66797 21.3332C8.66797 22.6665 8.66797 23.9998 9.33464 27.3332M19.8196 4.6665L20.2386 8.71349C20.3793 10.0727 21.5374 11.0967 22.8644 11.4226C24.173 11.744 25.4559 12.2659 26.5297 12.7802C28.3126 13.6339 29.2084 15.5716 29.0066 17.538L28.0013 27.3332M23.3346 21.3332C23.3346 22.6665 23.3346 23.9998 22.668 27.3332" stroke="#161616" stroke-width="2" stroke-linecap="round" stroke-linejoin="round"/>
<line x1="16.332" y1="14.3335" x2="16.332" y2="25.6668" stroke="black" stroke-width="2" stroke-linecap="round"/>
</svg>
