<svg width="49" height="49" viewBox="0 0 49 49" fill="none" xmlns="http://www.w3.org/2000/svg">
<rect width="49" height="49" rx="24.5" fill="#FFF2F7"/>
<path d="M24.8398 13C29.1696 13.0001 32.6795 16.5101 32.6797 20.8398C32.6797 24.7261 29.8517 27.9501 26.1416 28.5703C26.1446 28.6064 26.1475 28.6428 26.1475 28.6797V29.9863H28.7607C29.4822 29.9863 30.0671 30.5715 30.0674 31.293C30.0674 32.0146 29.4824 32.5996 28.7607 32.5996H26.1475V36.5205C26.1472 37.242 25.5623 37.8271 24.8408 37.8271C24.1195 37.827 23.5344 37.2419 23.5342 36.5205V32.5996H20.9209C20.1994 32.5995 19.6143 32.0145 19.6143 31.293C19.6145 30.5716 20.1995 29.9865 20.9209 29.9863H23.5342V28.6797C23.5342 28.6429 23.5361 28.6064 23.5391 28.5703C19.8283 27.9506 17 24.7265 17 20.8398C17.0002 16.5101 20.51 13 24.8398 13ZM24.8398 15.6133C21.9533 15.6133 19.6135 17.9534 19.6133 20.8398C19.6133 23.7265 21.9532 26.0664 24.8398 26.0664C27.7264 26.0663 30.0664 23.7264 30.0664 20.8398C30.0662 17.9534 27.7263 15.6134 24.8398 15.6133Z" fill="#FF649F"/>
</svg>
