<svg width="49" height="49" viewBox="0 0 49 49" fill="none" xmlns="http://www.w3.org/2000/svg">
<rect width="49" height="49" rx="24.5" fill="#DEE2FF"/>
<path d="M34.332 14.3333C35.0683 14.3333 35.6649 14.93 35.665 15.6663V19.6663C35.665 20.4026 35.0684 21.0002 34.332 21.0002C33.5957 21.0002 32.999 20.4026 32.999 19.6663V18.9788L29.1592 22.8186C29.0679 22.9099 28.9661 22.984 28.8584 23.0432C29.7851 24.3489 30.332 25.9432 30.332 27.6663C30.332 32.0845 26.7503 35.6663 22.332 35.6663C17.9138 35.6663 14.332 32.0845 14.332 27.6663C14.3322 23.2481 17.9139 19.6663 22.332 19.6663C24.101 19.6663 25.735 20.242 27.0596 21.2141C27.1171 21.1136 27.1886 21.0187 27.2744 20.9329L31.2061 17.0002H30.332C29.5957 17.0002 28.999 16.4026 28.999 15.6663C28.9992 14.93 29.5958 14.3333 30.332 14.3333H34.332ZM22.332 22.3333C19.3866 22.3333 16.9992 24.7209 16.999 27.6663C16.999 30.6118 19.3865 32.9993 22.332 32.9993C25.2775 32.9993 27.665 30.6118 27.665 27.6663C27.6649 24.7209 25.2774 22.3333 22.332 22.3333Z" fill="#2036FF"/>
</svg>
