<svg width="24" height="24" viewBox="0 0 24 24" fill="none" xmlns="http://www.w3.org/2000/svg">
<path d="M19 4C19.5523 4 20 4.44772 20 5V8C20 8.55228 19.5523 9 19 9C18.4477 9 18 8.55228 18 8V7.48438L15.1211 10.3643C15.0525 10.4328 14.9754 10.4877 14.8945 10.5322C15.5897 11.5116 16 12.7075 16 14C16 17.3137 13.3137 20 10 20C6.68629 20 4 17.3137 4 14C4 10.6863 6.68629 8 10 8C11.3269 8 12.5524 8.43186 13.5459 9.16113C13.589 9.08585 13.6418 9.01451 13.7061 8.9502L16.6562 6H16C15.4477 6 15 5.55228 15 5C15 4.44772 15.4477 4 16 4H19ZM10 10C7.79086 10 6 11.7909 6 14C6 16.2091 7.79086 18 10 18C12.2091 18 14 16.2091 14 14C14 11.7909 12.2091 10 10 10Z" fill="#2036FF"/>
</svg>
