<svg width="24" height="24" viewBox="0 0 24 24" fill="none" xmlns="http://www.w3.org/2000/svg">
<path d="M11.8799 3C15.1272 3.00006 17.7596 5.6326 17.7598 8.87988C17.7598 11.7945 15.6389 14.2125 12.8564 14.6777C12.8587 14.7048 12.8613 14.7321 12.8613 14.7598V15.7402H14.8213C15.3622 15.7405 15.8006 16.1788 15.8008 16.7197C15.8008 17.2608 15.3623 17.7 14.8213 17.7002H12.8613V20.6396C12.8613 21.1809 12.4221 21.6201 11.8809 21.6201C11.3396 21.6201 10.9004 21.1809 10.9004 20.6396V17.7002H8.94043C8.39939 17.7 7.96094 17.2608 7.96094 16.7197C7.96112 16.1788 8.3995 15.7405 8.94043 15.7402H10.9004V14.7598C10.9004 14.7321 10.902 14.7048 10.9043 14.6777C8.12125 14.213 6 11.7949 6 8.87988C6.00013 5.63256 8.63253 3 11.8799 3ZM11.8799 4.95996C9.715 4.95996 7.96009 6.71503 7.95996 8.87988C7.95996 11.0448 9.71493 12.7998 11.8799 12.7998C14.0448 12.7997 15.7998 11.0448 15.7998 8.87988C15.7997 6.71507 14.0447 4.96002 11.8799 4.95996Z" fill="#FF649F"/>
</svg>
