<svg width="24" height="24" viewBox="0 0 24 24" fill="none" xmlns="http://www.w3.org/2000/svg">
<rect width="24" height="24" rx="12" fill="#DEE2FF"/>
<path d="M18.125 5C18.6082 5 19 5.39175 19 5.875V8.5C19 8.98325 18.6082 9.375 18.125 9.375C17.6418 9.375 17.25 8.98325 17.25 8.5V8.04883L14.7305 10.5684C14.6706 10.6282 14.6038 10.6769 14.5332 10.7158C15.1413 11.5727 15.5 12.6192 15.5 13.75C15.5 16.6495 13.1495 19 10.25 19C7.35051 19 5 16.6495 5 13.75C5 10.8505 7.35051 8.5 10.25 8.5C11.4107 8.5 12.4833 8.87686 13.3525 9.51465C13.3902 9.44899 13.4371 9.38715 13.4932 9.33105L16.0742 6.75H15.5C15.0168 6.75 14.625 6.35825 14.625 5.875C14.625 5.39175 15.0168 5 15.5 5H18.125ZM10.25 10.25C8.317 10.25 6.75 11.817 6.75 13.75C6.75 15.683 8.317 17.25 10.25 17.25C12.183 17.25 13.75 15.683 13.75 13.75C13.75 11.817 12.183 10.25 10.25 10.25Z" fill="#2036FF"/>
</svg>
