<svg width="20" height="20" viewBox="0 0 20 20" fill="none" xmlns="http://www.w3.org/2000/svg">
<rect width="20" height="20" rx="10" fill="#FFF2F7"/>
<path d="M9.90234 2.34155C12.6638 2.34155 14.9023 4.58013 14.9023 7.34155C14.9023 9.82008 13.0987 11.8758 10.7324 12.2712C10.7344 12.2945 10.7373 12.3178 10.7373 12.3416V13.1746H12.4023C12.8626 13.1746 13.2354 13.5483 13.2354 14.0085C13.2351 14.4686 12.8624 14.8415 12.4023 14.8416H10.7373V17.3416C10.7373 17.8018 10.3635 18.1746 9.90332 18.1746C9.44323 18.1744 9.07033 17.8017 9.07031 17.3416V14.8416H7.40234C6.94223 14.8416 6.56954 14.4686 6.56934 14.0085C6.56934 13.5483 6.94211 13.1746 7.40234 13.1746H9.07031V12.3416C9.07031 12.3179 9.07131 12.2944 9.07324 12.2712C6.70665 11.876 4.90239 9.82031 4.90234 7.34155C4.90234 4.58019 7.14101 2.34166 9.90234 2.34155ZM9.90332 4.00854C8.06242 4.0086 6.57031 5.50064 6.57031 7.34155C6.57038 9.18241 8.06246 10.6745 9.90332 10.6746C11.7442 10.6745 13.2363 9.18241 13.2363 7.34155C13.2363 5.50063 11.7442 4.00859 9.90332 4.00854Z" fill="#FF649F"/>
</svg>
