<svg width="28" height="28" viewBox="0 0 28 28" fill="none" xmlns="http://www.w3.org/2000/svg">
<path d="M16.3346 4.66668C16.3346 5.95532 15.2899 7.00001 14.0013 7.00001C12.7127 7.00001 11.668 5.95532 11.668 4.66668C11.668 3.37801 12.7127 2.33334 14.0013 2.33334C15.2899 2.33334 16.3346 3.37801 16.3346 4.66668Z" fill="#2592FF"/>
<path d="M10.7578 8.74966H17.2393C18.0186 8.74966 18.545 9.25944 18.877 9.82779C19.206 10.3911 19.4118 11.1146 19.5459 11.8122C19.8161 13.2183 19.832 14.7226 19.832 15.1667C19.832 15.4887 19.5711 15.7495 19.249 15.7497C18.9268 15.7497 18.665 15.4888 18.665 15.1667C18.665 14.736 18.6487 13.3237 18.4004 12.0319C18.3056 11.5386 18.1838 11.1006 18.0361 10.7516L16.915 10.9792V24.4997C16.915 24.8131 16.6676 25.0706 16.3545 25.0827C16.0413 25.0947 15.774 24.8571 15.75 24.5446L15.167 16.9616C15.1658 16.9461 15.165 16.9311 15.165 16.9167V16.3336H12.832V16.9167L12.8301 16.9616L12.2471 24.5446C12.223 24.8571 11.9558 25.0947 11.6426 25.0827C11.3296 25.0705 11.082 24.813 11.082 24.4997V10.9792L9.96191 10.7516C9.81423 11.1007 9.69149 11.5384 9.59668 12.0319C9.34837 13.3237 9.33203 14.736 9.33203 15.1667C9.33203 15.4887 9.07106 15.7495 8.74902 15.7497C8.42684 15.7497 8.16504 15.4888 8.16504 15.1667C8.16504 14.7226 8.18095 13.2183 8.45117 11.8122C8.58522 11.1146 8.79114 10.3911 9.12012 9.82779C9.45208 9.25947 9.97853 8.74972 10.7578 8.74966Z" fill="#2592FF" stroke="#2592FF" stroke-width="1.16667"/>
</svg>
