<svg width="32" height="32" viewBox="0 0 32 32" fill="none" xmlns="http://www.w3.org/2000/svg">
<path d="M11.9724 13.0069C12.8203 14.7729 13.9762 16.4281 15.44 17.892C16.9039 19.3558 18.5591 20.5117 20.3252 21.3596C20.4771 21.4326 20.553 21.469 20.6491 21.4971C20.9907 21.5966 21.4101 21.5251 21.6993 21.318C21.7807 21.2597 21.8504 21.1901 21.9896 21.0508C22.4156 20.6249 22.6285 20.4119 22.8427 20.2727C23.6502 19.7476 24.6914 19.7476 25.4989 20.2727C25.7131 20.4119 25.9261 20.6249 26.352 21.0508L26.5894 21.2882C27.2368 21.9356 27.5605 22.2594 27.7364 22.607C28.0861 23.2985 28.0861 24.1151 27.7364 24.8065C27.5605 25.1542 27.2368 25.4779 26.5894 26.1254L26.3973 26.3174C25.7521 26.9626 25.4295 27.2852 24.9909 27.5316C24.5042 27.805 23.7482 28.0016 23.19 28C22.6869 27.9985 22.3431 27.9009 21.6554 27.7057C17.9599 26.6568 14.4727 24.6777 11.5635 21.7685C8.65427 18.8593 6.67521 15.3721 5.6263 11.6766C5.43113 10.9889 5.33354 10.6451 5.33204 10.142C5.33038 9.58378 5.52696 8.82785 5.80037 8.34114C6.04677 7.90252 6.36938 7.57991 7.01461 6.93468L7.20665 6.74263C7.8541 6.09519 8.17782 5.77146 8.5255 5.59561C9.21695 5.24588 10.0335 5.24588 10.725 5.59561C11.0726 5.77146 11.3964 6.09519 12.0438 6.74263L12.2812 6.98004C12.7071 7.40596 12.9201 7.61892 13.0593 7.83306C13.5844 8.64065 13.5844 9.68177 13.0593 10.4894C12.9201 10.7035 12.7071 10.9165 12.2812 11.3424C12.1419 11.4816 12.0723 11.5513 12.014 11.6327C11.8069 11.9219 11.7354 12.3413 11.835 12.6829C11.863 12.779 11.8994 12.8549 11.9724 13.0069Z" stroke="#2592FF" stroke-width="2" stroke-linecap="round" stroke-linejoin="round"/>
</svg>
