<svg width="24" height="24" viewBox="0 0 24 24" fill="none" xmlns="http://www.w3.org/2000/svg">
<path d="M19 4H5C3.34315 4 2 5.34315 2 7C2 8.65685 3.34315 10 5 10H7C7.55228 10 8 10.4477 8 11V12.7929C8 13.2383 8.53857 13.4614 8.85355 13.1464L11.7071 10.2929C11.8946 10.1054 12.149 10 12.4142 10H19C20.6569 10 22 8.65685 22 7C22 5.34315 20.6569 4 19 4Z" fill="#808080"/>
<path d="M5 13C3.34315 13 2 14.3431 2 16C2 17.6569 3.34315 19 5 19H11.5858C11.851 19 12.1054 19.1054 12.2929 19.2929L15.1464 22.1464C15.4614 22.4614 16 22.2383 16 21.7929V20C16 19.4477 16.4477 19 17 19H19C20.6569 19 22 17.6569 22 16C22 14.3431 20.6569 13 19 13H14M5 4H19C20.6569 4 22 5.34315 22 7C22 8.65685 20.6569 10 19 10H12.4142C12.149 10 11.8946 10.1054 11.7071 10.2929L8.85355 13.1464C8.53857 13.4614 8 13.2383 8 12.7929V11C8 10.4477 7.55228 10 7 10H5C3.34315 10 2 8.65685 2 7C2 5.34315 3.34315 4 5 4Z" stroke="#808080" stroke-width="1.5" stroke-linecap="round"/>
</svg>
