<svg width="28" height="28" viewBox="0 0 28 28" fill="none" xmlns="http://www.w3.org/2000/svg">
<rect width="28" height="28" rx="14" fill="#F0F1F5"/>
<path d="M20 12V16M23 8.99996V19M6 18H7C7.55228 18 8 17.5522 8 17V11C8 10.4477 7.55228 9.99996 7 9.99996H6C4.89543 9.99996 4 10.8954 4 12V16C4 17.1045 4.89543 18 6 18ZM8.55279 9.72356L14.5528 6.72356C15.2177 6.39111 16 6.87461 16 7.61799V20.3819C16 21.1253 15.2177 21.6088 14.5528 21.2763L8.55279 18.2763C8.214 18.107 8 17.7607 8 17.3819V10.618C8 10.2392 8.214 9.89295 8.55279 9.72356Z" stroke="#494949" stroke-width="1.5" stroke-linecap="round"/>
</svg>
