<svg width="24" height="24" viewBox="0 0 24 24" fill="none" xmlns="http://www.w3.org/2000/svg">
<path d="M18 6L20 4M18 18L20 20M18 12H21M4 16H5C5.55228 16 6 15.5523 6 15V9C6 8.44772 5.55228 8 5 8H4C2.89543 8 2 8.89543 2 10V14C2 15.1046 2.89543 16 4 16ZM6.55279 7.72361L12.5528 4.72361C13.2177 4.39116 14 4.87465 14 5.61803V18.382C14 19.1253 13.2177 19.6088 12.5528 19.2764L6.55279 16.2764C6.214 16.107 6 15.7607 6 15.382V8.61803C6 8.23926 6.214 7.893 6.55279 7.72361Z" stroke="currentColor" stroke-width="1.5" stroke-linecap="round"/>
</svg>
