<svg width="24" height="24" viewBox="0 0 24 24" fill="none" xmlns="http://www.w3.org/2000/svg">
<path d="M18 9.99996V14M21 6.99996V17M4 16H5C5.55228 16 6 15.5522 6 15V8.99996C6 8.44767 5.55228 7.99996 5 7.99996H4C2.89543 7.99996 2 8.89539 2 9.99996V14C2 15.1045 2.89543 16 4 16ZM6.55279 7.72356L12.5528 4.72356C13.2177 4.39111 14 4.87461 14 5.61799V18.3819C14 19.1253 13.2177 19.6088 12.5528 19.2763L6.55279 16.2763C6.214 16.107 6 15.7607 6 15.3819V8.61799C6 8.23922 6.214 7.89295 6.55279 7.72356Z" stroke="black" stroke-width="1.5" stroke-linecap="round"/>
</svg>
