<svg width="35" height="35" viewBox="0 0 35 35" fill="none" xmlns="http://www.w3.org/2000/svg">
<path d="M11.5573 13.3611C10.959 13.3611 10.474 13.8461 10.474 14.4445C10.474 15.0428 10.959 15.5278 11.5573 15.5278V14.4445V13.3611ZM23.1128 15.5278C23.7112 15.5278 24.1962 15.0428 24.1962 14.4445C24.1962 13.8461 23.7112 13.3611 23.1128 13.3611V14.4445V15.5278ZM11.5573 19.1389C10.959 19.1389 10.474 19.6239 10.474 20.2222C10.474 20.8205 10.959 21.3056 11.5573 21.3056V20.2222V19.1389ZM17.3351 21.3056C17.9334 21.3056 18.4184 20.8205 18.4184 20.2222C18.4184 19.6239 17.9334 19.1389 17.3351 19.1389V20.2222V21.3056ZM4.46799 27.1296L4.95981 26.1643H4.95981L4.46799 27.1296ZM3.2055 25.8671L2.24024 26.3589H2.24024L3.2055 25.8671ZM31.4646 25.8671L32.4299 26.3589L32.4299 26.3589L31.4646 25.8671ZM30.2022 27.1296L30.694 28.0948V28.0948L30.2022 27.1296ZM30.2022 7.5371L30.694 6.57184V6.57184L30.2022 7.5371ZM31.4646 8.79959L32.4299 8.30777L32.4299 8.30776L31.4646 8.79959ZM4.46799 7.5371L4.95981 8.50236H4.95981L4.46799 7.5371ZM3.2055 8.79959L4.17075 9.29141V9.29141L3.2055 8.79959ZM9.82396 30.9111L10.474 31.7778H10.474L9.82396 30.9111ZM13.2136 28.3689L13.8636 29.2356L13.8636 29.2356L13.2136 28.3689ZM14.8549 27.4981L15.0627 28.5613H15.0627L14.8549 27.4981ZM14.1514 27.7326L13.6798 26.7573L13.6798 26.7573L14.1514 27.7326ZM11.5573 14.4445V15.5278H23.1128V14.4445V13.3611H11.5573V14.4445ZM11.5573 20.2222V21.3056H17.3351V20.2222V19.1389H11.5573V20.2222ZM7.51285 7.22223V8.30556H27.1573V7.22223V6.1389H7.51285V7.22223ZM31.7795 11.8445H30.6962V22.8222H31.7795H32.8628V11.8445H31.7795ZM2.89062 22.8222H3.97396V11.8445H2.89062H1.80729V22.8222H2.89062ZM7.51285 27.4445V26.3611C6.68601 26.3611 6.13103 26.3603 5.70365 26.3254C5.28891 26.2915 5.09062 26.231 4.95981 26.1643L4.46799 27.1296L3.97616 28.0948C4.46332 28.3431 4.97849 28.44 5.52721 28.4848C6.06329 28.5286 6.72176 28.5278 7.51285 28.5278V27.4445ZM2.89062 22.8222H1.80729C1.80729 23.6133 1.80645 24.2718 1.85025 24.8079C1.89508 25.3566 1.99202 25.8718 2.24024 26.3589L3.2055 25.8671L4.17075 25.3753C4.1041 25.2445 4.0436 25.0462 4.00972 24.6314C3.9748 24.204 3.97396 23.6491 3.97396 22.8222H2.89062ZM4.46799 27.1296L4.95981 26.1643C4.62007 25.9912 4.34386 25.715 4.17075 25.3753L3.2055 25.8671L2.24024 26.3589C2.62107 27.1063 3.22874 27.714 3.97616 28.0948L4.46799 27.1296ZM31.7795 22.8222H30.6962C30.6962 23.6491 30.6953 24.204 30.6604 24.6314C30.6265 25.0462 30.566 25.2445 30.4994 25.3753L31.4646 25.8671L32.4299 26.3589C32.6781 25.8718 32.7751 25.3566 32.8199 24.8079C32.8637 24.2718 32.8628 23.6133 32.8628 22.8222H31.7795ZM27.1573 27.4445V28.5278C27.9484 28.5278 28.6069 28.5286 29.1429 28.4848C29.6917 28.44 30.2068 28.3431 30.694 28.0948L30.2022 27.1296L29.7103 26.1643C29.5795 26.231 29.3812 26.2915 28.9665 26.3254C28.5391 26.3603 27.9841 26.3611 27.1573 26.3611V27.4445ZM31.4646 25.8671L30.4994 25.3753C30.3263 25.715 30.0501 25.9912 29.7103 26.1643L30.2022 27.1296L30.694 28.0948C31.4414 27.714 32.0491 27.1063 32.4299 26.3589L31.4646 25.8671ZM27.1573 7.22223V8.30556C27.9841 8.30556 28.5391 8.3064 28.9665 8.34132C29.3812 8.37521 29.5795 8.43571 29.7103 8.50236L30.2022 7.5371L30.694 6.57184C30.2068 6.32362 29.6917 6.22668 29.1429 6.18185C28.6069 6.13805 27.9484 6.1389 27.1573 6.1389V7.22223ZM31.7795 11.8445H32.8628C32.8628 11.0534 32.8637 10.3949 32.8199 9.85882C32.7751 9.31009 32.6781 8.79492 32.4299 8.30777L31.4646 8.79959L30.4994 9.29141C30.566 9.42222 30.6265 9.62052 30.6604 10.0353C30.6953 10.4626 30.6962 11.0176 30.6962 11.8445H31.7795ZM30.2022 7.5371L29.7103 8.50236C30.0501 8.67546 30.3263 8.95167 30.4994 9.29141L31.4646 8.79959L32.4299 8.30776C32.0491 7.56035 31.4414 6.95267 30.694 6.57184L30.2022 7.5371ZM7.51285 7.22223V6.1389C6.72176 6.1389 6.06329 6.13805 5.52721 6.18185C4.97849 6.22668 4.46332 6.32362 3.97616 6.57184L4.46799 7.5371L4.95981 8.50236C5.09062 8.43571 5.28891 8.37521 5.70365 8.34132C6.13103 8.3064 6.68601 8.30556 7.51285 8.30556V7.22223ZM2.89062 11.8445H3.97396C3.97396 11.0176 3.9748 10.4626 4.00972 10.0353C4.0436 9.62052 4.1041 9.42222 4.17075 9.29141L3.2055 8.79959L2.24024 8.30777C1.99202 8.79492 1.89508 9.31009 1.85025 9.85882C1.80645 10.3949 1.80729 11.0534 1.80729 11.8445H2.89062ZM4.46799 7.5371L3.97616 6.57184C3.22874 6.95267 2.62107 7.56035 2.24024 8.30777L3.2055 8.79959L4.17075 9.29141C4.34386 8.95168 4.62007 8.67546 4.95981 8.50236L4.46799 7.5371ZM8.6684 28.6H7.58507V30.3333H8.6684H9.75174V28.6H8.6684ZM27.1573 27.4445V26.3611H15.9869V27.4445V28.5278H27.1573V27.4445ZM9.82396 30.9111L10.474 31.7778L13.8636 29.2356L13.2136 28.3689L12.5636 27.5022L9.17396 30.0445L9.82396 30.9111ZM15.9869 27.4445V26.3611C15.4564 26.3611 15.0483 26.3565 14.6471 26.4349L14.8549 27.4981L15.0627 28.5613C15.2106 28.5324 15.3741 28.5278 15.9869 28.5278V27.4445ZM13.2136 28.3689L13.8636 29.2356C14.3539 28.8679 14.4874 28.7735 14.6231 28.7079L14.1514 27.7326L13.6798 26.7573C13.3117 26.9353 12.988 27.1839 12.5636 27.5022L13.2136 28.3689ZM14.8549 27.4981L14.6471 26.4349C14.3121 26.5004 13.987 26.6088 13.6798 26.7573L14.1514 27.7326L14.6231 28.7079C14.7627 28.6403 14.9105 28.5911 15.0627 28.5613L14.8549 27.4981ZM8.6684 30.3333H7.58507C7.58507 31.8212 9.28367 32.6705 10.474 31.7778L9.82396 30.9111L9.17396 30.0445C9.41201 29.8659 9.75174 30.0358 9.75174 30.3333H8.6684ZM7.51285 27.4445V28.5278C7.55274 28.5278 7.58507 28.5601 7.58507 28.6H8.6684H9.75174C9.75174 27.3635 8.74935 26.3611 7.51285 26.3611V27.4445Z" fill="#494949"/>
</svg>
