<svg width="240" height="83" viewBox="0 0 240 83" fill="none" xmlns="http://www.w3.org/2000/svg">
<rect width="82.3933" height="82.3933" rx="16.4787" fill="white"/>
<path opacity="0.5" d="M41.1982 10.2993C45.7486 10.2993 49.4375 13.9882 49.4375 18.5386V63.8549C49.4375 68.4054 45.7486 72.0943 41.1982 72.0943C36.6477 72.0943 32.9588 68.4054 32.9588 63.855V18.5387C32.9588 13.9882 36.6477 10.2993 41.1982 10.2993Z" fill="#30C100"/>
<circle cx="41.2003" cy="18.5386" r="8.23933" fill="#30C100"/>
<circle cx="41.2003" cy="63.8546" r="8.23933" fill="#30C100"/>
<circle cx="18.5362" cy="41.1973" r="8.23933" fill="#2592FF"/>
<circle cx="63.8565" cy="41.1973" r="8.23933" fill="#2592FF"/>
<path opacity="0.5" d="M10.2969 41.1973C10.2969 36.6469 13.9857 32.958 18.5362 32.958H63.8525C68.403 32.958 72.0918 36.6469 72.0918 41.1973C72.0918 45.7478 68.403 49.4367 63.8525 49.4367H18.5362C13.9858 49.4367 10.2969 45.7478 10.2969 41.1973Z" fill="#2592FF"/>
<path d="M107.076 15.8818C112.702 15.8818 117.326 17.3112 120.949 20.1689C124.594 23.0267 127.104 26.8741 128.477 31.7119L122.367 33.332C121.377 29.7093 119.61 26.8515 117.067 24.7588C114.525 22.6662 111.194 21.6201 107.076 21.6201C103.453 21.6202 100.438 22.4414 98.0303 24.084C95.6227 25.7266 93.8118 28.022 92.5967 30.9697C91.3816 33.895 90.7627 37.3044 90.7402 41.1973C90.7178 45.0673 91.3134 48.4762 92.5283 51.4238C93.7434 54.3491 95.5668 56.6444 97.9971 58.3096C100.427 59.9522 103.453 60.7734 107.076 60.7734C111.194 60.7734 114.525 59.7275 117.067 57.6348C119.61 55.5195 121.377 52.6619 122.367 49.0615L128.477 50.6816C127.104 55.4971 124.595 59.3453 120.949 62.2256C117.326 65.0833 112.702 66.5117 107.076 66.5117C102.238 66.5117 98.132 65.4432 94.7568 63.3057C91.3815 61.168 88.805 58.1973 87.0273 54.3945C85.2722 50.5917 84.3946 46.1926 84.3945 41.1973C84.3945 36.2018 85.2722 31.8019 87.0273 27.999C88.805 24.1963 91.3816 21.2255 94.7568 19.0879C98.132 16.9504 102.239 15.8819 107.076 15.8818ZM215.062 28.0332C218.369 28.0332 221.205 28.6297 223.567 29.8223C225.953 30.9924 227.663 32.77 228.698 35.1553C229.216 36.2803 229.542 37.5065 229.677 38.834C229.812 40.1391 229.88 41.512 229.88 42.9521V65.499H224.547V59.8174C223.33 61.6754 221.824 63.1546 220.023 64.251C217.571 65.7585 214.578 66.5117 211.045 66.5117C208.322 66.5117 206.039 66.0164 204.193 65.0264C202.371 64.0138 200.986 62.6866 200.041 61.0439C199.119 59.4014 198.657 57.6011 198.657 55.6436C198.657 53.7309 199.017 52.0768 199.737 50.6816C200.48 49.264 201.515 48.0935 202.843 47.1709C204.17 46.2258 205.757 45.4834 207.603 44.9434C209.335 44.4708 211.271 44.066 213.408 43.7285C215.568 43.3685 217.751 43.0425 219.956 42.75C221.352 42.5648 222.69 42.3823 223.969 42.2061C223.9 39.4426 223.25 37.3619 222.015 35.9648C220.664 34.4124 218.324 33.6357 214.994 33.6357C212.789 33.6358 210.854 34.1427 209.188 35.1553C207.546 36.1454 206.387 37.7655 205.712 40.0156L200.008 38.2939C200.885 35.0987 202.584 32.5893 205.104 30.7666C207.625 28.9441 210.944 28.0332 215.062 28.0332ZM141.279 47.3066C141.279 49.0165 141.437 50.6702 141.752 52.2676C142.067 53.8652 142.595 55.3062 143.338 56.5889C144.103 57.8714 145.116 58.8834 146.376 59.626C147.659 60.3685 149.256 60.7402 151.169 60.7402C152.677 60.7402 154.049 60.4814 155.287 59.9639C156.525 59.4463 157.582 58.6815 158.46 57.6689C159.338 56.6338 160.013 55.3281 160.485 53.7529C160.958 52.1778 161.194 50.3435 161.194 48.251V29.0459H167.235V65.499H161.869V60.7764C160.778 62.2648 159.439 63.4791 157.853 64.4189C155.557 65.7691 152.846 66.4443 149.718 66.4443C147.378 66.4443 145.363 66.0736 143.676 65.3311C142.011 64.5885 140.627 63.5979 139.524 62.3604C138.422 61.1227 137.555 59.7498 136.925 58.2422C136.295 56.7346 135.845 55.1932 135.575 53.6182C135.328 52.043 135.204 50.5689 135.204 49.1963V29.0459H141.279V47.3066ZM192.01 28.8096C193.247 28.7196 194.407 28.7984 195.487 29.0459V34.6826C194.227 34.3451 192.843 34.2546 191.335 34.4121C189.827 34.5697 188.432 35.1213 187.149 36.0664C185.979 36.899 185.069 37.9119 184.416 39.1045C183.786 40.2969 183.347 41.5905 183.1 42.9854C182.852 44.358 182.729 45.7649 182.729 47.2051V65.499H176.687V29.0459H182.053V34.8281C182.291 34.4043 182.549 33.9953 182.829 33.6025C183.527 32.6575 184.303 31.881 185.158 31.2734C186.103 30.5084 187.173 29.9236 188.365 29.5186C189.558 29.1136 190.772 28.8771 192.01 28.8096ZM223.891 47.3223C222.655 47.4896 221.433 47.6543 220.226 47.8125C218.336 48.06 216.547 48.3305 214.859 48.623C213.172 48.8931 211.653 49.219 210.303 49.6016C209.313 49.9166 208.379 50.3214 207.501 50.8164C206.646 51.3114 205.948 51.9528 205.408 52.7402C204.891 53.5053 204.632 54.4619 204.632 55.6094C204.632 56.5995 204.879 57.5452 205.374 58.4453C205.892 59.3454 206.68 60.0761 207.737 60.6387C208.817 61.2012 210.224 61.4824 211.956 61.4824C214.116 61.4824 215.984 61.1 217.56 60.335C219.157 59.5474 220.44 58.5237 221.407 57.2637C222.375 55.981 223.005 54.5858 223.298 53.0781C223.635 51.953 223.815 50.7037 223.838 49.3311C223.863 48.5624 223.879 47.8928 223.891 47.3223Z" fill="black"/>
</svg>
