<svg width="28" height="28" viewBox="0 0 28 28" fill="none" xmlns="http://www.w3.org/2000/svg">
<path d="M9.33464 15.3999C8.81917 15.3999 8.4013 15.8178 8.4013 16.3333C8.4013 16.8487 8.81917 17.2666 9.33464 17.2666V16.3333V15.3999ZM11.668 17.2666C12.1834 17.2666 12.6013 16.8487 12.6013 16.3333C12.6013 15.8178 12.1834 15.3999 11.668 15.3999V16.3333V17.2666ZM9.33464 10.7333C8.81917 10.7333 8.4013 11.1511 8.4013 11.6666C8.4013 12.1821 8.81917 12.5999 9.33464 12.5999V11.6666V10.7333ZM16.3346 12.5999C16.8501 12.5999 17.268 12.1821 17.268 11.6666C17.268 11.1511 16.8501 10.7333 16.3346 10.7333V11.6666V12.5999ZM9.33464 6.06659C8.81917 6.06659 8.4013 6.48445 8.4013 6.99992C8.4013 7.51538 8.81917 7.93325 9.33464 7.93325V6.99992V6.06659ZM16.3346 7.93325C16.8501 7.93325 17.268 7.51538 17.268 6.99992C17.268 6.48445 16.8501 6.06659 16.3346 6.06659V6.99992V7.93325ZM20.068 11.6666C20.068 12.1821 20.4858 12.5999 21.0013 12.5999C21.5168 12.5999 21.9346 12.1821 21.9346 11.6666H21.0013H20.068ZM11.668 24.2666C12.1834 24.2666 12.6013 23.8487 12.6013 23.3333C12.6013 22.8178 12.1834 22.3999 11.668 22.3999V23.3333V24.2666ZM5.9257 23.0706L6.35594 22.2423H6.35594L5.9257 23.0706ZM4.93067 22.0755L4.10242 22.5058L4.10242 22.5058L4.93067 22.0755ZM19.7436 2.59595L19.3133 3.42421V3.42421L19.7436 2.59595ZM20.7386 3.59098L19.9103 4.02122L19.9103 4.02122L20.7386 3.59098ZM5.9257 2.59595L5.49545 1.7677H5.49545L5.9257 2.59595ZM4.93067 3.59098L4.10242 3.16074V3.16074L4.93067 3.59098ZM16.3348 18.9C15.8193 18.9 15.4014 19.3178 15.4014 19.8333C15.4014 20.3488 15.8193 20.7666 16.3348 20.7666V19.8333V18.9ZM23.3348 20.7666C23.8502 20.7666 24.2681 20.3488 24.2681 19.8333C24.2681 19.3178 23.8502 18.9 23.3348 18.9V19.8333V20.7666ZM20.768 16.3332C20.768 15.8178 20.3501 15.3999 19.8347 15.3999C19.3192 15.3999 18.9013 15.8178 18.9013 16.3332H19.8347H20.768ZM18.9013 23.3332C18.9013 23.8486 19.3192 24.2665 19.8347 24.2665C20.3501 24.2665 20.768 23.8486 20.768 23.3332H19.8347H18.9013ZM9.33464 16.3333V17.2666H11.668V16.3333V15.3999H9.33464V16.3333ZM9.33464 11.6666V12.5999H16.3346V11.6666V10.7333H9.33464V11.6666ZM9.33464 6.99992V7.93325H16.3346V6.99992V6.06659H9.33464V6.99992ZM8.42464 2.33325V3.26659H17.2446V2.33325V1.39992H8.42464V2.33325ZM21.0013 6.08992H20.068V11.6666H21.0013H21.9346V6.08992H21.0013ZM11.668 23.3333V22.3999H8.42464V23.3333V24.2666H11.668V23.3333ZM4.66797 19.5766H5.6013V6.08992H4.66797H3.73464V19.5766H4.66797ZM8.42464 23.3333V22.3999C7.74456 22.3999 7.29158 22.3992 6.94375 22.3703C6.60709 22.3423 6.45337 22.2929 6.35594 22.2423L5.9257 23.0706L5.49545 23.8988C5.90374 24.1109 6.33509 24.1928 6.78926 24.2305C7.23227 24.2673 7.7759 24.2666 8.42464 24.2666V23.3333ZM4.66797 19.5766H3.73464C3.73464 20.2253 3.73389 20.769 3.77067 21.212C3.80839 21.6661 3.89033 22.0975 4.10242 22.5058L4.93067 22.0755L5.75892 21.6453C5.70831 21.5478 5.6589 21.3941 5.63094 21.0575C5.60205 20.7096 5.6013 20.2567 5.6013 19.5766H4.66797ZM5.9257 23.0706L6.35594 22.2423C6.10024 22.1095 5.89175 21.901 5.75892 21.6453L4.93067 22.0755L4.10242 22.5058C4.41235 23.1024 4.89882 23.5889 5.49545 23.8988L5.9257 23.0706ZM17.2446 2.33325V3.26659C17.9247 3.26659 18.3777 3.26734 18.7255 3.29622C19.0622 3.32418 19.2159 3.37359 19.3133 3.42421L19.7436 2.59595L20.1738 1.7677C19.7655 1.55561 19.3342 1.47368 18.88 1.43596C18.437 1.39917 17.8934 1.39992 17.2446 1.39992V2.33325ZM21.0013 6.08992H21.9346C21.9346 5.44118 21.9354 4.89755 21.8986 4.45455C21.8609 4.00037 21.7789 3.56902 21.5669 3.16074L20.7386 3.59098L19.9103 4.02122C19.961 4.11866 20.0104 4.27237 20.0383 4.60903C20.0672 4.95687 20.068 5.40985 20.068 6.08992H21.0013ZM19.7436 2.59595L19.3133 3.42421C19.569 3.55703 19.7775 3.76552 19.9103 4.02122L20.7386 3.59098L21.5669 3.16074C21.2569 2.5641 20.7705 2.07763 20.1738 1.7677L19.7436 2.59595ZM8.42464 2.33325V1.39992C7.7759 1.39992 7.23227 1.39917 6.78926 1.43596C6.33509 1.47368 5.90374 1.55561 5.49545 1.7677L5.9257 2.59595L6.35594 3.42421C6.45337 3.37359 6.60709 3.32418 6.94375 3.29622C7.29158 3.26734 7.74456 3.26659 8.42464 3.26659V2.33325ZM4.66797 6.08992H5.6013C5.6013 5.40985 5.60205 4.95687 5.63094 4.60903C5.6589 4.27237 5.70831 4.11866 5.75892 4.02122L4.93067 3.59098L4.10242 3.16074C3.89033 3.56902 3.80839 4.00037 3.77067 4.45455C3.73389 4.89755 3.73464 5.44118 3.73464 6.08992H4.66797ZM5.9257 2.59595L5.49545 1.7677C4.89882 2.07763 4.41234 2.5641 4.10242 3.16074L4.93067 3.59098L5.75892 4.02122C5.89175 3.76552 6.10024 3.55703 6.35594 3.42421L5.9257 2.59595ZM16.3348 19.8333V20.7666H23.3348V19.8333V18.9H16.3348V19.8333ZM19.8347 16.3332H18.9013L18.9013 23.3332H19.8347H20.768L20.768 16.3332H19.8347Z" fill="#2592FF"/>
</svg>
