<svg width="24" height="24" viewBox="0 0 24 24" fill="none" xmlns="http://www.w3.org/2000/svg">
<path d="M3.35938 10.0799H20.6394M8.15938 6.2399V2.3999M15.8394 6.2399V2.3999M9.50337 21.5999H14.4954C16.646 21.5999 17.7213 21.5999 18.5427 21.1814C19.2652 20.8132 19.8527 20.2258 20.2208 19.5032C20.6394 18.6818 20.6394 17.6065 20.6394 15.4559V10.4639C20.6394 8.3133 20.6394 7.238 20.2208 6.41658C19.8527 5.69404 19.2652 5.10659 18.5427 4.73844C17.7213 4.3199 16.646 4.3199 14.4954 4.3199H9.50338C7.35277 4.3199 6.27747 4.3199 5.45605 4.73844C4.73351 5.10659 4.14606 5.69404 3.77791 6.41658C3.35938 7.238 3.35938 8.3133 3.35938 10.4639V15.4559C3.35938 17.6065 3.35938 18.6818 3.77791 19.5032C4.14606 20.2258 4.73351 20.8132 5.45605 21.1814C6.27747 21.5999 7.35277 21.5999 9.50337 21.5999Z" stroke="#494949" stroke-width="1.6" stroke-linecap="round"/>
</svg>
