<svg width="24" height="24" viewBox="0 0 24 24" fill="none" xmlns="http://www.w3.org/2000/svg">
<path d="M16.0239 20.5708L16.0241 17.3571C16.0243 15.5819 14.5853 14.1427 12.8101 14.1427H5.61285C3.83792 14.1427 2.399 15.5815 2.3988 17.3564L2.39844 20.5708M21.5981 20.571L21.5984 17.3572C21.5986 15.5821 20.1596 14.1429 18.3844 14.1429M15.4048 4.06061C16.1941 4.64624 16.7056 5.5851 16.7056 6.64343C16.7056 7.70176 16.1941 8.64061 15.4048 9.22625M12.4922 6.64325C12.4922 8.41833 11.0533 9.85731 9.27818 9.85731C7.50311 9.85731 6.06412 8.41833 6.06412 6.64325C6.06412 4.86818 7.50311 3.4292 9.27818 3.4292C11.0533 3.4292 12.4922 4.86818 12.4922 6.64325Z" stroke="#494949" stroke-width="1.6" stroke-linecap="round" stroke-linejoin="round"/>
</svg>
