<svg width="40" height="40" viewBox="0 0 40 40" fill="none" xmlns="http://www.w3.org/2000/svg">
<path d="M27.9987 3.33331V4.58331V3.33331ZM6.66537 8.66665H7.91537V8.66665H6.66537ZM6.66537 31.3333H5.41537V31.3333H6.66537ZM7.02868 34.8466L5.91492 35.4141V35.4141L7.02868 34.8466ZM11.9987 36.6666V35.4166V35.4166V36.6666ZM8.4854 36.3033L7.91791 37.4171L7.91791 37.4171L8.4854 36.3033ZM8.4854 3.69663L7.91791 2.58287V2.58287L8.4854 3.69663ZM7.02868 5.15335L8.14244 5.72083V5.72083L7.02868 5.15335ZM31.512 3.69662L30.9445 4.81038H30.9445L31.512 3.69662ZM33.332 8.66665H34.582V8.66665H33.332ZM32.9687 5.15334L31.855 5.72083V5.72083L32.9687 5.15334ZM34.582 21.6666C34.582 22.357 34.0224 22.9166 33.332 22.9166C32.6417 22.9166 32.082 22.357 32.082 21.6666H33.332H34.582ZM20.832 35.4166C21.5224 35.4166 22.082 35.9763 22.082 36.6666C22.082 37.357 21.5224 37.9166 20.832 37.9166V36.6666V35.4166ZM13.332 21.25C12.6417 21.25 12.082 20.6903 12.082 20C12.082 19.3096 12.6417 18.75 13.332 18.75V20V21.25ZM26.6654 18.75C27.3557 18.75 27.9154 19.3096 27.9154 20C27.9154 20.6903 27.3557 21.25 26.6654 21.25V20V18.75ZM13.332 27.9166C12.6417 27.9166 12.082 27.357 12.082 26.6666C12.082 25.9763 12.6417 25.4166 13.332 25.4166V26.6666V27.9166ZM16.6654 25.4166C17.3557 25.4166 17.9154 25.9763 17.9154 26.6666C17.9154 27.357 17.3557 27.9166 16.6654 27.9166V26.6666V25.4166ZM13.332 14.5833C12.6417 14.5833 12.082 14.0237 12.082 13.3333C12.082 12.643 12.6417 12.0833 13.332 12.0833V13.3333V14.5833ZM26.6654 12.0833C27.3557 12.0833 27.9154 12.643 27.9154 13.3333C27.9154 14.0237 27.3557 14.5833 26.6654 14.5833V13.3333V12.0833ZM27.9987 3.33331V4.58331L11.9987 4.58331V3.33331V2.08331L27.9987 2.08331V3.33331ZM6.66537 8.66665H7.91537V31.3333H6.66537H5.41537V8.66665H6.66537ZM6.66537 31.3333L7.91537 31.3333C7.91537 32.2874 7.91634 32.9277 7.95663 33.4208C7.99573 33.8994 8.06553 34.1282 8.14244 34.2791L7.02868 34.8466L5.91492 35.4141C5.62851 34.852 5.51666 34.2576 5.46493 33.6244C5.41439 33.0059 5.41537 32.2461 5.41537 31.3333H6.66537ZM11.9987 36.6666V37.9166C11.0859 37.9166 10.3261 37.9176 9.70759 37.8671C9.07445 37.8153 8.48002 37.7035 7.91791 37.4171L8.4854 36.3033L9.05289 35.1896C9.20382 35.2665 9.43262 35.3363 9.91116 35.3754C10.4043 35.4157 11.0447 35.4166 11.9987 35.4166V36.6666ZM7.02868 34.8466L8.14244 34.2791C8.34217 34.6711 8.66088 34.9898 9.05289 35.1896L8.4854 36.3033L7.91791 37.4171C7.05551 36.9777 6.35434 36.2765 5.91492 35.4141L7.02868 34.8466ZM11.9987 3.33331V4.58331C11.0447 4.58331 10.4043 4.58429 9.91116 4.62458C9.43262 4.66368 9.20382 4.73348 9.05289 4.81038L8.4854 3.69663L7.91791 2.58287C8.48001 2.29646 9.07444 2.18461 9.70758 2.13288C10.3261 2.08234 11.0859 2.08331 11.9987 2.08331V3.33331ZM6.66537 8.66665L5.41537 8.66665C5.41537 7.75385 5.41439 6.99408 5.46493 6.37553C5.51666 5.74239 5.62851 5.14796 5.91492 4.58586L7.02868 5.15335L8.14244 5.72083C8.06553 5.87177 7.99573 6.10057 7.95663 6.57911C7.91634 7.07224 7.91537 7.7126 7.91537 8.66665H6.66537ZM8.4854 3.69663L9.05289 4.81038C8.66088 5.01012 8.34217 5.32883 8.14244 5.72083L7.02868 5.15335L5.91492 4.58586C6.35434 3.72345 7.0555 3.02229 7.91791 2.58287L8.4854 3.69663ZM27.9987 3.33331V2.08331C28.9115 2.08331 29.6713 2.08234 30.2898 2.13288C30.923 2.18461 31.5174 2.29646 32.0795 2.58287L31.512 3.69662L30.9445 4.81038C30.7936 4.73348 30.5648 4.66367 30.0862 4.62458C29.5931 4.58428 28.9527 4.58331 27.9987 4.58331V3.33331ZM33.332 8.66665H32.082C32.082 7.7126 32.0811 7.07224 32.0408 6.57911C32.0017 6.10057 31.9319 5.87177 31.855 5.72083L32.9687 5.15334L34.0825 4.58586C34.3689 5.14796 34.4807 5.74239 34.5325 6.37553C34.583 6.99408 34.582 7.75385 34.582 8.66665H33.332ZM31.512 3.69662L32.0795 2.58287C32.9419 3.02229 33.6431 3.72345 34.0825 4.58586L32.9687 5.15334L31.855 5.72083C31.6552 5.32883 31.3365 5.01012 30.9445 4.81038L31.512 3.69662ZM33.332 21.6666H32.082V8.66665H33.332H34.582V21.6666H33.332ZM11.9987 36.6666V35.4166H20.832V36.6666V37.9166H11.9987V36.6666ZM13.332 20V18.75H26.6654V20V21.25H13.332V20ZM13.332 26.6666V25.4166H16.6654V26.6666V27.9166H13.332V26.6666ZM13.332 13.3333V12.0833H26.6654V13.3333V14.5833H13.332V13.3333Z" fill="#161616"/>
<path d="M25.8359 31.6665H30.0025M34.1693 31.6665H30.0025M30.0026 27.4999L30.0025 31.6665M30.0025 35.8332V31.6665" stroke="black" stroke-width="2.5" stroke-linecap="round"/>
</svg>
