<svg width="40" height="40" viewBox="0 0 40 40" fill="none" xmlns="http://www.w3.org/2000/svg">
<path d="M8.64006 5.72662L9.20755 6.84038V6.84038L8.64006 5.72662ZM5.72662 8.64006L4.61287 8.07257L4.61287 8.07258L5.72662 8.64006ZM31.3599 34.2734L31.9274 35.3871V35.3871L31.3599 34.2734ZM34.2734 31.3599L33.1596 30.7924V30.7924L34.2734 31.3599ZM8.64006 34.2734L9.20755 33.1596V33.1596L8.64006 34.2734ZM5.72662 31.3599L6.84038 30.7924H6.84038L5.72662 31.3599ZM36.25 20C36.25 19.3096 35.6904 18.75 35 18.75C34.3096 18.75 33.75 19.3096 33.75 20H35H36.25ZM20 6.25C20.6904 6.25 21.25 5.69036 21.25 5C21.25 4.30964 20.6904 3.75 20 3.75V5V6.25ZM20.422 17.4943L21.6079 17.8896V17.8896L20.422 17.4943ZM21.1934 15.1804L20.0075 14.7851L20.0075 14.7851L21.1934 15.1804ZM21.9892 13.8926L22.8731 14.7765L22.8731 14.7765L21.9892 13.8926ZM29.6756 6.20618L28.7918 5.3223L28.7918 5.3223L29.6756 6.20618ZM33.7938 10.3244L34.6777 11.2082V11.2082L33.7938 10.3244ZM26.1074 18.0108L25.2235 17.1269L25.2235 17.1269L26.1074 18.0108ZM24.8196 18.8066L25.2149 19.9925H25.2149L24.8196 18.8066ZM22.5057 19.578L22.901 20.7638L22.901 20.7638L22.5057 19.578ZM25.6853 18.4048L26.4381 19.4027L26.4381 19.4027L25.6853 18.4048ZM25.3609 18.6053L24.805 17.4857L24.805 17.4857L25.3609 18.6053ZM33.7938 6.20618L32.9099 7.09007V7.09007L33.7938 6.20618ZM34.7859 7.351L35.9059 6.79598V6.79598L34.7859 7.351ZM34.7859 9.17954L35.9059 9.73456V9.73456L34.7859 9.17954ZM30.8205 5.21411L31.3755 6.33413V6.33413L30.8205 5.21411ZM32.649 5.21411L32.094 6.33413L32.094 6.33413L32.649 5.21411ZM21.3947 14.6391L22.5143 15.195V15.195L21.3947 14.6391ZM21.5952 14.3147L20.5973 13.5619V13.5619L21.5952 14.3147ZM20.0383 19.3377L21.2157 18.9179V18.9179L20.0383 19.3377ZM20.6623 19.9617L20.2424 21.139V21.139L20.6623 19.9617ZM15.6667 35V36.25H24.3333V35V33.75H15.6667V35ZM5 15.6667H3.75V24.3333H5H6.25V15.6667H5ZM15.6667 5V3.75C13.8204 3.75 12.3606 3.74903 11.1862 3.84498C9.99724 3.94212 8.9912 4.1448 8.07257 4.61287L8.64006 5.72662L9.20755 6.84038C9.71501 6.58182 10.3554 6.42119 11.3898 6.33668C12.4388 6.25097 13.7792 6.25 15.6667 6.25V5ZM5 15.6667H6.25C6.25 13.7792 6.25097 12.4388 6.33668 11.3898C6.42119 10.3554 6.58182 9.71501 6.84038 9.20755L5.72662 8.64006L4.61287 8.07258C4.1448 8.9912 3.94212 9.99724 3.84498 11.1862C3.74903 12.3606 3.75 13.8205 3.75 15.6667H5ZM8.64006 5.72662L8.07257 4.61287C6.58296 5.37186 5.37186 6.58296 4.61287 8.07257L5.72662 8.64006L6.84038 9.20755C7.3597 8.18834 8.18834 7.3597 9.20755 6.84038L8.64006 5.72662ZM24.3333 35V36.25C26.1795 36.25 27.6394 36.251 28.8138 36.155C30.0028 36.0579 31.0088 35.8552 31.9274 35.3871L31.3599 34.2734L30.7924 33.1596C30.285 33.4182 29.6446 33.5788 28.6102 33.6633C27.5612 33.749 26.2208 33.75 24.3333 33.75V35ZM35 24.3333H33.75C33.75 26.2208 33.749 27.5612 33.6633 28.6102C33.5788 29.6446 33.4182 30.285 33.1596 30.7924L34.2734 31.3599L35.3871 31.9274C35.8552 31.0088 36.0579 30.0028 36.155 28.8138C36.251 27.6394 36.25 26.1795 36.25 24.3333H35ZM31.3599 34.2734L31.9274 35.3871C33.417 34.6281 34.6281 33.417 35.3871 31.9274L34.2734 31.3599L33.1596 30.7924C32.6403 31.8117 31.8117 32.6403 30.7924 33.1596L31.3599 34.2734ZM15.6667 35V33.75C13.7792 33.75 12.4388 33.749 11.3898 33.6633C10.3554 33.5788 9.715 33.4182 9.20755 33.1596L8.64006 34.2734L8.07257 35.3871C8.9912 35.8552 9.99724 36.0579 11.1862 36.155C12.3606 36.251 13.8205 36.25 15.6667 36.25V35ZM5 24.3333H3.75C3.75 26.1795 3.74903 27.6394 3.84498 28.8138C3.94212 30.0028 4.1448 31.0088 4.61287 31.9274L5.72662 31.3599L6.84038 30.7924C6.58182 30.285 6.42119 29.6446 6.33668 28.6102C6.25097 27.5612 6.25 26.2208 6.25 24.3333H5ZM8.64006 34.2734L9.20755 33.1596C8.18834 32.6403 7.3597 31.8117 6.84038 30.7924L5.72662 31.3599L4.61287 31.9274C5.37186 33.417 6.58296 34.6281 8.07257 35.3871L8.64006 34.2734ZM35 24.3333H36.25V20H35H33.75V24.3333H35ZM15.6667 5V6.25H20V5V3.75H15.6667V5ZM20.422 17.4943L21.6079 17.8896L22.3792 15.5756L21.1934 15.1804L20.0075 14.7851L19.2362 17.099L20.422 17.4943ZM21.9892 13.8926L22.8731 14.7765L30.5595 7.09007L29.6756 6.20618L28.7918 5.3223L21.1054 13.0087L21.9892 13.8926ZM33.7938 10.3244L32.9099 9.44047L25.2235 17.1269L26.1074 18.0108L26.9913 18.8946L34.6777 11.2082L33.7938 10.3244ZM24.8196 18.8066L24.4244 17.6208L22.1104 18.3921L22.5057 19.578L22.901 20.7638L25.2149 19.9925L24.8196 18.8066ZM26.1074 18.0108L25.2235 17.1269C24.9948 17.3556 24.9615 17.3849 24.9325 17.4069L25.6853 18.4048L26.4381 19.4027C26.638 19.2519 26.8098 19.0762 26.9913 18.8946L26.1074 18.0108ZM24.8196 18.8066L25.2149 19.9925C25.4585 19.9113 25.6925 19.8362 25.9168 19.7249L25.3609 18.6053L24.805 17.4857C24.7723 17.5019 24.7312 17.5185 24.4244 17.6208L24.8196 18.8066ZM25.6853 18.4048L24.9325 17.4069C24.8925 17.437 24.8498 17.4634 24.805 17.4857L25.3609 18.6053L25.9168 19.7249C26.1001 19.6338 26.2746 19.526 26.4381 19.4027L25.6853 18.4048ZM33.7938 6.20618L32.9099 7.09007C33.5427 7.72279 33.6299 7.83338 33.6659 7.90602L34.7859 7.351L35.9059 6.79598C35.6418 6.26306 35.1677 5.81229 34.6777 5.3223L33.7938 6.20618ZM33.7938 10.3244L34.6777 11.2082C35.1677 10.7182 35.6418 10.2675 35.9059 9.73456L34.7859 9.17954L33.6659 8.62452C33.6299 8.69716 33.5427 8.80775 32.9099 9.44047L33.7938 10.3244ZM34.7859 7.351L33.6659 7.90602C33.778 8.13239 33.778 8.39815 33.6659 8.62452L34.7859 9.17954L35.9059 9.73456C36.3647 8.80875 36.3647 7.72179 35.9059 6.79598L34.7859 7.351ZM29.6756 6.20618L30.5595 7.09007C31.1922 6.45735 31.3028 6.37012 31.3755 6.33413L30.8205 5.21411L30.2654 4.09408C29.7325 4.35817 29.2817 4.83232 28.7918 5.3223L29.6756 6.20618ZM33.7938 6.20618L34.6777 5.3223C34.1877 4.83231 33.7369 4.35817 33.204 4.09408L32.649 5.21411L32.094 6.33413C32.1666 6.37013 32.2772 6.45735 32.9099 7.09007L33.7938 6.20618ZM30.8205 5.21411L31.3755 6.33413C31.6018 6.22196 31.8676 6.22196 32.094 6.33413L32.649 5.21411L33.204 4.09408C32.2782 3.63531 31.1912 3.63531 30.2654 4.09408L30.8205 5.21411ZM21.1934 15.1804L22.3792 15.5756C22.4815 15.2688 22.4981 15.2276 22.5143 15.195L21.3947 14.6391L20.2751 14.0832C20.1638 14.3075 20.0887 14.5416 20.0075 14.7851L21.1934 15.1804ZM21.9892 13.8926L21.1054 13.0087C20.9239 13.1902 20.7481 13.362 20.5973 13.5619L21.5952 14.3147L22.5931 15.0675C22.615 15.0384 22.6444 15.0052 22.8731 14.7765L21.9892 13.8926ZM21.3947 14.6391L22.5143 15.195C22.5366 15.1502 22.563 15.1075 22.5931 15.0675L21.5952 14.3147L20.5973 13.5619C20.474 13.7254 20.3662 13.8999 20.2751 14.0832L21.3947 14.6391ZM20.422 17.4943L19.2362 17.099C19.0764 17.5784 18.9279 18.0198 18.8429 18.3819C18.7621 18.7254 18.6745 19.2348 18.861 19.7576L20.0383 19.3377L21.2157 18.9179C21.2829 19.1062 21.2194 19.1968 21.2766 18.9538C21.3293 18.7292 21.4324 18.4162 21.6079 17.8896L20.422 17.4943ZM22.5057 19.578L22.1104 18.3921C21.5838 18.5676 21.2708 18.6707 21.0462 18.7234C20.8031 18.7805 20.8938 18.7171 21.0821 18.7843L20.6623 19.9617L20.2424 21.139C20.7652 21.3255 21.2746 21.2379 21.6181 21.1571C21.9802 21.0721 22.4216 20.9236 22.901 20.7638L22.5057 19.578ZM20.0383 19.3377L18.861 19.7576C19.0908 20.4021 19.5979 20.9092 20.2424 21.139L20.6623 19.9617L21.0821 18.7843C21.1444 18.8065 21.1935 18.8556 21.2157 18.9179L20.0383 19.3377Z" fill="#161616"/>
</svg>
