<svg width="49" height="49" viewBox="0 0 49 49" fill="none" xmlns="http://www.w3.org/2000/svg">
<rect width="49" height="49" rx="24.5" fill="#FFF2F7"/>
<path d="M24.8398 13.0001C29.1696 13.0001 32.6795 16.5102 32.6797 20.8399C32.6797 24.7262 29.8517 27.9502 26.1416 28.5704C26.1446 28.6065 26.1475 28.6429 26.1475 28.6797V29.9864H28.7607C29.4822 29.9864 30.0671 30.5716 30.0674 31.293C30.0674 32.0147 29.4824 32.5997 28.7607 32.5997H26.1475V36.5206C26.1472 37.242 25.5623 37.8272 24.8408 37.8272C24.1195 37.827 23.5344 37.2419 23.5342 36.5206V32.5997H20.9209C20.1994 32.5995 19.6143 32.0146 19.6143 31.293C19.6145 30.5717 20.1995 29.9865 20.9209 29.9864H23.5342V28.6797C23.5342 28.6429 23.5361 28.6064 23.5391 28.5704C19.8283 27.9507 17 24.7266 17 20.8399C17.0002 16.5101 20.51 13.0001 24.8398 13.0001ZM24.8398 15.6133C21.9533 15.6133 19.6135 17.9534 19.6133 20.8399C19.6133 23.7265 21.9532 26.0665 24.8398 26.0665C27.7264 26.0664 30.0664 23.7265 30.0664 20.8399C30.0662 17.9535 27.7263 15.6134 24.8398 15.6133Z" fill="#FF649F"/>
</svg>
