<svg width="32" height="32" viewBox="0 0 32 32" fill="none" xmlns="http://www.w3.org/2000/svg">
<path d="M25.332 5.33331C26.0683 5.33331 26.6649 5.93009 26.665 6.66632V10.6663C26.665 11.4027 26.0684 12.0003 25.332 12.0003C24.5957 12.0003 23.999 11.4027 23.999 10.6663V9.97882L20.1592 13.8187C20.0679 13.9099 19.9661 13.984 19.8584 14.0433C20.7851 15.349 21.332 16.9433 21.332 18.6663C21.332 23.0846 17.7503 26.6663 13.332 26.6663C8.91375 26.6663 5.33203 23.0846 5.33203 18.6663C5.33221 14.2482 8.91386 10.6663 13.332 10.6663C15.101 10.6663 16.735 11.242 18.0596 12.2142C18.1171 12.1137 18.1886 12.0187 18.2744 11.9329L22.2061 8.00031H21.332C20.5957 8.00031 19.999 7.4027 19.999 6.66632C19.9992 5.93009 20.5958 5.33331 21.332 5.33331H25.332ZM13.332 13.3333C10.3866 13.3333 7.9992 15.721 7.99902 18.6663C7.99902 21.6118 10.3865 23.9993 13.332 23.9993C16.2775 23.9993 18.665 21.6118 18.665 18.6663C18.6649 15.721 16.2774 13.3333 13.332 13.3333Z" fill="#2036FF"/>
</svg>
