<svg width="24" height="24" viewBox="0 0 24 24" fill="none" xmlns="http://www.w3.org/2000/svg">
<path d="M16.8 2V2.75V2ZM4 5.2H4.75V5.2H4ZM4 18.8H3.25V18.8H4ZM4.21799 20.908L3.54973 21.2485V21.2485L4.21799 20.908ZM7.2 22V21.25V21.25V22ZM5.09202 21.782L4.75153 22.4503H4.75153L5.09202 21.782ZM5.09202 2.21799L4.75152 1.54973V1.54973L5.09202 2.21799ZM4.21799 3.09202L4.88624 3.43251V3.43251L4.21799 3.09202ZM18.908 2.21799L18.5675 2.88624V2.88624L18.908 2.21799ZM20 5.2H20.75H20ZM19.782 3.09202L19.1138 3.43251H19.1138L19.782 3.09202ZM20.75 16C20.75 16.4142 20.4142 16.75 20 16.75C19.5858 16.75 19.25 16.4142 19.25 16H20H20.75ZM14 21.25C14.4142 21.25 14.75 21.5858 14.75 22C14.75 22.4142 14.4142 22.75 14 22.75V22V21.25ZM19.8293 16.1707L19.299 15.6404V15.6404L19.8293 16.1707ZM14.1707 21.8293L14.701 22.3596V22.3596L14.1707 21.8293ZM19.7586 16L19.7586 16.75H19.7586V16ZM15 16V15.25V15.25V16ZM14 17H14.75V17H14ZM14 21.7586H13.25V21.7586H14ZM8 12.75C7.58579 12.75 7.25 12.4142 7.25 12C7.25 11.5858 7.58579 11.25 8 11.25V12V12.75ZM16 11.25C16.4142 11.25 16.75 11.5858 16.75 12C16.75 12.4142 16.4142 12.75 16 12.75V12V11.25ZM8 16.75C7.58579 16.75 7.25 16.4142 7.25 16C7.25 15.5858 7.58579 15.25 8 15.25V16V16.75ZM10 15.25C10.4142 15.25 10.75 15.5858 10.75 16C10.75 16.4142 10.4142 16.75 10 16.75V16V15.25ZM8 8.75C7.58579 8.75 7.25 8.41421 7.25 8C7.25 7.58579 7.58579 7.25 8 7.25V8V8.75ZM16 7.25C16.4142 7.25 16.75 7.58579 16.75 8C16.75 8.41421 16.4142 8.75 16 8.75V8V7.25ZM16.8 2V2.75L7.2 2.75V2V1.25L16.8 1.25V2ZM4 5.2H4.75V18.8H4H3.25V5.2H4ZM4 18.8H4.75C4.75 19.3724 4.75058 19.7566 4.77476 20.0525C4.79822 20.3396 4.8401 20.4769 4.88624 20.5675L4.21799 20.908L3.54973 21.2485C3.37789 20.9112 3.31078 20.5546 3.27974 20.1747C3.24942 19.8035 3.25 19.3477 3.25 18.8H4ZM7.2 22V22.75C6.65232 22.75 6.19646 22.7506 5.82533 22.7203C5.44545 22.6892 5.08879 22.6221 4.75153 22.4503L5.09202 21.782L5.43251 21.1138C5.52307 21.1599 5.66035 21.2018 5.94748 21.2252C6.24336 21.2494 6.62757 21.25 7.2 21.25V22ZM4.21799 20.908L4.88624 20.5675C5.00608 20.8027 5.19731 20.9939 5.43251 21.1138L5.09202 21.782L4.75153 22.4503C4.23408 22.1866 3.81339 21.7659 3.54973 21.2485L4.21799 20.908ZM7.2 2V2.75C6.62757 2.75 6.24336 2.75058 5.94748 2.77476C5.66035 2.79822 5.52307 2.8401 5.43251 2.88624L5.09202 2.21799L4.75152 1.54973C5.08879 1.37789 5.44544 1.31078 5.82533 1.27974C6.19646 1.24942 6.65232 1.25 7.2 1.25V2ZM4 5.2H3.25C3.25 4.65232 3.24942 4.19646 3.27974 3.82533C3.31078 3.44545 3.37789 3.08879 3.54973 2.75153L4.21799 3.09202L4.88624 3.43251C4.8401 3.52307 4.79822 3.66035 4.77476 3.94748C4.75058 4.24336 4.75 4.62757 4.75 5.2H4ZM5.09202 2.21799L5.43251 2.88624C5.19731 3.00608 5.00608 3.19731 4.88624 3.43251L4.21799 3.09202L3.54973 2.75153C3.81338 2.23408 4.23408 1.81338 4.75152 1.54973L5.09202 2.21799ZM16.8 2V1.25C17.3477 1.25 17.8035 1.24942 18.1747 1.27974C18.5546 1.31078 18.9112 1.37789 19.2485 1.54973L18.908 2.21799L18.5675 2.88624C18.4769 2.8401 18.3396 2.79822 18.0525 2.77476C17.7566 2.75058 17.3724 2.75 16.8 2.75V2ZM20 5.2H19.25C19.25 4.62757 19.2494 4.24336 19.2252 3.94748C19.2018 3.66035 19.1599 3.52307 19.1138 3.43251L19.782 3.09202L20.4503 2.75153C20.6221 3.08879 20.6892 3.44544 20.7203 3.82533C20.7506 4.19646 20.75 4.65232 20.75 5.2H20ZM18.908 2.21799L19.2485 1.54973C19.7659 1.81338 20.1866 2.23408 20.4503 2.75153L19.782 3.09202L19.1138 3.43251C18.9939 3.19731 18.8027 3.00608 18.5675 2.88624L18.908 2.21799ZM20 16H19.25L19.25 5.2H20H20.75L20.75 16H20ZM7.2 22V21.25H14V22V22.75H7.2V22ZM19.8293 16.1707L20.3596 16.701L14.701 22.3596L14.1707 21.8293L13.6404 21.299L19.299 15.6404L19.8293 16.1707ZM19.7586 16V16.75H15V16V15.25H19.7586V16ZM14 17H14.75V21.7586H14H13.25V17H14ZM15 16V16.75C14.8619 16.75 14.75 16.8619 14.75 17H14H13.25C13.25 16.0335 14.0335 15.25 15 15.25V16ZM14.1707 21.8293L14.701 22.3596C14.1656 22.8951 13.25 22.5158 13.25 21.7586H14H14.75C14.75 21.1795 14.0499 20.8895 13.6404 21.299L14.1707 21.8293ZM19.8293 16.1707L19.299 15.6404C18.8895 16.0499 19.1795 16.75 19.7586 16.75L19.7586 16L19.7586 15.25C20.5158 15.25 20.8951 16.1656 20.3596 16.701L19.8293 16.1707ZM8 12V11.25H16V12V12.75H8V12ZM8 16V15.25H10V16V16.75H8V16ZM8 8V7.25H16V8V8.75H8V8Z" fill="#161616"/>
</svg>
