<svg width="20" height="22" viewBox="0 0 20 22" fill="none" xmlns="http://www.w3.org/2000/svg">
<path d="M5.44444 13.3333C4.89216 13.3333 4.44444 13.781 4.44444 14.3333C4.44444 14.8856 4.89216 15.3333 5.44444 15.3333V14.3333V13.3333ZM7.66667 15.3333C8.21895 15.3333 8.66667 14.8856 8.66667 14.3333C8.66667 13.781 8.21895 13.3333 7.66667 13.3333V14.3333V15.3333ZM5.44444 8.88889C4.89216 8.88889 4.44444 9.3366 4.44444 9.88889C4.44444 10.4412 4.89216 10.8889 5.44444 10.8889V9.88889V8.88889ZM12.1111 10.8889C12.6634 10.8889 13.1111 10.4412 13.1111 9.88889C13.1111 9.3366 12.6634 8.88889 12.1111 8.88889V9.88889V10.8889ZM5.44444 4.44444C4.89216 4.44444 4.44444 4.89216 4.44444 5.44444C4.44444 5.99673 4.89216 6.44444 5.44444 6.44444V5.44444V4.44444ZM12.1111 6.44444C12.6634 6.44444 13.1111 5.99673 13.1111 5.44444C13.1111 4.89216 12.6634 4.44444 12.1111 4.44444V5.44444V6.44444ZM15.5556 9.88889C15.5556 10.4412 16.0033 10.8889 16.5556 10.8889C17.1078 10.8889 17.5556 10.4412 17.5556 9.88889H16.5556H15.5556ZM7.66667 22C8.21895 22 8.66667 21.5523 8.66667 21C8.66667 20.4477 8.21895 20 7.66667 20V21V22ZM2.19783 20.7498L2.65881 19.8624H2.65881L2.19783 20.7498ZM1.25019 19.8022L0.362779 20.2631L0.362779 20.2631L1.25019 19.8022ZM15.3577 1.25019L14.8967 2.13761L14.8967 2.13761L15.3577 1.25019ZM16.3054 2.19783L15.4179 2.65881V2.65881L16.3054 2.19783ZM2.19783 1.25019L1.73686 0.362779L2.19783 1.25019ZM1.25019 2.19783L0.362779 1.73686L1.25019 2.19783ZM12.1112 16.6667C11.5589 16.6667 11.1112 17.1144 11.1112 17.6667C11.1112 18.219 11.5589 18.6667 12.1112 18.6667V17.6667V16.6667ZM18.7779 18.6667C19.3302 18.6667 19.7779 18.219 19.7779 17.6667C19.7779 17.1144 19.3302 16.6667 18.7779 16.6667V17.6667V18.6667ZM16.4445 14.3333C16.4445 13.781 15.9967 13.3333 15.4445 13.3333C14.8922 13.3333 14.4445 13.781 14.4445 14.3333H15.4445H16.4445ZM14.4445 20.9999C14.4445 21.5522 14.8922 21.9999 15.4445 21.9999C15.9967 21.9999 16.4445 21.5522 16.4445 20.9999H15.4445H14.4445ZM5.44444 14.3333V15.3333H7.66667V14.3333V13.3333H5.44444V14.3333ZM5.44444 9.88889V10.8889H12.1111V9.88889V8.88889H5.44444V9.88889ZM5.44444 5.44444V6.44444H12.1111V5.44444V4.44444H5.44444V5.44444ZM4.57778 1V2H12.9778V1V0H4.57778V1ZM16.5556 4.57778H15.5556V9.88889H16.5556H17.5556V4.57778H16.5556ZM7.66667 21V20H4.57778V21V22H7.66667V21ZM1 17.4222H2V4.57778H1H0V17.4222H1ZM4.57778 21V20C3.92823 20 3.50221 19.9992 3.17661 19.9722C2.86297 19.9461 2.7331 19.901 2.65881 19.8624L2.19783 20.7498L1.73686 21.6372C2.14421 21.8488 2.57154 21.9288 3.01109 21.9653C3.43866 22.0008 3.9618 22 4.57778 22V21ZM1 17.4222H0C0 18.0382 -0.00080359 18.5613 0.0347046 18.9889C0.0712069 19.4285 0.151178 19.8558 0.362779 20.2631L1.25019 19.8022L2.13761 19.3412C2.09901 19.2669 2.05389 19.137 2.02784 18.8234C2.0008 18.4978 2 18.0718 2 17.4222H1ZM2.19783 20.7498L2.65881 19.8624C2.43558 19.7464 2.25356 19.5644 2.13761 19.3412L1.25019 19.8022L0.362779 20.2631C0.668489 20.8517 1.14834 21.3315 1.73686 21.6372L2.19783 20.7498ZM12.9778 1V2C13.6273 2 14.0533 2.0008 14.379 2.02784C14.6926 2.05389 14.8225 2.09901 14.8967 2.13761L15.3577 1.25019L15.8187 0.362779C15.4113 0.151178 14.984 0.0712069 14.5445 0.0347046C14.1169 -0.00080359 13.5938 0 12.9778 0V1ZM16.5556 4.57778H17.5556C17.5556 3.9618 17.5564 3.43866 17.5209 3.01109C17.4843 2.57154 17.4044 2.14421 17.1928 1.73686L16.3054 2.19783L15.4179 2.65881C15.4565 2.7331 15.5017 2.86297 15.5277 3.17661C15.5548 3.50221 15.5556 3.92823 15.5556 4.57778H16.5556ZM15.3577 1.25019L14.8967 2.13761C15.12 2.25357 15.302 2.43558 15.4179 2.65881L16.3054 2.19783L17.1928 1.73686C16.8871 1.14834 16.4072 0.668489 15.8187 0.362779L15.3577 1.25019ZM4.57778 1V0C3.9618 0 3.43866 -0.00080359 3.01109 0.0347046C2.57154 0.0712069 2.14421 0.151178 1.73686 0.362779L2.19783 1.25019L2.65881 2.13761C2.7331 2.09901 2.86297 2.05389 3.17661 2.02784C3.50221 2.0008 3.92823 2 4.57778 2V1ZM1 4.57778H2C2 3.92823 2.0008 3.50221 2.02784 3.17661C2.05389 2.86297 2.09901 2.7331 2.13761 2.65881L1.25019 2.19783L0.362779 1.73686C0.151178 2.14421 0.0712068 2.57154 0.0347046 3.01109C-0.00080359 3.43866 0 3.9618 0 4.57778H1ZM2.19783 1.25019L1.73686 0.362779C1.14834 0.668489 0.668489 1.14834 0.362779 1.73686L1.25019 2.19783L2.13761 2.65881C2.25356 2.43558 2.43558 2.25356 2.65881 2.13761L2.19783 1.25019ZM12.1112 17.6667V18.6667H18.7779V17.6667V16.6667H12.1112V17.6667ZM15.4445 14.3333H14.4445L14.4445 20.9999H15.4445H16.4445L16.4445 14.3333H15.4445Z" fill="#2592FF"/>
</svg>
