<svg width="24" height="24" viewBox="0 0 24 24" fill="none" xmlns="http://www.w3.org/2000/svg">
<rect width="24" height="24" rx="12" fill="#F0F1F5"/>
<path d="M9.84248 10.3965C10.2967 11.3426 10.916 12.2293 11.7002 13.0135C12.4844 13.7977 13.3711 14.4169 14.3172 14.8712C14.3986 14.9102 14.4393 14.9298 14.4907 14.9448C14.6737 14.9981 14.8984 14.9598 15.0534 14.8489C15.097 14.8176 15.1343 14.7803 15.2089 14.7057C15.437 14.4776 15.5511 14.3635 15.6658 14.2889C16.0985 14.0076 16.6562 14.0076 17.0889 14.2889C17.2036 14.3635 17.3177 14.4776 17.5458 14.7057L17.673 14.8329C18.0199 15.1798 18.1933 15.3532 18.2875 15.5394C18.4749 15.9098 18.4749 16.3473 18.2875 16.7177C18.1933 16.904 18.0199 17.0774 17.673 17.4242L17.5701 17.5271C17.2245 17.8728 17.0517 18.0456 16.8167 18.1776C16.5559 18.3241 16.151 18.4294 15.8519 18.4285C15.5824 18.4277 15.3982 18.3754 15.0298 18.2709C13.0501 17.7089 11.182 16.6487 9.62344 15.0902C8.06493 13.5317 7.00472 11.6636 6.4428 9.68383C6.33824 9.31544 6.28596 9.13125 6.28516 8.86174C6.28427 8.56268 6.38958 8.15772 6.53605 7.89698C6.66805 7.66201 6.84088 7.48918 7.18654 7.14352L7.28942 7.04064C7.63626 6.69379 7.80969 6.52037 7.99594 6.42616C8.36636 6.23881 8.80381 6.23881 9.17423 6.42616C9.36048 6.52037 9.5339 6.69379 9.88075 7.04064L10.0079 7.16782C10.2361 7.39599 10.3502 7.51007 10.4248 7.6248C10.7061 8.05743 10.7061 8.61517 10.4248 9.04781C10.3502 9.16253 10.2361 9.27662 10.0079 9.50479C9.93333 9.57939 9.89602 9.6167 9.8648 9.6603C9.75384 9.81526 9.71553 10.0399 9.76887 10.2229C9.78388 10.2744 9.80341 10.3151 9.84248 10.3965Z" stroke="#494949" stroke-width="1.07143" stroke-linecap="round" stroke-linejoin="round"/>
</svg>
