<svg width="24" height="24" viewBox="0 0 24 24" fill="none" xmlns="http://www.w3.org/2000/svg">
<path d="M5.18404 3.43597L5.52453 4.10423L5.52453 4.10423L5.18404 3.43597ZM3.43597 5.18404L2.76772 4.84354L2.76772 4.84355L3.43597 5.18404ZM18.816 20.564L19.1565 21.2323H19.1565L18.816 20.564ZM20.564 18.816L19.8958 18.4755V18.4755L20.564 18.816ZM5.18404 20.564L5.52453 19.8958V19.8958L5.18404 20.564ZM3.43597 18.816L4.10423 18.4755V18.4755L3.43597 18.816ZM21.75 12C21.75 11.5858 21.4142 11.25 21 11.25C20.5858 11.25 20.25 11.5858 20.25 12H21H21.75ZM12 3.75C12.4142 3.75 12.75 3.41421 12.75 3C12.75 2.58579 12.4142 2.25 12 2.25V3V3.75ZM12.2532 10.4966L12.9647 10.7338V10.7338L12.2532 10.4966ZM12.716 9.10821L12.0045 8.87104L12.0045 8.87104L12.716 9.10821ZM13.1935 8.33555L13.7239 8.86588L13.7239 8.86588L13.1935 8.33555ZM17.8054 3.72371L17.2751 3.19338L17.2751 3.19338L17.8054 3.72371ZM20.2763 6.19461L20.8066 6.72494V6.72494L20.2763 6.19461ZM15.6644 10.8065L15.1341 10.2761L15.1341 10.2761L15.6644 10.8065ZM14.8918 11.284L15.129 11.9955H15.129L14.8918 11.284ZM13.5034 11.7468L13.7406 12.4583L13.7406 12.4583L13.5034 11.7468ZM15.4112 11.0429L15.8628 11.6416V11.6416L15.4112 11.0429ZM15.2165 11.1632L14.883 10.4914L14.883 10.4914L15.2165 11.1632ZM20.2763 3.72371L19.746 4.25404V4.25404L20.2763 3.72371ZM20.8715 4.4106L21.5436 4.07759V4.07759L20.8715 4.4106ZM20.8715 5.50772L21.5436 5.84073V5.84073L20.8715 5.50772ZM18.4923 3.12846L18.8253 3.80048V3.80048L18.4923 3.12846ZM19.5894 3.12846L19.2564 3.80048V3.80048L19.5894 3.12846ZM12.8368 8.78347L13.5086 9.117V9.117L12.8368 8.78347ZM12.9571 8.58885L12.3584 8.13717V8.13717L12.9571 8.58885ZM12.023 11.6026L12.7294 11.3507V11.3507L12.023 11.6026ZM12.3974 11.977L12.1454 12.6834V12.6834L12.3974 11.977ZM9.4 21V21.75H14.6V21V20.25H9.4V21ZM3 9.4H2.25V14.6H3H3.75V9.4H3ZM9.4 3V2.25C8.29227 2.25 7.41637 2.24942 6.71173 2.30699C5.99834 2.36527 5.39472 2.48688 4.84354 2.76772L5.18404 3.43597L5.52453 4.10423C5.829 3.94909 6.21325 3.85271 6.83388 3.80201C7.46326 3.75058 8.26752 3.75 9.4 3.75V3ZM3 9.4H3.75C3.75 8.26752 3.75058 7.46327 3.80201 6.83388C3.85271 6.21325 3.94909 5.829 4.10423 5.52453L3.43597 5.18404L2.76772 4.84355C2.48688 5.39472 2.36527 5.99834 2.30699 6.71173C2.24942 7.41637 2.25 8.29227 2.25 9.4H3ZM5.18404 3.43597L4.84355 2.76772C3.94977 3.22312 3.22312 3.94978 2.76772 4.84354L3.43597 5.18404L4.10423 5.52453C4.41582 4.913 4.913 4.41582 5.52453 4.10423L5.18404 3.43597ZM14.6 21V21.75C15.7077 21.75 16.5836 21.7506 17.2883 21.693C18.0017 21.6347 18.6053 21.5131 19.1565 21.2323L18.816 20.564L18.4755 19.8958C18.171 20.0509 17.7867 20.1473 17.1661 20.198C16.5367 20.2494 15.7325 20.25 14.6 20.25V21ZM21 14.6H20.25C20.25 15.7325 20.2494 16.5367 20.198 17.1661C20.1473 17.7867 20.0509 18.171 19.8958 18.4755L20.564 18.816L21.2323 19.1565C21.5131 18.6053 21.6347 18.0017 21.693 17.2883C21.7506 16.5836 21.75 15.7077 21.75 14.6H21ZM18.816 20.564L19.1565 21.2323C20.0502 20.7769 20.7769 20.0502 21.2323 19.1565L20.564 18.816L19.8958 18.4755C19.5842 19.087 19.087 19.5842 18.4755 19.8958L18.816 20.564ZM9.4 21V20.25C8.26752 20.25 7.46326 20.2494 6.83388 20.198C6.21325 20.1473 5.829 20.0509 5.52453 19.8958L5.18404 20.564L4.84354 21.2323C5.39472 21.5131 5.99834 21.6347 6.71173 21.693C7.41637 21.7506 8.29227 21.75 9.4 21.75V21ZM3 14.6H2.25C2.25 15.7077 2.24942 16.5836 2.30699 17.2883C2.36527 18.0017 2.48688 18.6053 2.76772 19.1565L3.43597 18.816L4.10423 18.4755C3.94909 18.171 3.85271 17.7867 3.80201 17.1661C3.75058 16.5367 3.75 15.7325 3.75 14.6H3ZM5.18404 20.564L5.52453 19.8958C4.913 19.5842 4.41582 19.087 4.10423 18.4755L3.43597 18.816L2.76772 19.1565C3.22312 20.0502 3.94978 20.7769 4.84355 21.2323L5.18404 20.564ZM21 14.6H21.75V12H21H20.25V14.6H21ZM9.4 3V3.75H12V3V2.25H9.4V3ZM12.2532 10.4966L12.9647 10.7338L13.4275 9.34538L12.716 9.10821L12.0045 8.87104L11.5417 10.2594L12.2532 10.4966ZM13.1935 8.33555L13.7239 8.86588L18.3357 4.25404L17.8054 3.72371L17.2751 3.19338L12.6632 7.80522L13.1935 8.33555ZM20.2763 6.19461L19.746 5.66428L15.1341 10.2761L15.6644 10.8065L16.1948 11.3368L20.8066 6.72494L20.2763 6.19461ZM14.8918 11.284L14.6546 10.5725L13.2662 11.0353L13.5034 11.7468L13.7406 12.4583L15.129 11.9955L14.8918 11.284ZM15.6644 10.8065L15.1341 10.2761C14.9969 10.4133 14.9769 10.431 14.9595 10.4441L15.4112 11.0429L15.8628 11.6416C15.9828 11.5511 16.0859 11.4457 16.1948 11.3368L15.6644 10.8065ZM14.8918 11.284L15.129 11.9955C15.2751 11.9468 15.4155 11.9017 15.5501 11.8349L15.2165 11.1632L14.883 10.4914C14.8634 10.5011 14.8387 10.5111 14.6546 10.5725L14.8918 11.284ZM15.4112 11.0429L14.9595 10.4441C14.9355 10.4622 14.9099 10.478 14.883 10.4914L15.2165 11.1632L15.5501 11.8349C15.6601 11.7803 15.7648 11.7156 15.8628 11.6416L15.4112 11.0429ZM20.2763 3.72371L19.746 4.25404C20.1256 4.63367 20.1779 4.70003 20.1995 4.74361L20.8715 4.4106L21.5436 4.07759C21.3851 3.75784 21.1006 3.48738 20.8066 3.19338L20.2763 3.72371ZM20.2763 6.19461L20.8066 6.72494C21.1006 6.43095 21.3851 6.16049 21.5436 5.84073L20.8715 5.50772L20.1995 5.17471C20.1779 5.21829 20.1256 5.28465 19.746 5.66428L20.2763 6.19461ZM20.8715 4.4106L20.1995 4.74361C20.2668 4.87943 20.2668 5.03889 20.1995 5.17471L20.8715 5.50772L21.5436 5.84073C21.8188 5.28525 21.8188 4.63307 21.5436 4.07759L20.8715 4.4106ZM17.8054 3.72371L18.3357 4.25404C18.7153 3.87441 18.7817 3.82207 18.8253 3.80048L18.4923 3.12846L18.1593 2.45645C17.8395 2.6149 17.569 2.89939 17.2751 3.19338L17.8054 3.72371ZM20.2763 3.72371L20.8066 3.19338C20.5126 2.89939 20.2422 2.6149 19.9224 2.45645L19.5894 3.12846L19.2564 3.80048C19.3 3.82208 19.3663 3.87441 19.746 4.25404L20.2763 3.72371ZM18.4923 3.12846L18.8253 3.80048C18.9611 3.73317 19.1206 3.73317 19.2564 3.80048L19.5894 3.12846L19.9224 2.45645C19.3669 2.18118 18.7147 2.18118 18.1593 2.45645L18.4923 3.12846ZM12.716 9.10821L13.4275 9.34538C13.4889 9.1613 13.4989 9.13659 13.5086 9.117L12.8368 8.78347L12.1651 8.44994C12.0983 8.58452 12.0532 8.72493 12.0045 8.87104L12.716 9.10821ZM13.1935 8.33555L12.6632 7.80522C12.5543 7.91412 12.4489 8.01722 12.3584 8.13717L12.9571 8.58885L13.5559 9.04053C13.569 9.02307 13.5867 9.0031 13.7239 8.86588L13.1935 8.33555ZM12.8368 8.78347L13.5086 9.117C13.522 9.0901 13.5378 9.0645 13.5559 9.04053L12.9571 8.58885L12.3584 8.13717C12.2844 8.23522 12.2197 8.33993 12.1651 8.44994L12.8368 8.78347ZM12.2532 10.4966L11.5417 10.2594C11.4458 10.547 11.3568 10.8119 11.3057 11.0291C11.2573 11.2352 11.2047 11.5409 11.3166 11.8546L12.023 11.6026L12.7294 11.3507C12.7697 11.4637 12.7317 11.5181 12.7659 11.3723C12.7976 11.2375 12.8594 11.0497 12.9647 10.7338L12.2532 10.4966ZM13.5034 11.7468L13.2662 11.0353C12.9503 11.1406 12.7625 11.2024 12.6277 11.2341C12.4819 11.2683 12.5363 11.2303 12.6493 11.2706L12.3974 11.977L12.1454 12.6834C12.4591 12.7953 12.7648 12.7427 12.9709 12.6943C13.1881 12.6432 13.453 12.5542 13.7406 12.4583L13.5034 11.7468ZM12.023 11.6026L11.3166 11.8546C11.4545 12.2412 11.7588 12.5455 12.1454 12.6834L12.3974 11.977L12.6493 11.2706C12.6867 11.2839 12.7161 11.3133 12.7294 11.3507L12.023 11.6026Z" fill="#2592FF"/>
</svg>
