<svg width="28" height="28" viewBox="0 0 28 28" fill="none" xmlns="http://www.w3.org/2000/svg">
<path d="M10.4783 11.3811C11.2202 12.9264 12.2316 14.3747 13.5125 15.6556C14.7934 16.9364 16.2417 17.9478 17.787 18.6898C17.9199 18.7536 17.9863 18.7855 18.0704 18.81C18.3693 18.8971 18.7363 18.8346 18.9894 18.6533C19.0606 18.6023 19.1215 18.5414 19.2434 18.4195C19.616 18.0469 19.8024 17.8605 19.9898 17.7387C20.6964 17.2793 21.6074 17.2793 22.314 17.7387C22.5014 17.8605 22.6877 18.0469 23.0604 18.4195L23.2681 18.6273C23.8347 19.1938 24.1179 19.4771 24.2718 19.7813C24.5778 20.3863 24.5778 21.1008 24.2718 21.7058C24.1179 22.01 23.8347 22.2933 23.2681 22.8598L23.1001 23.0278C22.5355 23.5924 22.2532 23.8747 21.8695 24.0903C21.4436 24.3295 20.7821 24.5015 20.2937 24.5001C19.8535 24.4988 19.5526 24.4134 18.9509 24.2426C15.7173 23.3248 12.6661 21.5931 10.1205 19.0475C7.57493 16.502 5.84325 13.4507 4.92546 10.2171C4.75468 9.61542 4.66929 9.31457 4.66798 8.87437C4.66652 8.38591 4.83854 7.72447 5.07777 7.2986C5.29336 6.9148 5.57565 6.63252 6.14023 6.06794L6.30826 5.8999C6.87478 5.33339 7.15804 5.05013 7.46225 4.89626C8.06727 4.59024 8.78177 4.59024 9.38679 4.89626C9.691 5.05013 9.97426 5.33339 10.5408 5.8999L10.7485 6.10763C11.1212 6.48031 11.3075 6.66665 11.4294 6.85403C11.8888 7.56067 11.8888 8.47165 11.4293 9.17829C11.3075 9.36566 11.1212 9.552 10.7485 9.92468C10.6266 10.0465 10.5657 10.1075 10.5147 10.1787C10.3335 10.4318 10.2709 10.7988 10.358 11.0976C10.3825 11.1817 10.4145 11.2482 10.4783 11.3811Z" stroke="#2592FF" stroke-width="1.86667" stroke-linecap="round" stroke-linejoin="round"/>
</svg>
