<svg width="24" height="24" viewBox="0 0 24 24" fill="none" xmlns="http://www.w3.org/2000/svg">
<path d="M8.98026 9.75516C9.6162 11.0797 10.4831 12.3211 11.581 13.419C12.6789 14.5169 13.9203 15.3838 15.2448 16.0197C15.3588 16.0744 15.4157 16.1018 15.4878 16.1228C15.744 16.1975 16.0585 16.1438 16.2755 15.9885C16.3365 15.9448 16.3888 15.8926 16.4932 15.7881C16.8126 15.4687 16.9724 15.309 17.133 15.2045C17.7387 14.8107 18.5195 14.8107 19.1252 15.2045C19.2858 15.309 19.4455 15.4687 19.765 15.7881L19.943 15.9662C20.4286 16.4518 20.6714 16.6945 20.8033 16.9553C21.0656 17.4739 21.0656 18.0863 20.8033 18.6049C20.6714 18.8657 20.4286 19.1084 19.943 19.594L19.799 19.7381C19.3151 20.222 19.0731 20.4639 18.7441 20.6487C18.3791 20.8538 17.8121 21.0012 17.3935 21C17.0162 20.9989 16.7583 20.9257 16.2425 20.7793C13.4709 19.9926 10.8555 18.5083 8.6736 16.3264C6.49168 14.1445 5.00738 11.5291 4.22071 8.75746C4.07432 8.24172 4.00113 7.98385 4.00001 7.60653C3.99876 7.18785 4.1462 6.6209 4.35126 6.25587C4.53605 5.92691 4.77801 5.68494 5.26193 5.20102L5.40597 5.05699C5.89155 4.57141 6.13434 4.32861 6.3951 4.19672C6.91369 3.93443 7.52611 3.93443 8.0447 4.19672C8.30546 4.32861 8.54825 4.5714 9.03383 5.05699L9.21189 5.23504C9.53133 5.55448 9.69104 5.7142 9.79547 5.87481C10.1893 6.4805 10.1893 7.26134 9.79547 7.86703C9.69105 8.02764 9.53133 8.18736 9.21189 8.5068C9.10744 8.61125 9.05521 8.66347 9.0115 8.72452C8.85616 8.94146 8.80252 9.25601 8.8772 9.51218C8.89821 9.58426 8.92556 9.64123 8.98026 9.75516Z" stroke="#2592FF" stroke-width="1.6" stroke-linecap="round" stroke-linejoin="round"/>
</svg>
