<svg width="24" height="24" viewBox="0 0 24 24" fill="none" xmlns="http://www.w3.org/2000/svg">
<path d="M18.1328 9.57959V9.58057C17.915 9.58377 17.7232 9.69094 17.6123 9.84912C17.5007 10.0084 17.4711 10.2196 17.5791 10.4224L17.582 10.4263L17.583 10.4253C17.6939 10.5958 17.8249 10.7484 17.957 10.897C18.09 11.0464 18.2232 11.1925 18.3389 11.355C19.8901 13.5347 19.7803 16.6255 18.0254 18.6558C17.9638 18.727 17.8917 18.7995 17.8164 18.8813C17.7429 18.9613 17.6695 19.0478 17.6133 19.1401C17.557 19.2329 17.5168 19.3346 17.5127 19.4438C17.5086 19.5541 17.5407 19.6681 17.623 19.7847C17.7414 19.9523 17.8966 20.0119 18.0811 20.0425L18.0918 20.0444V20.0435C18.3006 20.033 18.4808 19.9146 18.6338 19.77C18.7868 19.6253 18.9203 19.4461 19.0322 19.3071C19.863 18.2824 20.392 17.0463 20.5596 15.7378C20.8101 13.8287 20.2799 11.8992 19.0889 10.3862C18.9778 10.2441 18.8378 10.055 18.6797 9.89697C18.5225 9.73993 18.339 9.60493 18.1396 9.58057L18.1328 9.57959Z" fill="#2592FF" stroke="#2592FF" stroke-width="0.1"/>
<path d="M16.0029 11.2148C15.7744 11.2453 15.5605 11.4152 15.4951 11.6396C15.4343 11.8484 15.4906 12.0096 15.5869 12.1484C15.6342 12.2167 15.6922 12.2796 15.749 12.3408C15.8066 12.4029 15.8634 12.4633 15.9141 12.5264L15.915 12.5254C15.9802 12.6071 16.0407 12.6924 16.0986 12.7793L16.2617 13.0479C16.9213 14.2525 16.8537 15.7246 16.0859 16.8633H16.085C16.0234 16.9536 15.9434 17.0442 15.8594 17.1387C15.7763 17.232 15.6897 17.3297 15.6201 17.4307C15.5505 17.5318 15.4947 17.6404 15.4775 17.7568C15.4603 17.8746 15.4826 17.9967 15.5605 18.123C15.6647 18.2917 15.8125 18.3572 15.9795 18.4053L15.9863 18.4072H15.9932C16.1313 18.4063 16.2824 18.395 16.4053 18.292C17.137 17.6788 17.6481 16.6051 17.8164 15.7207C18.0561 14.4603 17.7873 13.1561 17.0693 12.0928V12.0918C16.9604 11.932 16.8226 11.7325 16.6631 11.5635C16.5043 11.3952 16.3175 11.2506 16.1084 11.2109L16.1016 11.21L16.0029 11.2148Z" fill="#2592FF" stroke="#2592FF" stroke-width="0.1"/>
<path d="M14.0898 12.8979C13.8064 12.8757 13.5357 13.037 13.4521 13.3208C13.3915 13.527 13.4588 13.6928 13.5547 13.8374C13.602 13.9089 13.6579 13.9779 13.709 14.0435C13.7609 14.1102 13.8084 14.1744 13.8438 14.2407C13.9351 14.4152 13.9805 14.6386 13.9727 14.8608C13.9648 15.0831 13.9042 15.2997 13.792 15.4624C13.7455 15.5298 13.693 15.5956 13.6396 15.6675C13.5874 15.7379 13.5359 15.8126 13.4971 15.8911C13.4582 15.9698 13.4308 16.0548 13.4287 16.146C13.4267 16.2375 13.4502 16.3327 13.5068 16.4321C13.6026 16.6 13.776 16.6838 13.9453 16.728L13.9561 16.731V16.73C14.2821 16.7403 14.5468 16.4997 14.7383 16.2114C14.9311 15.9211 15.0606 15.5671 15.1113 15.3149L15.1494 15.0688C15.21 14.4932 15.0669 13.9114 14.7402 13.4272C14.5786 13.1848 14.416 12.9624 14.0957 12.8989L14.0898 12.8979Z" fill="#2592FF" stroke="#2592FF" stroke-width="0.1"/>
<path d="M7.91188 1.96359C7.72317 1.62618 7.29666 1.50564 6.95925 1.69436C6.62184 1.88308 6.5013 2.30959 6.69002 2.647L7.30095 2.3053L7.91188 1.96359ZM8.37899 6.16513L7.68129 6.10842L7.68129 6.10844L8.37899 6.16513ZM8.18862 7.54614L7.48916 7.57364L7.49629 7.75505L7.5907 7.91012L8.18862 7.54614ZM11.2546 11.1861L10.5896 11.4047L10.5896 11.4047L11.2546 11.1861ZM9.27943 13.1046L9.8794 13.4652L9.8794 13.4652L9.27943 13.1046ZM9.40733 14.7521L9.80332 15.3293L10.2146 15.0471L10.0822 14.5663L9.40733 14.7521ZM7.56625 15.7656L7.24874 15.1417C7.0061 15.2652 6.85707 15.5182 6.86669 15.7903C6.87631 16.0624 7.04282 16.3043 7.29358 16.4103L7.56625 15.7656ZM7.59156 15.7763L7.31889 16.421L7.3189 16.421L7.59156 15.7763ZM9.49696 16.6966L10.1811 16.8447L10.2784 16.3952L9.90453 16.1275L9.49696 16.6966ZM9.35841 17.1106L10.0047 17.3795L10.0047 17.3794L9.35841 17.1106ZM8.90439 18.6689L8.21526 18.546L8.21526 18.546L8.90439 18.6689ZM8.48458 21.4479L9.00698 21.9138L9.00699 21.9138L8.48458 21.4479ZM5.54677 22.1633L5.50788 21.4642L5.49539 21.4652L5.54677 22.1633ZM2.64373 21.4402C2.25714 21.4393 1.94301 21.752 1.94212 22.1386C1.94123 22.5252 2.25391 22.8393 2.64051 22.8402L2.64212 22.1402L2.64373 21.4402ZM7.30095 2.3053L6.69002 2.647C6.96201 3.13329 7.23593 3.7466 7.42858 4.37563C7.62352 5.01214 7.72107 5.61895 7.68129 6.10842L8.37899 6.16513L9.07669 6.22184C9.13639 5.48729 8.98908 4.6901 8.76721 3.96565C8.54304 3.23373 8.2282 2.52913 7.91188 1.96359L7.30095 2.3053ZM8.37899 6.16513L7.68129 6.10844C7.66568 6.30053 7.62813 6.43776 7.57567 6.68167C7.5245 6.9196 7.47461 7.20363 7.48916 7.57364L8.18862 7.54614L8.88808 7.51864C8.88006 7.31461 8.90493 7.15943 8.94438 6.97602C8.98254 6.79858 9.05146 6.53233 9.07669 6.22183L8.37899 6.16513ZM8.18862 7.54614L7.5907 7.91012C7.76623 8.19848 8.0512 8.52088 8.33682 8.8242C8.62858 9.13405 8.97925 9.48365 9.29753 9.81034C9.62526 10.1467 9.93022 10.4703 10.1708 10.7646C10.4244 11.0749 10.551 11.2874 10.5896 11.4047L11.2546 11.1861L11.9196 10.9675C11.795 10.5884 11.5233 10.2071 11.2547 9.87851C10.973 9.53388 10.6317 9.17353 10.3003 8.83337C9.95946 8.48353 9.63811 8.16397 9.35607 7.86445C9.06788 7.55839 8.87728 7.3312 8.78655 7.18216L8.18862 7.54614ZM11.2546 11.1861L10.5896 11.4047C10.5957 11.4232 10.5894 11.4136 10.5942 11.3907C10.5982 11.372 10.6034 11.3746 10.5827 11.4011C10.5282 11.4708 10.4044 11.5704 10.1718 11.7037C10.0628 11.7661 9.9463 11.8271 9.8197 11.8928C9.69783 11.9561 9.56217 12.026 9.43619 12.0967C9.31071 12.1672 9.17453 12.2497 9.05061 12.3445C8.93089 12.4361 8.7862 12.5664 8.67946 12.744L9.27943 13.1046L9.8794 13.4652C9.85812 13.5006 9.84961 13.496 9.90151 13.4562C9.94921 13.4197 10.0201 13.3745 10.1217 13.3174C10.2229 13.2606 10.3345 13.203 10.4647 13.1354C10.5901 13.0703 10.7304 12.9971 10.8678 12.9184C11.1277 12.7695 11.4544 12.5592 11.6857 12.2633C11.9488 11.9268 12.0868 11.4763 11.9196 10.9675L11.2546 11.1861ZM9.27943 13.1046L8.67946 12.744C8.41565 13.1829 8.45383 13.6922 8.50658 14.0218C8.56247 14.3711 8.67708 14.7368 8.73245 14.9379L9.40733 14.7521L10.0822 14.5663C10.007 14.293 9.9288 14.0493 9.88899 13.8006C9.84604 13.5322 9.88558 13.455 9.8794 13.4652L9.27943 13.1046ZM9.40733 14.7521L9.01134 14.1749C8.58276 14.4689 7.80386 14.8592 7.24874 15.1417L7.56625 15.7656L7.88376 16.3894C8.39213 16.1307 9.27897 15.689 9.80332 15.3293L9.40733 14.7521ZM7.56625 15.7656L7.29358 16.4103L7.31889 16.421L7.59156 15.7763L7.86424 15.1316L7.83893 15.1209L7.56625 15.7656ZM7.59156 15.7763L7.3189 16.421C7.5647 16.525 7.93347 16.681 8.28799 16.8448C8.66068 17.0169 8.95586 17.1701 9.08939 17.2657L9.49696 16.6966L9.90453 16.1275C9.64773 15.9436 9.23511 15.7401 8.87513 15.5738C8.49699 15.3991 8.10822 15.2348 7.86423 15.1316L7.59156 15.7763ZM9.49696 16.6966L8.81281 16.5485C8.79792 16.6172 8.75952 16.7277 8.71209 16.8417L9.35841 17.1106L10.0047 17.3794C10.0617 17.2425 10.139 17.039 10.1811 16.8447L9.49696 16.6966ZM9.35841 17.1106L8.71213 16.8416C8.47256 17.4173 8.32335 17.9398 8.21526 18.546L8.90439 18.6689L9.59352 18.7918C9.68475 18.2801 9.80636 17.8561 10.0047 17.3795L9.35841 17.1106ZM8.90439 18.6689L8.21526 18.546C8.16366 18.8355 8.15923 19.129 8.1631 19.3854C8.16741 19.6716 8.17971 19.871 8.17752 20.1126C8.17333 20.5744 8.1056 20.8212 7.96218 20.982L8.48458 21.4479L9.00699 21.9138C9.50947 21.3504 9.5727 20.6505 9.57746 20.1253C9.57975 19.8733 9.56603 19.5691 9.56294 19.3643C9.5594 19.1298 9.56618 18.9451 9.59352 18.7918L8.90439 18.6689ZM8.48458 21.4479L7.96218 20.982C7.76635 21.2015 7.46713 21.3288 7.01466 21.3912C6.51828 21.4597 6.08952 21.432 5.50788 21.4643L5.54677 22.1633L5.58565 22.8622C5.96793 22.8409 6.65229 22.8544 7.20594 22.7781C7.80351 22.6957 8.49124 22.4921 9.00698 21.9138L8.48458 21.4479ZM5.54677 22.1633L5.49539 21.4652C4.75093 21.5199 3.40567 21.442 2.64373 21.4402L2.64212 22.1402L2.64051 22.8402C3.2424 22.8416 4.79399 22.9206 5.59815 22.8614L5.54677 22.1633Z" fill="#2592FF"/>
</svg>
