<svg width="24" height="24" viewBox="0 0 24 24" fill="none" xmlns="http://www.w3.org/2000/svg">
<path d="M3 21H4M21 21H20M4 21V6.2C4 5.07989 4 4.51984 4.21799 4.09202C4.40973 3.71569 4.71569 3.40973 5.09202 3.21799C5.51984 3 6.0799 3 7.2 3H12.8C13.9201 3 14.4802 3 14.908 3.21799C15.2843 3.40973 15.5903 3.71569 15.782 4.09202C16 4.51984 16 5.07989 16 6.2V8M4 21H16M16 21V8M16 21H20M16 8H18.4C18.9601 8 19.2401 8 19.454 8.10899C19.6422 8.20487 19.7951 8.35785 19.891 8.54601C20 8.75992 20 9.03995 20 9.6V21M10 7V11M8 9H12M12 14V14.01M8 14V14.01M12 17.49V17.5M8 17.49V17.5" stroke="#2592FF" stroke-width="1.5" stroke-linecap="round"/>
</svg>
