<svg preserveAspectRatio="none" overflow="visible" style="display: block;" width="103" height="54.3307" viewBox="0 0 103 54.3307" fill="none" xmlns="http://www.w3.org/2000/svg">
<g id="Frame 1707485014">
<g id="Frame 1707485013">
<rect width="34.3307" height="34.3307" rx="6.86614" fill="white"/>
<g id="Union">
</g>
<path id="Rectangle 17723" opacity="0.5" d="M17.1658 4.29142C19.0618 4.29142 20.5988 5.82845 20.5988 7.72449V26.6064C20.5988 28.5024 19.0618 30.0394 17.1658 30.0394V30.0394C15.2697 30.0394 13.7327 28.5024 13.7327 26.6064V7.72448C13.7327 5.82845 15.2697 4.29142 17.1658 4.29142V4.29142Z" fill="#30C100"/>
<circle id="Ellipse 1708" cx="17.1656" cy="7.72449" r="3.43307" fill="#30C100"/>
<circle id="Ellipse 1711" cx="17.1656" cy="26.606" r="3.43307" fill="#30C100"/>
<circle id="Ellipse 1709" cx="7.72433" cy="17.1656" r="3.43307" fill="#2592FF"/>
<circle id="Ellipse 1710" cx="26.6068" cy="17.1656" r="3.43307" fill="#2592FF"/>
<path id="Rectangle 17722" opacity="0.5" d="M4.29126 17.1656C4.29126 15.2696 5.8283 13.7325 7.72433 13.7325H26.6062C28.5023 13.7325 30.0393 15.2696 30.0393 17.1656V17.1656C30.0393 19.0616 28.5022 20.5987 26.6062 20.5987H7.72433C5.8283 20.5987 4.29126 19.0616 4.29126 17.1656V17.1656Z" fill="#2592FF"/>
</g>
<path id="Union_2" d="M49.3002 6.09504C51.7601 6.09507 53.7824 6.72039 55.3666 7.97004C56.9606 9.21968 58.0574 10.9024 58.6576 13.0179L55.9867 13.7269C55.5538 12.1428 54.781 10.8929 53.6693 9.97785C52.5574 9.06276 51.1008 8.60484 49.3002 8.6048C47.7159 8.6048 46.397 8.96363 45.3441 9.68195C44.2912 10.4003 43.4995 11.4046 42.9681 12.6937C42.4369 13.9728 42.1655 15.4632 42.1556 17.1653C42.1458 18.8578 42.4075 20.349 42.9389 21.638C43.4702 22.917 44.2669 23.9207 45.3295 24.6487C46.3922 25.3671 47.7159 25.7259 49.3002 25.7259C51.1008 25.7259 52.5574 25.2689 53.6693 24.3538C54.7812 23.4289 55.5538 22.1791 55.9867 20.6048L58.6576 21.3128C58.0574 23.4184 56.9605 25.1012 55.3666 26.3607C53.7824 27.6103 51.7601 28.2356 49.3002 28.2357C47.1846 28.2357 45.3885 27.7681 43.9125 26.8333C42.4366 25.8985 41.3099 24.5997 40.5326 22.9368C39.7651 21.2739 39.3812 19.3498 39.3812 17.1653C39.3813 14.9809 39.7651 13.0568 40.5326 11.3939C41.31 9.7311 42.4366 8.4321 43.9125 7.49738C45.3885 6.56262 47.1846 6.09504 49.3002 6.09504ZM96.5209 11.4095C97.9673 11.4095 99.2074 11.6702 100.241 12.1917C101.283 12.7034 102.031 13.4808 102.484 14.5237C102.71 15.0156 102.852 15.5517 102.912 16.1321C102.971 16.7028 103 17.3032 103 17.9329V27.7923H100.668V25.3079C100.136 26.1203 99.4778 26.767 98.6908 27.2464C97.6182 27.9057 96.3089 28.2357 94.764 28.2357C93.5735 28.2356 92.5748 28.0192 91.768 27.5862C90.9709 27.1434 90.3658 26.5624 89.9525 25.8441C89.5492 25.1258 89.3471 24.3387 89.3471 23.4827C89.3471 22.6464 89.5048 21.9229 89.8197 21.3128C90.1444 20.693 90.5976 20.181 91.1781 19.7777C91.7586 19.3645 92.4525 19.0401 93.2592 18.804C94.0167 18.5974 94.8627 18.4203 95.7972 18.2728C96.7418 18.1154 97.6963 17.972 98.6605 17.8441C99.2704 17.7632 99.8548 17.6818 100.413 17.6048C100.383 16.3974 100.101 15.4878 99.5609 14.8773C98.9705 14.1987 97.9474 13.8597 96.4916 13.8597C95.5273 13.8597 94.6807 14.0809 93.9525 14.5237C93.2343 14.9567 92.7272 15.6649 92.432 16.6487L89.9379 15.8958C90.3216 14.4988 91.0645 13.4018 92.1664 12.6048C93.2685 11.8078 94.7202 11.4095 96.5209 11.4095ZM64.2562 19.8372C64.2562 20.585 64.3255 21.3086 64.4633 22.0071C64.601 22.7055 64.8321 23.3351 65.1566 23.8958C65.4912 24.4567 65.9347 24.9002 66.4857 25.2249C67.0465 25.5494 67.7453 25.7112 68.5814 25.7112C69.2406 25.7112 69.8411 25.5987 70.3822 25.3724C70.9232 25.1461 71.3852 24.8111 71.7689 24.3685C72.1526 23.9159 72.448 23.3452 72.6547 22.6566C72.8613 21.9678 72.9652 21.1654 72.9652 20.2503V11.8519H75.6068V27.7923H73.2601V25.7269C72.7829 26.3779 72.1974 26.9096 71.5033 27.3206C70.4997 27.9109 69.3142 28.2063 67.9467 28.2064C66.9233 28.2064 66.0421 28.0438 65.3041 27.7191C64.576 27.3944 63.9708 26.9614 63.4887 26.4202C63.0066 25.8791 62.6284 25.2786 62.3529 24.6195C62.0774 23.9602 61.8802 23.2858 61.7621 22.597C61.6539 21.9083 61.6 21.2636 61.6 20.6634V11.8519H64.2562V19.8372ZM86.4408 11.7484C86.9819 11.709 87.4891 11.7436 87.9613 11.8519V14.3167C87.4103 14.1691 86.8042 14.1297 86.1449 14.1986C85.4858 14.2675 84.8756 14.509 84.3148 14.9222C83.8033 15.2862 83.4048 15.7289 83.1195 16.2503C82.844 16.7718 82.6526 17.3376 82.5443 17.9476C82.4361 18.5478 82.3812 19.1635 82.3812 19.7933V27.7923H79.7396V11.8519H82.0863V14.3841C82.1907 14.1977 82.3029 14.0167 82.4262 13.8441C82.7311 13.431 83.0709 13.0921 83.4447 12.8265C83.8578 12.492 84.3248 12.236 84.8461 12.0589C85.3676 11.8818 85.8996 11.7779 86.4408 11.7484ZM98.7787 20.0589C97.9523 20.1671 97.1699 20.2845 96.432 20.4124C95.6941 20.5305 95.0302 20.6739 94.4398 20.8411C94.0069 20.9789 93.598 21.1559 93.2142 21.3724C92.8405 21.5888 92.5353 21.8689 92.2992 22.2132C92.0729 22.5478 91.9603 22.9662 91.9603 23.4681C91.9603 23.901 92.0681 24.3147 92.2846 24.7083C92.5109 25.1018 92.8554 25.4214 93.3178 25.6673C93.79 25.9133 94.405 26.0364 95.1625 26.0364C96.107 26.0364 96.9239 25.869 97.6127 25.5345C98.3111 25.1902 98.8722 24.7426 99.2953 24.1917C99.7184 23.6308 99.9945 23.0199 100.122 22.3607C100.27 21.8688 100.349 21.3229 100.359 20.723C100.37 20.3863 100.375 20.0928 100.38 19.8431C99.8404 19.9162 99.3065 19.9898 98.7787 20.0589Z" fill="black"/>
</g>
</svg>
