<svg preserveAspectRatio="none" overflow="visible" style="display: block;" width="18" height="12.8571" viewBox="0 0 18 12.8571" fill="none" xmlns="http://www.w3.org/2000/svg">
<g id="LK" clip-path="url(#clip0_0_14)">
<mask id="mask0_0_14" style="mask-type:alpha" maskUnits="userSpaceOnUse" x="0" y="0" width="18" height="13">
<g id="b">
<path id="Vector" d="M16.2857 0H1.71429C0.767512 0 0 0.767512 0 1.71429V11.1429C0 12.0896 0.767512 12.8571 1.71429 12.8571H16.2857C17.2325 12.8571 18 12.0896 18 11.1429V1.71429C18 0.767512 17.2325 0 16.2857 0Z" fill="white"/>
</g>
</mask>
<g mask="url(#mask0_0_14)">
<path id="Vector_2" d="M16.2857 0H1.71429C0.767512 0 0 0.767512 0 1.71429V11.1429C0 12.0896 0.767512 12.8571 1.71429 12.8571H16.2857C17.2325 12.8571 18 12.0896 18 11.1429V1.71429C18 0.767512 17.2325 0 16.2857 0Z" fill="#FFBF00"/>
<path id="Vector_3" fill-rule="evenodd" clip-rule="evenodd" d="M1.71429 1.71436H4.28571V11.1429H1.71429V1.71436Z" fill="#00614A"/>
<path id="Vector_4" fill-rule="evenodd" clip-rule="evenodd" d="M4.28571 1.71436H6.85714V11.1429H4.28571V1.71436Z" fill="#FF6600"/>
<path id="Vector_5" fill-rule="evenodd" clip-rule="evenodd" d="M7.71429 1.71436H16.2857V11.1429H7.71429V1.71436Z" fill="#98232E"/>
<path id="Vector_6" fill-rule="evenodd" clip-rule="evenodd" d="M10.7443 9.09946L10.794 9.06175L10.8146 9.09946C10.8429 9.15089 10.9209 9.14918 10.9723 9.09946L11.0126 9.05918L11.0469 9.09775C11.0897 9.14918 11.1703 9.14918 11.2217 9.09775C11.2594 9.06175 11.2646 9.06089 11.2886 9.08918C11.3023 9.10461 11.3443 9.12346 11.3811 9.12946C11.448 9.14146 11.4497 9.14061 11.4883 9.06261C11.5226 8.99746 11.5269 8.97175 11.5191 8.90832C11.514 8.86546 11.508 8.79861 11.5063 8.75832C11.5046 8.68461 11.5046 8.68375 11.5851 8.64689C11.628 8.62632 11.6794 8.59889 11.6991 8.58518C11.7309 8.56289 11.8191 8.42489 11.8191 8.39661C11.8191 8.38975 11.7849 8.37946 11.742 8.37261C11.5749 8.34689 11.5466 8.22689 11.6563 8.00404C11.8337 7.64232 11.9409 7.28832 11.9417 7.06289C11.9417 6.96261 11.946 6.92832 11.9563 6.95146C11.9957 7.03975 11.9246 7.41432 11.8166 7.68432L11.7737 7.79318L11.8149 7.78032C11.8371 7.77175 11.9717 7.69718 12.1123 7.61232C12.498 7.38089 12.6309 7.33461 12.8811 7.34832C13.0903 7.36032 13.1794 7.41432 13.3269 7.62089C13.4057 7.72975 13.4811 7.80775 13.6183 7.92261C13.9131 8.16775 13.9251 8.18832 13.9389 8.47632C13.9534 8.76775 13.9474 8.78489 13.7803 8.83289C13.6389 8.87404 13.5489 8.96146 13.5257 9.08404C13.5137 9.15004 13.5403 9.15261 13.6114 9.09089L13.6629 9.04632L13.6869 9.09089C13.7177 9.15089 13.7829 9.15089 13.8369 9.09089L13.8772 9.04804L13.9183 9.09089C13.9834 9.15946 14.07 9.14404 14.094 9.05661C14.0983 9.04118 14.1111 9.04632 14.1369 9.07546C14.184 9.13032 14.3049 9.15432 14.3186 9.10975C14.3237 9.09432 14.3134 9.05404 14.2971 9.02061C14.2269 8.88004 14.2046 8.81232 14.2029 8.73604C14.2029 8.62975 14.226 8.57832 14.3177 8.49089C14.4292 8.38546 14.4634 8.25089 14.3794 8.25089C14.328 8.25089 14.2749 8.18832 14.2423 8.08804C14.1737 7.88661 14.1866 7.65946 14.2886 7.28232C14.3914 6.89661 14.4034 6.82804 14.4043 6.57089C14.4043 6.36261 14.4017 6.32661 14.3657 6.21261C14.3443 6.14404 14.2997 6.03946 14.268 5.98289L14.2106 5.88004L14.2851 5.79604C14.514 5.54404 14.4677 5.13089 14.1909 4.97318C14.1077 4.92346 14.0863 4.91918 13.9389 4.92175C13.8497 4.92175 13.716 4.93718 13.6389 4.95604C13.56 4.97318 13.428 4.98861 13.3372 4.98861C13.1932 4.98861 13.1691 4.98518 13.1143 4.94575C13.056 4.90461 13.0457 4.88575 13.0346 4.79146C13.0329 4.77089 13.0226 4.75204 13.0123 4.74861C12.9926 4.74004 12.9009 4.84289 12.8889 4.89089C12.882 4.91318 12.876 4.91146 12.8571 4.88232C12.8443 4.86089 12.8263 4.81375 12.8169 4.77775C12.7937 4.68518 12.822 4.61489 12.9026 4.56346L12.9669 4.52404L12.9309 4.49318C12.8537 4.42975 12.7226 4.47261 12.6754 4.57889C12.6617 4.60718 12.6471 4.63204 12.6429 4.63204C12.6386 4.63204 12.6129 4.60375 12.5863 4.56946C12.4869 4.44089 12.5211 4.24889 12.6549 4.18975C12.7251 4.15889 12.7877 4.18289 12.8006 4.24546C12.8203 4.34146 12.8829 4.21546 12.8717 4.10146C12.8631 4.02604 12.8631 4.02261 12.9034 4.02261C12.9583 4.02261 13.0749 4.11861 13.1117 4.19404C13.1546 4.27975 13.1503 4.41689 13.1031 4.51804L13.0689 4.59775L13.1151 4.58575C13.1837 4.56689 13.2523 4.50861 13.2866 4.44004C13.3226 4.36632 13.3269 4.22318 13.2951 4.14518C13.2634 4.07061 13.2669 4.05946 13.3123 4.08518C13.3911 4.12804 13.4323 4.17432 13.464 4.25661C13.4931 4.32946 13.4949 4.34746 13.4794 4.42375C13.4709 4.47089 13.4494 4.53261 13.4331 4.56089C13.4074 4.60632 13.4074 4.61404 13.4271 4.61404C13.464 4.61404 13.5429 4.56689 13.5703 4.52832C13.584 4.50775 13.6046 4.45975 13.6157 4.41861L13.6354 4.34661L13.6586 4.40146C13.6912 4.47861 13.7529 4.54975 13.83 4.59346C13.9131 4.64146 13.9474 4.64489 13.9046 4.60032C13.8754 4.57032 13.8214 4.36032 13.8377 4.34061C13.8463 4.32861 13.9594 4.44346 14.0863 4.59604C14.208 4.74175 14.2834 4.78804 14.3949 4.78804C14.538 4.78804 14.6203 4.62346 14.5577 4.46832C14.5191 4.37746 14.436 4.36546 14.388 4.44261C14.3657 4.47861 14.3597 4.50689 14.3657 4.54375C14.3743 4.59004 14.3709 4.59518 14.34 4.59518C14.2971 4.59518 14.2166 4.52661 14.0726 4.36546C13.8523 4.12118 13.584 3.91375 13.3911 3.83832C13.2669 3.78861 13.002 3.76975 12.8769 3.80061C12.7397 3.83318 12.5769 3.93775 12.4894 4.04918C12.3334 4.24632 12.3317 4.50775 12.4834 4.74689L12.5263 4.81546L12.4971 4.87546C12.4543 4.96461 12.4577 5.08375 12.5057 5.17118C12.5271 5.20975 12.5486 5.24146 12.5537 5.24146C12.5589 5.24146 12.564 5.21575 12.5657 5.18575C12.57 5.10861 12.5949 5.05718 12.6377 5.03746C12.6754 5.01861 12.7003 5.02718 12.876 5.11975C13.0603 5.21832 13.3629 5.22432 13.6851 5.13689C13.8437 5.09575 14.0297 5.09832 14.112 5.14375C14.262 5.22775 14.2972 5.44546 14.1866 5.61089C14.1386 5.68118 14.0923 5.71032 13.938 5.76689C13.8197 5.80975 13.7923 5.81318 13.524 5.80975C13.2951 5.80632 13.2129 5.81232 13.1194 5.83804C13.0183 5.86632 12.9566 5.86889 12.6583 5.85946L12.3137 5.84746L12.3523 5.89032C12.3729 5.91261 12.4037 5.94175 12.4183 5.95289C12.444 5.97175 12.444 5.97432 12.4046 5.99318C12.3814 6.00518 12.3317 6.01375 12.2931 6.01375H12.222L12.2134 6.09432C12.2083 6.13889 12.2083 6.18861 12.2134 6.20832C12.222 6.23661 12.2194 6.24004 12.1963 6.22975C12.1826 6.22118 12.1414 6.20832 12.1054 6.19804C12.0694 6.18775 12.0214 6.16804 11.9983 6.15261C11.9589 6.12689 11.9554 6.12689 11.94 6.16118C11.928 6.19204 11.808 6.31032 11.79 6.31032C11.7874 6.31032 11.784 6.28718 11.7814 6.25889C11.7814 6.23146 11.7643 6.15861 11.7437 6.09775C11.7249 6.03775 11.7043 5.97089 11.6991 5.95032C11.6906 5.91946 11.688 5.91775 11.6777 5.94175C11.6717 5.95632 11.6623 5.99746 11.6571 6.03346C11.6529 6.06775 11.6349 6.12775 11.6177 6.16204L11.5869 6.22546L11.5671 6.17061C11.5466 6.11232 11.5114 6.05061 11.4986 6.05061C11.4943 6.05061 11.4866 6.07032 11.4814 6.09346C11.4729 6.14061 11.3897 6.27346 11.37 6.27346C11.3614 6.27346 11.3554 6.23575 11.3554 6.19032C11.3554 6.14404 11.3494 6.10718 11.3409 6.10718C11.334 6.10718 11.3271 6.11832 11.3271 6.13289C11.3271 6.16718 11.256 6.27261 11.2329 6.27261C11.2217 6.27261 11.2054 6.28461 11.1951 6.30004C11.1694 6.33946 11.148 6.33432 11.1583 6.29146C11.1643 6.27004 11.1609 6.22289 11.1514 6.18432L11.1283 6.09432C11.1249 6.08061 11.1 6.08404 11.046 6.10718C10.9586 6.14404 10.9294 6.13804 10.974 6.09004C10.9912 6.07289 11.0169 6.01461 11.0297 5.95975C11.0434 5.90489 11.064 5.85689 11.076 5.85089C11.0914 5.84575 11.0906 5.85346 11.0717 5.88689C11.0589 5.91089 11.0477 5.94346 11.0477 5.95889C11.0477 5.97432 11.0366 6.01032 11.0246 6.04032C11.0126 6.07118 11.0049 6.09775 11.0074 6.10032C11.0109 6.10461 11.0434 6.08832 11.0812 6.06432L11.1497 6.02146V6.06004C11.1497 6.08146 11.1583 6.13718 11.1669 6.18518L11.1857 6.27089L11.232 6.24261C11.2791 6.21346 11.3246 6.10975 11.3246 6.03004C11.3246 5.98889 11.3417 5.99575 11.3486 6.03861L11.3726 6.14146L11.3931 6.22204L11.4249 6.17061C11.442 6.14232 11.4651 6.08746 11.4746 6.04804C11.4917 5.98118 11.5157 5.95204 11.5157 6.00089C11.5157 6.03689 11.5894 6.16375 11.6031 6.15346C11.61 6.14832 11.6237 6.10032 11.6331 6.04718C11.6537 5.93575 11.6863 5.86032 11.7077 5.87575C11.7163 5.88261 11.718 5.89289 11.7137 5.90146C11.7103 5.91004 11.7266 5.98289 11.7514 6.06261C11.7771 6.14232 11.8029 6.22289 11.8071 6.24089C11.8157 6.27089 11.8243 6.26661 11.8774 6.20404C11.9117 6.16546 11.9409 6.12261 11.9443 6.10804C11.9494 6.08746 11.9571 6.08832 11.9871 6.11318C12.03 6.14918 12.1757 6.20746 12.1869 6.19204C12.1911 6.18689 12.1954 6.13632 12.1954 6.08061L12.198 5.97775L12.2409 5.98889C12.264 5.99575 12.312 5.99489 12.348 5.98889L12.4131 5.97604L12.3557 5.92289C12.324 5.89375 12.2914 5.85604 12.2837 5.83889C12.2751 5.82175 12.246 5.80461 12.2151 5.80204C12.1269 5.79175 11.9717 5.67604 11.9717 5.62204C11.9717 5.61089 11.9931 5.62804 12.0197 5.66061C12.078 5.73089 12.1586 5.77546 12.2289 5.77546H12.282L12.2494 5.71889C12.2306 5.68461 12.2134 5.62289 12.2091 5.57061C12.2031 5.48918 12.1963 5.47632 12.132 5.41632C12.0934 5.38032 12.0446 5.32632 12.0249 5.29632L11.9889 5.24232L11.97 5.30661C11.9597 5.34261 11.9469 5.37089 11.9426 5.37089C11.9374 5.37089 11.9169 5.35032 11.8997 5.32546C11.88 5.29975 11.8603 5.27918 11.8569 5.27918C11.8509 5.27918 11.8346 5.31346 11.8183 5.35632L11.79 5.43089L11.7677 5.38804C11.7549 5.36232 11.7266 5.32118 11.7034 5.29375C11.6803 5.26461 11.6674 5.24232 11.676 5.24232C11.6846 5.24232 11.7137 5.27146 11.7403 5.30661L11.7891 5.37175L11.8089 5.32375C11.82 5.29632 11.8243 5.25261 11.8191 5.21746C11.8106 5.16604 11.8123 5.16432 11.8277 5.19604C11.8363 5.21661 11.8646 5.25604 11.8903 5.28175L11.9366 5.33318L11.9683 5.25604C12 5.17889 12.0009 5.17889 12.0146 5.22346C12.0343 5.28518 12.1731 5.43775 12.2914 5.52518C12.3086 5.53889 12.3017 5.49089 12.2683 5.38375C12.2597 5.35546 12.2511 5.30404 12.2511 5.26975C12.2511 5.21832 12.2409 5.19518 12.1911 5.14546C12.1209 5.07346 12.0986 5.02289 12.0849 4.90718C12.0797 4.86004 12.0677 4.80775 12.0574 4.79146C12.0429 4.76575 12.0403 4.78032 12.0446 4.86689C12.0463 4.92689 12.0403 4.99889 12.0309 5.02975L12.0137 5.08461L12 5.03832C11.9914 5.01261 11.9597 4.96975 11.9271 4.93975C11.8929 4.91146 11.8714 4.88318 11.8757 4.87718C11.88 4.87204 11.9143 4.89775 11.9503 4.93546C12.006 4.99289 12.0189 4.99889 12.0257 4.97404C12.0343 4.94404 12.0257 4.81461 12.0086 4.72546C12 4.67918 12 4.67918 12.0429 4.73404C12.0737 4.77689 12.09 4.82489 12.1029 4.91061C12.12 5.01946 12.1286 5.03918 12.204 5.12489C12.2494 5.17889 12.2897 5.21918 12.2914 5.21575C12.2949 5.21232 12.3 5.07518 12.3043 4.91146C12.3129 4.59861 12.3043 4.52404 12.2469 4.42718L12.2177 4.37746L12.2631 4.31146C12.3231 4.22575 12.3506 4.15718 12.3626 4.06289L12.3729 3.98575L12.3214 4.05175C12.2786 4.10489 12.2589 4.11689 12.21 4.11689C12.1611 4.11689 12.1414 4.10661 12.1097 4.05946C12.0703 4.00375 12 3.95061 11.9331 3.92404C11.9074 3.91546 11.8989 3.91889 11.8989 3.94118C11.8989 3.95832 11.886 4.00461 11.8689 4.04575L11.8389 4.12118L11.7754 4.03718C11.736 3.98575 11.6897 3.94632 11.6554 3.93432C11.5671 3.90346 11.5629 3.90604 11.5629 3.99432C11.5629 4.12546 11.52 4.15032 11.4429 4.06289C11.3854 3.99432 11.3366 3.98061 11.226 3.99689L11.1403 4.00975L11.1574 4.06118C11.1694 4.10404 11.166 4.12118 11.1386 4.17004C11.094 4.24889 11.0357 4.28318 10.9466 4.28318C10.9054 4.28318 10.854 4.29432 10.8317 4.30889C10.8103 4.32175 10.7563 4.33804 10.7117 4.34318C10.6671 4.34918 10.62 4.36032 10.6063 4.36632C10.5857 4.37661 10.5831 4.36804 10.5891 4.30461C10.6003 4.20689 10.5497 4.13575 10.4691 4.13575C10.3663 4.13575 10.3192 4.25832 10.3594 4.42032C10.368 4.45118 10.3766 4.50089 10.3817 4.52918C10.3877 4.55918 10.4331 4.63889 10.4914 4.71518C10.5463 4.78889 10.5977 4.86518 10.6063 4.88489C10.6149 4.90461 10.6431 4.93632 10.6689 4.95518L10.716 4.98946L10.71 4.92346C10.7031 4.84975 10.7151 4.83775 10.7443 4.88918C10.7554 4.90889 10.782 4.93889 10.8043 4.95775C10.8386 4.98518 10.8446 4.98604 10.8446 4.96118C10.8446 4.94404 10.8514 4.90975 10.86 4.88061L10.8771 4.82918L10.9029 4.89946C10.9183 4.93804 10.968 5.02632 11.0126 5.09661C11.1 5.22946 11.1531 5.37946 11.1257 5.41375C11.1146 5.42832 11.0846 5.42661 11.0229 5.41032C10.974 5.39832 10.914 5.39146 10.8892 5.39575C10.8377 5.40432 10.8351 5.39575 10.866 5.34432C10.8986 5.29032 10.8934 5.28175 10.8291 5.28175C10.7546 5.28175 10.5703 5.23375 10.4991 5.19604C10.4306 5.16175 10.4134 5.17032 10.3937 5.25604L10.3569 5.41461L10.3372 5.50032L10.4117 5.49175C10.4529 5.48575 10.506 5.47461 10.5292 5.46432C10.5532 5.45575 10.5746 5.45061 10.5771 5.45318C10.5797 5.45661 10.5686 5.49089 10.554 5.52861L10.5249 5.59718L10.572 5.58518C10.5977 5.57832 10.6363 5.56118 10.6577 5.54746C10.6954 5.52346 10.698 5.52518 10.728 5.58775C10.764 5.66489 10.7931 5.66232 10.7991 5.57918C10.806 5.49518 10.8274 5.50804 10.8677 5.62032C10.9046 5.72832 10.9449 5.76604 10.9517 5.70261C10.9543 5.68204 10.974 5.64689 10.9971 5.62546C11.0426 5.58261 11.0769 5.59632 11.0957 5.66318C11.1171 5.73175 11.0717 5.80375 10.9414 5.91004C10.6757 6.12261 10.5231 6.41404 10.4786 6.78432C10.4392 7.11861 10.5626 7.46489 10.8103 7.71346C10.9286 7.83346 11.1171 7.95775 11.1051 7.91061C11.0554 7.70661 11.0571 7.31918 11.1086 7.25318C11.1171 7.24289 11.1137 7.28318 11.1026 7.34232C11.0614 7.56346 11.0794 7.73918 11.1857 8.15146C11.28 8.52518 11.268 8.68461 11.1326 8.78918C11.0897 8.82346 11.0606 8.82861 10.944 8.82689C10.8171 8.82518 10.8034 8.82861 10.7623 8.87146C10.7229 8.91432 10.6723 9.05146 10.6723 9.11489C10.6723 9.14918 10.7006 9.14489 10.758 9.10118L10.7443 9.09946ZM9.78429 8.41375C9.79801 8.39061 9.80829 8.35375 9.80829 8.33232C9.80829 8.29975 9.81944 8.29118 9.87429 8.28089L9.94029 8.26889L9.89744 8.22175C9.84429 8.16689 9.83915 8.12404 9.88544 8.12404C9.93086 8.12404 10.0089 8.06061 10.0209 8.01261C10.0269 7.99204 10.0234 7.96289 10.014 7.94746C9.98829 7.90889 9.93944 7.91489 9.93086 7.95775C9.92058 8.00404 9.90515 8.00489 9.86829 7.95775C9.81344 7.88918 9.81172 7.74518 9.86572 7.66118C9.88972 7.62175 9.88972 7.61832 9.85715 7.57889C9.82286 7.53432 9.79715 7.44775 9.81429 7.42718C9.81944 7.42118 9.84686 7.42718 9.87429 7.43918C9.91544 7.45632 9.93172 7.45804 9.94801 7.43918C9.99944 7.38775 9.94372 7.31918 9.86229 7.33461C9.83058 7.34061 9.81772 7.33461 9.81258 7.31232C9.80915 7.29518 9.78086 7.27204 9.74829 7.26089C9.69172 7.24204 9.69086 7.24375 9.69086 7.29518C9.69086 7.35261 9.66515 7.36375 9.61972 7.32689C9.58115 7.29689 9.54429 7.32004 9.54429 7.37404C9.54429 7.42375 9.58286 7.44861 9.65058 7.44261C9.70201 7.43832 9.70458 7.49061 9.65486 7.56432L9.61886 7.61832L9.64715 7.67232C9.69001 7.75204 9.68572 7.88489 9.63858 7.95089L9.60429 8.00232L9.58029 7.96118C9.54772 7.90375 9.50315 7.90804 9.49029 7.96975C9.48172 8.01004 9.49029 8.02804 9.52715 8.07089C9.55286 8.09918 9.58972 8.12232 9.60944 8.12232C9.65915 8.12232 9.65744 8.17375 9.60601 8.22689L9.56572 8.26804L9.62915 8.28089C9.66344 8.28775 9.69086 8.30146 9.69086 8.31089C9.69086 8.34518 9.73372 8.45489 9.74829 8.45489C9.75686 8.45489 9.77401 8.43775 9.78515 8.41461L9.78429 8.41375ZM10.0011 6.55375C10.1434 6.47061 10.1554 6.25889 10.0217 6.20232C9.96601 6.18004 9.93086 6.19375 9.91029 6.24261C9.89315 6.28118 9.90429 6.35061 9.92744 6.35061C9.93429 6.35061 9.94029 6.36261 9.94029 6.37804C9.94029 6.45175 9.72344 6.48518 9.63515 6.42518C9.60429 6.40375 9.59229 6.34975 9.61801 6.34975C9.63515 6.34975 9.64972 6.29318 9.64029 6.25375C9.62658 6.20061 9.58544 6.18175 9.52715 6.20232C9.39429 6.24861 9.39858 6.45604 9.53315 6.54518C9.64458 6.61632 9.88801 6.62061 10.0029 6.55375H10.0011ZM9.91286 6.39089C9.92144 6.38232 9.91801 6.36518 9.90429 6.35061C9.87429 6.31889 9.87601 6.27175 9.90858 6.21775C9.93429 6.17746 9.93686 6.11746 9.94544 5.50975C9.96001 4.46061 10.0183 3.67289 10.0954 3.48432C10.1263 3.40889 10.1211 3.40718 10.0423 3.48004C9.93944 3.57261 9.86229 3.69432 9.79372 3.86575C9.66344 4.19146 9.61801 4.63032 9.61801 5.56632C9.61801 6.09775 9.62144 6.16632 9.64372 6.21775C9.66601 6.26404 9.66686 6.28204 9.65229 6.33261C9.64201 6.36518 9.63772 6.39689 9.64201 6.40118C9.67115 6.43889 9.88201 6.42946 9.91372 6.39004L9.91286 6.39089Z" fill="#FFB700"/>
<path id="Vector_7" fill-rule="evenodd" clip-rule="evenodd" d="M8.57143 2.5715H9.42857V3.42864H8.57143V2.5715ZM14.5714 2.5715H15.4286V3.42864H14.5714V2.5715ZM8.57143 9.42864H9.42857V10.2858H8.57143V9.42864ZM14.5714 9.42864H15.4286V10.2858H14.5714V9.42864Z" fill="#DA8210"/>
<path id="Vector_8" d="M16.2857 0.428641H1.71429C1.00421 0.428641 0.428571 1.00428 0.428571 1.71436V11.1429C0.428571 11.853 1.00421 12.4286 1.71429 12.4286H16.2857C16.9958 12.4286 17.5714 11.853 17.5714 11.1429V1.71436C17.5714 1.00428 16.9958 0.428641 16.2857 0.428641Z" stroke="black" stroke-opacity="0.1" stroke-width="0.857143"/>
</g>
</g>
<defs>
<clipPath id="clip0_0_14">
<rect width="18" height="12.8571" fill="white"/>
</clipPath>
</defs>
</svg>
