<svg width="60" height="60" viewBox="0 0 60 60" fill="none" xmlns="http://www.w3.org/2000/svg">
<path d="M45.3339 23.8257C44.7497 23.8342 44.233 24.123 43.9326 24.5513C43.6287 24.9851 43.549 25.5623 43.8427 26.1138L43.8466 26.1226L43.8535 26.1323C44.1367 26.5677 44.4742 26.9543 44.8046 27.3257C45.1384 27.7009 45.4648 28.0613 45.749 28.4604C49.5941 33.8638 49.3217 41.5262 44.9736 46.5571C44.8205 46.7342 44.6468 46.9088 44.4531 47.1196C44.2677 47.3214 44.0767 47.5447 43.9296 47.7866C43.782 48.0296 43.6704 48.3045 43.6591 48.606C43.6479 48.9117 43.7405 49.2228 43.9599 49.5337C44.2826 49.9906 44.7071 50.1507 45.1855 50.23L45.2119 50.2339L45.2382 50.2329C45.8049 50.2048 46.2831 49.8845 46.6738 49.5151C47.0644 49.1458 47.407 48.6894 47.6826 48.3472V48.3462C49.7733 45.7669 51.1042 42.6561 51.5263 39.3628L51.58 38.9106C52.0724 34.2525 50.728 29.5781 47.8232 25.8882C47.5486 25.5366 47.1917 25.0572 46.79 24.6558C46.3927 24.2588 45.9104 23.895 45.3691 23.8286L45.3515 23.8257H45.3339ZM45.4443 49.9517C45.3728 49.9666 45.3006 49.9782 45.2265 49.9819C45.3006 49.9782 45.3728 49.9667 45.4443 49.9517ZM44.9745 49.9282C44.9596 49.9243 44.9444 49.9217 44.9296 49.9175C44.9444 49.9217 44.9596 49.9243 44.9745 49.9282ZM44.8788 49.9009C44.848 49.8912 44.8178 49.8808 44.788 49.8696C44.8178 49.8808 44.848 49.8912 44.8788 49.9009ZM44.7324 49.8472C44.7128 49.8389 44.6938 49.8298 44.6747 49.8208C44.6938 49.8299 44.7128 49.8389 44.7324 49.8472ZM45.9033 49.7817C45.8681 49.8008 45.8317 49.8168 45.7958 49.8335C45.8857 49.7916 45.9741 49.7438 46.0595 49.688L45.9033 49.7817ZM44.5908 49.7788C44.5782 49.7717 44.566 49.7639 44.5537 49.7563C44.566 49.7639 44.5782 49.7717 44.5908 49.7788ZM44.4853 49.7124C44.4669 49.6995 44.4494 49.6854 44.4316 49.6714C44.4494 49.6854 44.4669 49.6995 44.4853 49.7124ZM44.081 49.2573C44.0735 49.2443 44.0665 49.2312 44.0595 49.2183C44.0665 49.2312 44.0735 49.2443 44.081 49.2573ZM43.9091 48.6743C43.9089 48.6639 43.909 48.6535 43.9091 48.6431C43.909 48.6535 43.9089 48.6639 43.9091 48.6743ZM43.913 48.5864C43.9157 48.5433 43.9202 48.5008 43.9277 48.4585C43.9202 48.5008 43.9157 48.5433 43.913 48.5864ZM43.9365 48.4146C43.9464 48.3686 43.9577 48.3229 43.9726 48.2778C43.9577 48.3229 43.9464 48.3686 43.9365 48.4146ZM47.8642 47.7065V47.7075V47.7065ZM44.0126 48.1743C44.0212 48.1538 44.0296 48.1331 44.039 48.1128C44.0296 48.1331 44.0212 48.1538 44.0126 48.1743ZM44.0781 48.0337C44.0908 48.0094 44.1043 47.9854 44.1181 47.9614C44.1043 47.9854 44.0908 48.0094 44.0781 48.0337ZM44.4072 47.5522C44.4678 47.4786 44.5313 47.4065 44.5956 47.3354C44.5313 47.4065 44.4678 47.4786 44.4072 47.5522ZM46.6132 24.8315C47.0019 25.2197 47.3473 25.6843 47.6279 26.0435C50.5846 29.7995 51.9014 34.5901 51.2792 39.3296C51.0972 40.7507 50.7426 42.1371 50.2294 43.4604L50.4394 42.8892C50.8398 41.7399 51.1222 40.5467 51.2783 39.3286C51.9004 34.589 50.5838 29.7985 47.6269 26.0425C47.3465 25.6835 47.0016 25.2196 46.6132 24.8315ZM44.0624 25.9956C44.1162 26.0783 44.1738 26.1583 44.2314 26.2378L44.0624 25.9966C44.0316 25.9388 44.0056 25.8808 43.9843 25.8228C44.0055 25.8805 44.0318 25.938 44.0624 25.9956ZM45.8759 24.2583C45.9369 24.2912 45.9969 24.328 46.0566 24.3677C45.9969 24.328 45.9369 24.2912 45.8759 24.2583ZM45.4745 24.1021C45.4945 24.1067 45.5143 24.1121 45.5341 24.1177C45.5143 24.1121 45.4945 24.1067 45.4745 24.1021Z" fill="#30C100"/>
<path d="M40.1179 27.8994C39.4496 27.9284 38.801 28.4092 38.6101 29.0635C38.4448 29.6309 38.6012 30.0714 38.8572 30.4404C38.9811 30.6191 39.1299 30.7842 39.2722 30.9375C39.418 31.0945 39.5557 31.2386 39.6785 31.3916L39.9138 31.6992C40.1421 32.0116 40.3502 32.3386 40.5369 32.6777L40.6843 32.958C42.1518 35.8745 41.9368 39.3674 40.1023 42.0879C39.9538 42.3057 39.758 42.5251 39.5466 42.7627C39.3399 42.995 39.1174 43.245 38.9382 43.5049C38.7589 43.7651 38.6101 44.0548 38.5632 44.3721C38.5153 44.6975 38.5779 45.0329 38.7878 45.373C39.0725 45.834 39.4777 46.0095 39.906 46.1328L39.9402 46.1426H39.9763C40.3229 46.1403 40.7418 46.1142 41.0857 45.8262C42.9427 44.2699 44.2304 41.5549 44.655 39.3242C45.2603 36.1405 44.5821 32.8458 42.7683 30.1602L42.7673 30.1592L42.5496 29.8428C42.3176 29.5115 42.0451 29.1445 41.74 28.8213C41.3372 28.3946 40.8475 28.011 40.2859 27.9043L40.2693 27.9014L40.2517 27.9004L40.1179 27.8994ZM40.9255 45.6348L40.8806 45.667C40.895 45.6562 40.9105 45.6466 40.9246 45.6348C41.0346 45.5426 41.1428 45.4461 41.2488 45.3457C41.143 45.446 41.0354 45.5427 40.9255 45.6348ZM41.8962 36.9268C41.8968 36.9867 41.8978 37.0465 41.8972 37.1064C41.8977 37.0465 41.8969 36.9867 41.8962 36.9268ZM41.8874 36.582C41.8902 36.6403 41.8926 36.6986 41.8943 36.7568C41.8927 36.6986 41.8902 36.6403 41.8874 36.582ZM41.865 36.2334C41.8677 36.2653 41.8694 36.2972 41.8718 36.3291C41.8694 36.2972 41.8677 36.2653 41.865 36.2334ZM38.8865 29.0264C38.8725 29.0615 38.86 29.0973 38.8494 29.1338L38.8855 29.0264C38.8996 28.991 38.9161 28.9567 38.9333 28.9229L38.8865 29.0264ZM41.408 28.8428C41.4587 28.8917 41.5094 28.9413 41.5583 28.9932L41.5574 28.9941C41.5084 28.9423 41.4585 28.8919 41.408 28.8428ZM40.7654 28.3486C40.866 28.405 40.9642 28.4704 41.0603 28.543C40.9642 28.4705 40.8661 28.4049 40.7654 28.3486ZM40.24 28.1494C40.3578 28.1718 40.4729 28.2096 40.5857 28.2588C40.4727 28.2096 40.357 28.1728 40.239 28.1504C40.1674 28.1469 40.0955 28.1502 40.0242 28.1592C40.0957 28.1501 40.1682 28.1459 40.24 28.1494Z" fill="#30C100"/>
<path d="M35.0877 32.1147C34.3793 32.1159 33.7181 32.5421 33.5047 33.2661C33.3381 33.832 33.5287 34.2863 33.7781 34.6626C33.8999 34.8464 34.0444 35.0241 34.1697 35.1851C34.2667 35.3097 34.3547 35.4271 34.4275 35.5435L34.4949 35.6606C34.7113 36.0742 34.8194 36.6095 34.8006 37.147C34.7816 37.6855 34.6359 38.2027 34.3718 38.5854C34.2571 38.7517 34.1309 38.9097 33.9939 39.0942C33.8623 39.2716 33.7279 39.4648 33.6258 39.6714C33.523 39.8794 33.449 40.1095 33.4431 40.3608C33.4373 40.6147 33.5017 40.8757 33.6541 41.1431C33.9178 41.6054 34.3892 41.8279 34.8259 41.9419L34.8533 41.9487L34.8806 41.9497C35.7636 41.9777 36.4612 41.3288 36.9461 40.5991C37.4387 39.8577 37.7668 38.9546 37.8963 38.3101L37.8953 38.3091C38.2198 36.7473 37.9405 35.125 37.1199 33.7661L36.949 33.4976C36.5459 32.8929 36.1143 32.294 35.2586 32.1245L35.2449 32.1216L35.2302 32.1206L35.0877 32.1147Z" fill="#30C100"/>
<path d="M19.7727 4.91182C19.3025 4.0711 18.2397 3.77075 17.399 4.24098C16.5583 4.71121 16.2579 5.77394 16.7282 6.61466L18.2504 5.76324L19.7727 4.91182ZM20.9455 15.4128L19.2071 15.2715L19.2071 15.2716L20.9455 15.4128ZM20.4696 18.8654L18.7268 18.9339L18.7445 19.3859L18.9798 19.7723L20.4696 18.8654ZM28.1345 27.9653L26.4776 28.51L26.4776 28.5101L28.1345 27.9653ZM23.1966 32.7616L24.6916 33.6601L24.6916 33.6601L23.1966 32.7616ZM23.5164 36.8802L24.5031 38.3185L25.5279 37.6154L25.198 36.4172L23.5164 36.8802ZM18.9137 39.414L18.1225 37.8595C17.5179 38.1673 17.1466 38.7976 17.1706 39.4756C17.1945 40.1536 17.6094 40.7561 18.2342 41.0204L18.9137 39.414ZM18.977 39.4408L18.2976 41.0472L18.2976 41.0472L18.977 39.4408ZM23.7404 41.7415L25.4451 42.1106L25.6876 40.9906L24.756 40.3234L23.7404 41.7415ZM23.3941 42.7764L25.0044 43.4465L25.0045 43.4463L23.3941 42.7764ZM22.259 46.6723L20.5419 46.3661L20.5419 46.3661L22.259 46.6723ZM21.2095 53.6197L22.5112 54.7807L22.5112 54.7807L21.2095 53.6197ZM13.865 55.4082L13.7681 53.6667L13.7525 53.6675L13.737 53.6687L13.865 55.4082ZM6.60737 53.6064C5.64408 53.6041 4.86139 54.3832 4.85917 55.3465C4.85695 56.3098 5.63605 57.0925 6.59933 57.0947L6.60335 55.3505L6.60737 53.6064ZM18.2504 5.76324L16.7282 6.61466C17.4083 7.83072 18.0933 9.36438 18.5751 10.9374C19.0625 12.529 19.3066 14.0468 19.2071 15.2715L20.9455 15.4128L22.684 15.5541C22.8332 13.7188 22.4651 11.7266 21.9105 9.91584C21.3502 8.08644 20.5633 6.32534 19.7727 4.91182L18.2504 5.76324ZM20.9455 15.4128L19.2071 15.2716C19.168 15.7523 19.074 16.0959 18.9429 16.7054C18.815 17.3 18.6904 18.0095 18.7268 18.9339L20.4696 18.8654L22.2124 18.7968C22.1924 18.2861 22.2547 17.8976 22.3533 17.4388C22.4488 16.9949 22.6209 16.3299 22.684 15.5541L20.9455 15.4128ZM20.4696 18.8654L18.9798 19.7723C19.4182 20.4926 20.1303 21.2982 20.8443 22.0565C21.5737 22.8311 22.4502 23.705 23.246 24.5218C24.0654 25.3628 24.8279 26.1718 25.4295 26.9077C26.0637 27.6836 26.3808 28.2156 26.4776 28.51L28.1345 27.9653L29.7915 27.4207C29.4803 26.474 28.8017 25.5213 28.1303 24.6999C27.4262 23.8386 26.5731 22.9379 25.7446 22.0875C24.8926 21.213 24.0891 20.414 23.384 19.6651C22.6635 18.9 22.1866 18.3316 21.9595 17.9584L20.4696 18.8654ZM28.1345 27.9653L26.4776 28.5101C26.493 28.5571 26.4774 28.5342 26.4893 28.478C26.499 28.4322 26.5116 28.4396 26.4594 28.5064C26.3224 28.6816 26.0122 28.931 25.4304 29.2643C25.1578 29.4205 24.8665 29.573 24.55 29.7373C24.2453 29.8954 23.9062 30.07 23.5914 30.2469C23.2778 30.423 22.9376 30.629 22.6281 30.8658C22.3291 31.0947 21.968 31.42 21.7017 31.863L23.1966 32.7616L24.6916 33.6601C24.6389 33.7477 24.6183 33.7355 24.7483 33.636C24.8679 33.5444 25.0453 33.4312 25.2995 33.2884C25.5526 33.1463 25.8317 33.0023 26.157 32.8334C26.4706 32.6706 26.8214 32.4877 27.1645 32.2911C27.8142 31.9188 28.6302 31.3935 29.2077 30.6548C29.8644 29.8147 30.2089 28.6905 29.7915 27.4206L28.1345 27.9653ZM23.1966 32.7616L21.7017 31.863C21.0433 32.9585 21.1384 34.2299 21.2702 35.0537C21.4099 35.9263 21.6963 36.8403 21.8348 37.3433L23.5164 36.8802L25.198 36.4172C25.0099 35.7342 24.8144 35.1247 24.7148 34.5024C24.6074 33.8312 24.7059 33.6363 24.6916 33.6601L23.1966 32.7616ZM23.5164 36.8802L22.5297 35.4419C21.4578 36.1773 19.5101 37.1533 18.1225 37.8595L18.9137 39.414L19.7048 40.9684C20.9759 40.3215 23.1926 39.2175 24.5031 38.3185L23.5164 36.8802ZM18.9137 39.414L18.2342 41.0204L18.2976 41.0472L18.977 39.4408L19.6565 37.8344L19.5931 37.8076L18.9137 39.414ZM18.977 39.4408L18.2976 41.0472C18.9122 41.3071 19.8341 41.6972 20.7205 42.1067C21.6522 42.5371 22.3906 42.9201 22.7249 43.1595L23.7404 41.7415L24.756 40.3234C24.1145 39.864 23.0835 39.3557 22.1835 38.9399C21.2383 38.5032 20.2664 38.0924 19.6564 37.8344L18.977 39.4408ZM23.7404 41.7415L22.0358 41.3724C21.9984 41.5449 21.9023 41.8214 21.7836 42.1066L23.3941 42.7764L25.0045 43.4463C25.1468 43.1041 25.3401 42.5958 25.4451 42.1106L23.7404 41.7415ZM23.3941 42.7764L21.7838 42.1063C21.185 43.5452 20.8121 44.8509 20.5419 46.3661L22.259 46.6723L23.9761 46.9784C24.2043 45.6988 24.5084 44.6384 25.0044 43.4465L23.3941 42.7764ZM22.259 46.6723L20.5419 46.3661C20.413 47.0891 20.4019 47.8225 20.4116 48.4635C20.4224 49.1785 20.4531 49.6776 20.4477 50.2814C20.4372 51.4363 20.2679 52.0551 19.9078 52.4588L21.2095 53.6197L22.5112 54.7807C23.7659 53.3739 23.924 51.6258 23.9359 50.3131C23.9416 49.6831 23.9073 48.9232 23.8996 48.4109C23.8907 47.8245 23.9077 47.3624 23.9761 46.9784L22.259 46.6723ZM21.2095 53.6197L19.9078 52.4588C19.4169 53.0092 18.6673 53.3277 17.5355 53.4838C16.2943 53.655 15.2213 53.5858 13.7681 53.6667L13.865 55.4082L13.9619 57.1497C14.9184 57.0964 16.6282 57.1303 18.0121 56.9394C19.5054 56.7335 21.2231 56.2248 22.5112 54.7807L21.2095 53.6197ZM13.865 55.4082L13.737 53.6687C11.8756 53.8057 8.51155 53.6107 6.60737 53.6064L6.60335 55.3505L6.59933 57.0947C8.10472 57.0982 11.9828 57.2956 13.993 57.1476L13.865 55.4082Z" fill="#494949"/>
</svg>
