<svg width="473" height="344" viewBox="0 0 473 344" fill="none" xmlns="http://www.w3.org/2000/svg">
<g clip-path="url(#clip0_1373_2864)">
<rect width="473" height="344" fill="white"/>
<g clip-path="url(#clip1_1373_2864)">
<rect x="90" y="63" width="311" height="426" rx="20" fill="#F7F7F7"/>
<rect x="211" y="80" width="70" height="7" rx="3.5" fill="#E5E5E5"/>
<rect x="111.5" y="110.5" width="268" height="396" rx="3.5" fill="white" stroke="#EEEEEE"/>
</g>
<rect x="90.5" y="63.5" width="310" height="425" rx="19.5" stroke="#EEEEEE"/>
<rect x="61.5" y="251.5" width="350" height="70" rx="9.5" fill="white"/>
<rect x="61.5" y="251.5" width="350" height="70" rx="9.5" stroke="#EEEEEE"/>
<path d="M83.1484 287.984V269.254H87.2891V270.641H84.7305V286.578H87.2891V287.984H83.1484ZM102.309 269.293V270.855C102.309 272.691 102.309 274.674 101.703 277.477H104.34V278.746H100.16V285.582H98.6367V278.746H94.1836V285.582H92.6602V278.746H88.5195V277.477H100.18C100.463 276.256 100.629 275.182 100.727 274.195L90.2383 274.742L90.043 273.395L100.824 273.023C100.854 272.252 100.854 271.539 100.863 270.855V270.543H90.5312V269.293H102.309ZM119.242 268.219V275.133H122.152V276.422H119.242V285.621H117.719V268.219H119.242ZM114.379 269.84V276.051H108.051V280.113C111.273 280.113 113.52 280.006 116.156 279.508L116.312 280.777C113.578 281.285 111.254 281.402 107.914 281.422H106.527V274.781H112.855V271.109H106.488V269.84H114.379ZM127.055 287.984H122.914V286.578H125.473V270.641H122.914V269.254H127.055V287.984ZM149.262 268.238V280.934H147.738V268.238H149.262ZM149.809 283.922V285.211H138.051V279.645H139.574V283.922H149.809ZM139.887 269.449C142.484 269.449 144.438 271.207 144.438 273.707C144.438 276.246 142.484 277.984 139.887 277.984C137.289 277.984 135.336 276.246 135.336 273.707C135.336 271.207 137.289 269.449 139.887 269.449ZM139.887 270.797C138.129 270.797 136.82 272.008 136.84 273.707C136.82 275.445 138.129 276.637 139.887 276.637C141.605 276.637 142.934 275.445 142.934 273.707C142.934 272.008 141.605 270.797 139.887 270.797ZM168.031 276.48V277.75H152.211V276.48H168.031ZM160.121 279.273C163.852 279.273 166.078 280.426 166.098 282.418C166.078 284.43 163.852 285.543 160.121 285.543C156.371 285.543 154.125 284.43 154.125 282.418C154.125 280.426 156.371 279.273 160.121 279.273ZM160.121 280.484C157.328 280.504 155.668 281.188 155.688 282.418C155.668 283.629 157.328 284.312 160.121 284.312C162.875 284.312 164.555 283.629 164.555 282.418C164.555 281.188 162.875 280.504 160.121 280.484ZM166.625 269.117V270.387H161.117C161.176 272.359 164.066 273.863 167.152 274.215L166.586 275.445C163.744 275.084 161.078 273.814 160.121 271.871C159.174 273.814 156.518 275.084 153.656 275.445L153.109 274.215C156.137 273.863 159.047 272.359 159.125 270.387H153.656V269.117H166.625ZM183.891 268.238V281.09H182.348V274.41H178.246V278.121H170.375V269.391H171.898V272.477H176.742V269.391H178.246V273.121H182.348V268.238H183.891ZM184.281 283.922V285.211H172.66V279.82H174.203V283.922H184.281ZM171.898 276.852H176.742V273.688H171.898V276.852ZM201.781 270.797V272.066H187.562V270.797H193.93V268.512H195.434V270.797H201.781ZM202.68 282.281V283.551H186.781V282.281H193.93V279.84C190.844 279.674 188.969 278.473 188.988 276.52C188.969 274.449 191.156 273.238 194.691 273.258C198.188 273.238 200.395 274.449 200.395 276.52C200.395 278.473 198.5 279.674 195.434 279.84V282.281H202.68ZM194.691 274.469C192.094 274.469 190.512 275.23 190.531 276.52C190.512 277.848 192.094 278.59 194.691 278.609C197.25 278.59 198.832 277.848 198.832 276.52C198.832 275.23 197.25 274.469 194.691 274.469ZM214.711 269.859V284H212.934V271.695H212.855L209.418 273.98V272.203L212.934 269.859H214.711ZM218.48 284L218.461 282.711L223.285 277.633C224.965 275.855 225.766 274.898 225.766 273.59C225.766 272.145 224.535 271.188 222.953 271.188C221.273 271.188 220.199 272.262 220.199 273.844H218.539C218.52 271.344 220.453 269.664 223.012 269.664C225.57 269.664 227.406 271.383 227.406 273.59C227.406 275.172 226.664 276.402 224.164 278.98L220.922 282.32V282.438H227.66V284H218.48ZM235.102 284.195C232.289 284.195 230.277 282.691 230.18 280.445H231.957C232.055 281.793 233.402 282.633 235.082 282.633C236.938 282.633 238.305 281.617 238.305 280.152C238.305 278.609 237.074 277.516 234.867 277.516H233.715V275.973H234.867C236.586 275.973 237.777 275.016 237.777 273.551C237.777 272.145 236.742 271.188 235.141 271.188C233.637 271.188 232.25 272.027 232.172 273.414H230.473C230.57 271.168 232.641 269.664 235.16 269.664C237.855 269.664 239.496 271.422 239.477 273.453C239.496 275.055 238.559 276.246 237.074 276.656V276.754C238.91 277.047 240.043 278.355 240.023 280.152C240.043 282.477 237.914 284.195 235.102 284.195ZM242.211 281.109V279.664L248.578 269.859H250.746V279.566H252.719V281.109H250.746V284H249.066V281.109H242.211ZM244.105 279.566H249.066V272.086H248.891L244.105 279.449V279.566Z" fill="black"/>
<rect x="364" y="282" width="28" height="28" rx="14" fill="#2592FF"/>
<path d="M378 303L378 290M372 295L377.293 289.707C377.683 289.316 378.317 289.316 378.707 289.707L384 295" stroke="white" stroke-width="2" stroke-linecap="round"/>
</g>
<defs>
<clipPath id="clip0_1373_2864">
<rect width="473" height="344" fill="white"/>
</clipPath>
<clipPath id="clip1_1373_2864">
<rect x="90" y="63" width="311" height="426" rx="20" fill="white"/>
</clipPath>
</defs>
</svg>
