<svg width="24" height="24" viewBox="0 0 24 24" fill="none" xmlns="http://www.w3.org/2000/svg">
<path d="M7.2 22V21.2V21.2V22ZM16.8 22V22.8V22.8V22ZM20 18.8H19.2V18.8H20ZM20 5.2H20.8V5.2H20ZM19.782 3.09202L20.4948 2.72883V2.72883L19.782 3.09202ZM16.8 2V1.2V2ZM18.908 2.21799L19.2712 1.50518L19.2712 1.50518L18.908 2.21799ZM18.908 21.782L19.2712 22.4948V22.4948L18.908 21.782ZM19.782 20.908L19.0692 20.5448H19.0692L19.782 20.908ZM5.09202 21.782L5.45521 21.0692H5.45521L5.09202 21.782ZM4 18.8H3.2H4ZM4.21799 20.908L4.93079 20.5448V20.5448L4.21799 20.908ZM4.8 8C4.8 7.55817 4.44183 7.2 4 7.2C3.55817 7.2 3.2 7.55817 3.2 8H4H4.8ZM10 1.2C9.55817 1.2 9.2 1.55817 9.2 2C9.2 2.44183 9.55817 2.8 10 2.8V2V1.2ZM4.17071 7.82929L3.60503 7.26361L4.17071 7.82929ZM9.82929 2.17071L10.395 2.7364L9.82929 2.17071ZM4.24142 8L4.24142 8.8L4.24142 8ZM9 8V7.2V8ZM10 7H9.2V7H10ZM10 2.24142H10.8V2.24142L10 2.24142ZM8 11.2C7.55817 11.2 7.2 11.5582 7.2 12C7.2 12.4418 7.55817 12.8 8 12.8V12V11.2ZM16 12.8C16.4418 12.8 16.8 12.4418 16.8 12C16.8 11.5582 16.4418 11.2 16 11.2V12V12.8ZM14 7.2C13.5582 7.2 13.2 7.55817 13.2 8C13.2 8.44183 13.5582 8.8 14 8.8V8V7.2ZM16 8.8C16.4418 8.8 16.8 8.44183 16.8 8C16.8 7.55817 16.4418 7.2 16 7.2V8V8.8ZM8 15.2C7.55817 15.2 7.2 15.5582 7.2 16C7.2 16.4418 7.55817 16.8 8 16.8V16V15.2ZM16 16.8C16.4418 16.8 16.8 16.4418 16.8 16C16.8 15.5582 16.4418 15.2 16 15.2V16V16.8ZM7.2 22V22.8H16.8V22V21.2H7.2V22ZM20 18.8H20.8V5.2H20H19.2V18.8H20ZM20 5.2H20.8C20.8 4.65315 20.8006 4.1949 20.7701 3.82126C20.7388 3.43828 20.6709 3.07431 20.4948 2.72883L19.782 3.09202L19.0692 3.45521C19.1112 3.53755 19.1522 3.66752 19.1754 3.95155C19.1994 4.24492 19.2 4.62675 19.2 5.2H20ZM16.8 2V2.8C17.3733 2.8 17.7551 2.80062 18.0484 2.82459C18.3325 2.8478 18.4625 2.88884 18.5448 2.93079L18.908 2.21799L19.2712 1.50518C18.9257 1.32915 18.5617 1.2612 18.1787 1.22991C17.8051 1.19938 17.3469 1.2 16.8 1.2V2ZM19.782 3.09202L20.4948 2.72883C20.2264 2.20197 19.798 1.77363 19.2712 1.50518L18.908 2.21799L18.5448 2.93079C18.7706 3.04584 18.9542 3.22942 19.0692 3.45521L19.782 3.09202ZM16.8 22V22.8C17.3469 22.8 17.8051 22.8006 18.1787 22.7701C18.5617 22.7388 18.9257 22.6709 19.2712 22.4948L18.908 21.782L18.5448 21.0692C18.4625 21.1112 18.3325 21.1522 18.0485 21.1754C17.7551 21.1994 17.3733 21.2 16.8 21.2V22ZM20 18.8H19.2C19.2 19.3733 19.1994 19.7551 19.1754 20.0485C19.1522 20.3325 19.1112 20.4625 19.0692 20.5448L19.782 20.908L20.4948 21.2712C20.6709 20.9257 20.7388 20.5617 20.7701 20.1787C20.8006 19.8051 20.8 19.3469 20.8 18.8H20ZM18.908 21.782L19.2712 22.4948C19.798 22.2264 20.2264 21.798 20.4948 21.2712L19.782 20.908L19.0692 20.5448C18.9542 20.7706 18.7706 20.9542 18.5448 21.0692L18.908 21.782ZM7.2 22V21.2C6.62675 21.2 6.24492 21.1994 5.95155 21.1754C5.66752 21.1522 5.53755 21.1112 5.45521 21.0692L5.09202 21.782L4.72883 22.4948C5.07431 22.6709 5.43828 22.7388 5.82126 22.7701C6.1949 22.8006 6.65315 22.8 7.2 22.8V22ZM4 18.8H3.2C3.2 19.3469 3.19938 19.8051 3.22991 20.1787C3.2612 20.5617 3.32915 20.9257 3.50518 21.2712L4.21799 20.908L4.93079 20.5448C4.88884 20.4625 4.8478 20.3325 4.82459 20.0485C4.80062 19.7551 4.8 19.3733 4.8 18.8H4ZM5.09202 21.782L5.45521 21.0692C5.22942 20.9542 5.04584 20.7706 4.93079 20.5448L4.21799 20.908L3.50518 21.2712C3.77363 21.798 4.20197 22.2264 4.72883 22.4948L5.09202 21.782ZM4 8H3.2L3.2 18.8H4H4.8L4.8 8H4ZM16.8 2V1.2L10 1.2V2V2.8L16.8 2.8V2ZM4.17071 7.82929L4.7364 8.39498L10.395 2.7364L9.82929 2.17071L9.2636 1.60503L3.60503 7.26361L4.17071 7.82929ZM4.24142 8L4.24142 8.8L9 8.8V8V7.2L4.24142 7.2L4.24142 8ZM10 7H10.8V2.24142H10H9.2V7H10ZM9 8V8.8C9.99411 8.8 10.8 7.99411 10.8 7H10H9.2C9.2 7.11046 9.11046 7.2 9 7.2V8ZM9.82929 2.17071L10.395 2.7364C9.954 3.17737 9.2 2.86506 9.2 2.24142L10 2.24142L10.8 2.24142C10.8 1.43961 9.83057 1.03806 9.2636 1.60503L9.82929 2.17071ZM4.17071 7.82929L3.60503 7.26361C3.03806 7.83057 3.43961 8.8 4.24142 8.8L4.24142 8L4.24142 7.2C4.86506 7.2 5.17737 7.954 4.7364 8.39498L4.17071 7.82929ZM8 12V12.8H16V12V11.2H8V12ZM14 8V8.8H16V8V7.2H14V8ZM8 16V16.8H16V16V15.2H8V16Z" fill="#494949"/>
</svg>
