<svg width="20" height="20" viewBox="0 0 20 20" fill="none" xmlns="http://www.w3.org/2000/svg">
<path d="M4.32003 2.86331L4.60378 3.42019L4.60378 3.42019L4.32003 2.86331ZM2.86331 4.32003L2.30643 4.03629L2.30643 4.03629L2.86331 4.32003ZM15.68 17.1367L15.9637 17.6936H15.9637L15.68 17.1367ZM17.1367 15.68L16.5798 15.3962V15.3962L17.1367 15.68ZM4.32003 17.1367L4.60378 16.5798H4.60378L4.32003 17.1367ZM2.86331 15.68L3.42019 15.3962H3.42019L2.86331 15.68ZM18.125 10C18.125 9.65482 17.8452 9.375 17.5 9.375C17.1548 9.375 16.875 9.65482 16.875 10H17.5H18.125ZM10 3.125C10.3452 3.125 10.625 2.84518 10.625 2.5C10.625 2.15482 10.3452 1.875 10 1.875V2.5V3.125ZM10.211 8.74716L10.8039 8.9448V8.9448L10.211 8.74716ZM10.5967 7.59018L10.0038 7.39253L10.0038 7.39253L10.5967 7.59018ZM10.9946 6.94629L11.4366 7.38824L11.4366 7.38823L10.9946 6.94629ZM14.8378 3.10309L14.3959 2.66115L14.3959 2.66115L14.8378 3.10309ZM16.8969 5.16218L17.3388 5.60412V5.60412L16.8969 5.16218ZM13.0537 9.00538L12.6118 8.56344L12.6118 8.56344L13.0537 9.00538ZM12.4098 9.40332L12.6075 9.99625H12.6075L12.4098 9.40332ZM11.2528 9.78898L11.4505 10.3819L11.4505 10.3819L11.2528 9.78898ZM12.8426 9.20239L13.219 9.70134L13.219 9.70134L12.8426 9.20239ZM12.6804 9.30263L12.4025 8.74284V8.74284L12.6804 9.30263ZM16.8969 3.10309L16.455 3.54503V3.54503L16.8969 3.10309ZM17.3929 3.6755L17.953 3.39799V3.39799L17.3929 3.6755ZM17.3929 4.58977L17.953 4.86728V4.86728L17.3929 4.58977ZM15.4102 2.60705L15.6877 3.16706V3.16706L15.4102 2.60705ZM16.3245 2.60705L16.047 3.16706L16.047 3.16707L16.3245 2.60705ZM10.6974 7.31956L11.2572 7.5975V7.5975L10.6974 7.31956ZM10.7976 7.15737L10.2987 6.78097V6.78097L10.7976 7.15737ZM10.0192 9.66887L10.6079 9.45894V9.45894L10.0192 9.66887ZM10.3311 9.98083L10.1212 10.5695V10.5695L10.3311 9.98083ZM7.83333 17.5V18.125H12.1667V17.5V16.875H7.83333V17.5ZM2.5 7.83333H1.875V12.1667H2.5H3.125V7.83333H2.5ZM7.83333 2.5V1.875C6.91023 1.875 6.18031 1.87451 5.59311 1.92249C4.99862 1.97106 4.4956 2.0724 4.03629 2.30643L4.32003 2.86331L4.60378 3.42019C4.8575 3.29091 5.17771 3.21059 5.6949 3.16834C6.21939 3.12549 6.8896 3.125 7.83333 3.125V2.5ZM2.5 7.83333H3.125C3.125 6.8896 3.12549 6.21939 3.16834 5.6949C3.21059 5.17771 3.29091 4.8575 3.42019 4.60378L2.86331 4.32003L2.30643 4.03629C2.0724 4.4956 1.97106 4.99862 1.92249 5.59311C1.87451 6.18031 1.875 6.91023 1.875 7.83333H2.5ZM4.32003 2.86331L4.03629 2.30643C3.29148 2.68593 2.68593 3.29148 2.30643 4.03629L2.86331 4.32003L3.42019 4.60378C3.67985 4.09417 4.09417 3.67985 4.60378 3.42019L4.32003 2.86331ZM12.1667 17.5V18.125C13.0898 18.125 13.8197 18.1255 14.4069 18.0775C15.0014 18.0289 15.5044 17.9276 15.9637 17.6936L15.68 17.1367L15.3962 16.5798C15.1425 16.7091 14.8223 16.7894 14.3051 16.8317C13.7806 16.8745 13.1104 16.875 12.1667 16.875V17.5ZM17.5 12.1667H16.875C16.875 13.1104 16.8745 13.7806 16.8317 14.3051C16.7894 14.8223 16.7091 15.1425 16.5798 15.3962L17.1367 15.68L17.6936 15.9637C17.9276 15.5044 18.0289 15.0014 18.0775 14.4069C18.1255 13.8197 18.125 13.0898 18.125 12.1667H17.5ZM15.68 17.1367L15.9637 17.6936C16.7085 17.3141 17.3141 16.7085 17.6936 15.9637L17.1367 15.68L16.5798 15.3962C16.3202 15.9058 15.9058 16.3202 15.3962 16.5798L15.68 17.1367ZM7.83333 17.5V16.875C6.8896 16.875 6.21939 16.8745 5.6949 16.8317C5.17771 16.7894 4.8575 16.7091 4.60378 16.5798L4.32003 17.1367L4.03629 17.6936C4.4956 17.9276 4.99862 18.0289 5.59311 18.0775C6.18031 18.1255 6.91023 18.125 7.83333 18.125V17.5ZM2.5 12.1667H1.875C1.875 13.0898 1.87451 13.8197 1.92249 14.4069C1.97106 15.0014 2.0724 15.5044 2.30643 15.9637L2.86331 15.68L3.42019 15.3962C3.29091 15.1425 3.21059 14.8223 3.16834 14.3051C3.12549 13.7806 3.125 13.1104 3.125 12.1667H2.5ZM4.32003 17.1367L4.60378 16.5798C4.09417 16.3202 3.67985 15.9058 3.42019 15.3962L2.86331 15.68L2.30643 15.9637C2.68593 16.7085 3.29148 17.3141 4.03629 17.6936L4.32003 17.1367ZM17.5 12.1667H18.125V10H17.5H16.875V12.1667H17.5ZM7.83333 2.5V3.125H10V2.5V1.875H7.83333V2.5ZM10.211 8.74716L10.8039 8.9448L11.1896 7.78782L10.5967 7.59018L10.0038 7.39253L9.61809 8.54951L10.211 8.74716ZM10.9946 6.94629L11.4366 7.38823L15.2798 3.54503L14.8378 3.10309L14.3959 2.66115L10.5527 6.50435L10.9946 6.94629ZM16.8969 5.16218L16.455 4.72024L12.6118 8.56344L13.0537 9.00538L13.4956 9.44732L17.3388 5.60412L16.8969 5.16218ZM12.4098 9.40332L12.2122 8.81039L11.0552 9.19605L11.2528 9.78898L11.4505 10.3819L12.6075 9.99625L12.4098 9.40332ZM13.0537 9.00538L12.6118 8.56344C12.4974 8.67778 12.4808 8.69247 12.4662 8.70345L12.8426 9.20239L13.219 9.70134C13.319 9.62593 13.4049 9.53808 13.4956 9.44732L13.0537 9.00538ZM12.4098 9.40332L12.6075 9.99625C12.7292 9.95566 12.8462 9.91811 12.9584 9.86243L12.6804 9.30263L12.4025 8.74284C12.3862 8.75094 12.3656 8.75926 12.2122 8.81039L12.4098 9.40332ZM12.8426 9.20239L12.4662 8.70345C12.4463 8.71852 12.4249 8.7317 12.4025 8.74284L12.6804 9.30263L12.9584 9.86243C13.0501 9.81691 13.1373 9.76299 13.219 9.70134L12.8426 9.20239ZM16.8969 3.10309L16.455 3.54503C16.7713 3.8614 16.8149 3.91669 16.8329 3.95301L17.3929 3.6755L17.953 3.39799C17.8209 3.13153 17.5838 2.90615 17.3388 2.66115L16.8969 3.10309ZM16.8969 5.16218L17.3388 5.60412C17.5838 5.35912 17.8209 5.13374 17.953 4.86728L17.3929 4.58977L16.8329 4.31226C16.8149 4.34858 16.7713 4.40387 16.455 4.72024L16.8969 5.16218ZM17.3929 3.6755L16.8329 3.95301C16.889 4.06619 16.889 4.19908 16.8329 4.31226L17.3929 4.58977L17.953 4.86728C18.1823 4.40438 18.1823 3.86089 17.953 3.39799L17.3929 3.6755ZM14.8378 3.10309L15.2798 3.54503C15.5961 3.22868 15.6514 3.18506 15.6877 3.16706L15.4102 2.60705L15.1327 2.04704C14.8663 2.17908 14.6409 2.41616 14.3959 2.66115L14.8378 3.10309ZM16.8969 3.10309L17.3388 2.66115C17.0939 2.41616 16.8685 2.17908 16.602 2.04704L16.3245 2.60705L16.047 3.16707C16.0833 3.18506 16.1386 3.22868 16.455 3.54503L16.8969 3.10309ZM15.4102 2.60705L15.6877 3.16706C15.8009 3.11098 15.9338 3.11098 16.047 3.16706L16.3245 2.60705L16.602 2.04704C16.1391 1.81765 15.5956 1.81765 15.1327 2.04704L15.4102 2.60705ZM10.5967 7.59018L11.1896 7.78782C11.2407 7.63441 11.2491 7.61382 11.2572 7.5975L10.6974 7.31956L10.1376 7.04162C10.0819 7.15377 10.0443 7.27078 10.0038 7.39253L10.5967 7.59018ZM10.9946 6.94629L10.5527 6.50435C10.4619 6.5951 10.3741 6.68101 10.2987 6.78097L10.7976 7.15737L11.2966 7.53377C11.3075 7.51922 11.3222 7.50258 11.4366 7.38824L10.9946 6.94629ZM10.6974 7.31956L11.2572 7.5975C11.2683 7.57509 11.2815 7.55375 11.2966 7.53377L10.7976 7.15737L10.2987 6.78097C10.237 6.86268 10.1831 6.94994 10.1376 7.04162L10.6974 7.31956ZM10.211 8.74716L9.61809 8.54951C9.5382 8.78918 9.46397 9.00991 9.42143 9.19094C9.38107 9.36271 9.33726 9.61738 9.43048 9.87879L10.0192 9.66887L10.6079 9.45894C10.6414 9.55312 10.6097 9.59842 10.6383 9.47688C10.6647 9.36462 10.7162 9.20811 10.8039 8.9448L10.211 8.74716ZM11.2528 9.78898L11.0552 9.19605C10.7919 9.28382 10.6354 9.33533 10.5231 9.36171C10.4016 9.39027 10.4469 9.35856 10.5411 9.39214L10.3311 9.98083L10.1212 10.5695C10.3826 10.6627 10.6373 10.6189 10.8091 10.5786C10.9901 10.536 11.2108 10.4618 11.4505 10.3819L11.2528 9.78898ZM10.0192 9.66887L9.43048 9.87879C9.54538 10.201 9.79896 10.4546 10.1212 10.5695L10.3311 9.98083L10.5411 9.39214C10.5722 9.40326 10.5967 9.42778 10.6079 9.45894L10.0192 9.66887Z" fill="#2592FF"/>
</svg>
