<svg width="40" height="40" viewBox="0 0 40 40" fill="none" xmlns="http://www.w3.org/2000/svg">
<rect width="40" height="40" rx="8" fill="white"/>
<path d="M15.5538 22.3333C15.0015 22.3333 14.5538 22.781 14.5538 23.3333C14.5538 23.8856 15.0015 24.3333 15.5538 24.3333V23.3333V22.3333ZM17.776 24.3333C18.3283 24.3333 18.776 23.8856 18.776 23.3333C18.776 22.781 18.3283 22.3333 17.776 22.3333V23.3333V24.3333ZM15.5538 17.8889C15.0015 17.8889 14.5538 18.3366 14.5538 18.8889C14.5538 19.4412 15.0015 19.8889 15.5538 19.8889V18.8889V17.8889ZM22.2205 19.8889C22.7728 19.8889 23.2205 19.4412 23.2205 18.8889C23.2205 18.3366 22.7728 17.8889 22.2205 17.8889V18.8889V19.8889ZM15.5538 13.4444C15.0015 13.4444 14.5538 13.8922 14.5538 14.4444C14.5538 14.9967 15.0015 15.4444 15.5538 15.4444V14.4444V13.4444ZM22.2205 15.4444C22.7728 15.4444 23.2205 14.9967 23.2205 14.4444C23.2205 13.8922 22.7728 13.4444 22.2205 13.4444V14.4444V15.4444ZM25.6649 18.8889C25.6649 19.4412 26.1126 19.8889 26.6649 19.8889C27.2172 19.8889 27.6649 19.4412 27.6649 18.8889H26.6649H25.6649ZM17.776 31C18.3283 31 18.776 30.5523 18.776 30C18.776 29.4477 18.3283 29 17.776 29V30V31ZM12.3072 29.7498L12.7682 28.8624H12.7682L12.3072 29.7498ZM11.3596 28.8022L10.4722 29.2631L10.4722 29.2631L11.3596 28.8022ZM25.4671 10.2502L25.0061 11.1376L25.0061 11.1376L25.4671 10.2502ZM26.4147 11.1978L25.5273 11.6588V11.6588L26.4147 11.1978ZM12.3072 10.2502L11.8462 9.36278L12.3072 10.2502ZM11.3596 11.1978L10.4722 10.7369L11.3596 11.1978ZM22.2206 25.6667C21.6683 25.6667 21.2206 26.1144 21.2206 26.6667C21.2206 27.219 21.6683 27.6667 22.2206 27.6667V26.6667V25.6667ZM28.8873 27.6667C29.4396 27.6667 29.8873 27.219 29.8873 26.6667C29.8873 26.1144 29.4396 25.6667 28.8873 25.6667V26.6667V27.6667ZM26.5538 23.3333C26.5538 22.781 26.1061 22.3333 25.5538 22.3333C25.0016 22.3333 24.5538 22.781 24.5538 23.3333H25.5538H26.5538ZM24.5538 29.9999C24.5538 30.5522 25.0016 30.9999 25.5538 30.9999C26.1061 30.9999 26.5538 30.5522 26.5538 29.9999H25.5538H24.5538ZM15.5538 23.3333V24.3333H17.776V23.3333V22.3333H15.5538V23.3333ZM15.5538 18.8889V19.8889H22.2205V18.8889V17.8889H15.5538V18.8889ZM15.5538 14.4444V15.4444H22.2205V14.4444V13.4444H15.5538V14.4444ZM14.6872 10V11H23.0872V10V9H14.6872V10ZM26.6649 13.5778H25.6649V18.8889H26.6649H27.6649V13.5778H26.6649ZM17.776 30V29H14.6872V30V31H17.776V30ZM11.1094 26.4222H12.1094V13.5778H11.1094H10.1094V26.4222H11.1094ZM14.6872 30V29C14.0376 29 13.6116 28.9992 13.286 28.9722C12.9723 28.9461 12.8425 28.901 12.7682 28.8624L12.3072 29.7498L11.8462 30.6372C12.2536 30.8488 12.6809 30.9288 13.1205 30.9653C13.548 31.0008 14.0712 31 14.6872 31V30ZM11.1094 26.4222H10.1094C10.1094 27.0382 10.1086 27.5613 10.1441 27.9889C10.1806 28.4285 10.2606 28.8558 10.4722 29.2631L11.3596 28.8022L12.247 28.3412C12.2084 28.2669 12.1633 28.137 12.1372 27.8234C12.1102 27.4978 12.1094 27.0718 12.1094 26.4222H11.1094ZM12.3072 29.7498L12.7682 28.8624C12.545 28.7464 12.3629 28.5644 12.247 28.3412L11.3596 28.8022L10.4722 29.2631C10.7779 29.8517 11.2577 30.3315 11.8462 30.6372L12.3072 29.7498ZM23.0872 10V11C23.7367 11 24.1627 11.0008 24.4883 11.0278C24.802 11.0539 24.9318 11.099 25.0061 11.1376L25.4671 10.2502L25.9281 9.36278C25.5207 9.15118 25.0934 9.07121 24.6538 9.0347C24.2263 8.9992 23.7031 9 23.0872 9V10ZM26.6649 13.5778H27.6649C27.6649 12.9618 27.6657 12.4387 27.6302 12.0111C27.5937 11.5715 27.5138 11.1442 27.3022 10.7369L26.4147 11.1978L25.5273 11.6588C25.5659 11.7331 25.611 11.863 25.6371 12.1766C25.6641 12.5022 25.6649 12.9282 25.6649 13.5778H26.6649ZM25.4671 10.2502L25.0061 11.1376C25.2294 11.2536 25.4114 11.4356 25.5273 11.6588L26.4147 11.1978L27.3022 10.7369C26.9964 10.1483 26.5166 9.66849 25.9281 9.36278L25.4671 10.2502ZM14.6872 10V9C14.0712 9 13.548 8.9992 13.1205 9.0347C12.6809 9.07121 12.2536 9.15118 11.8462 9.36278L12.3072 10.2502L12.7682 11.1376C12.8425 11.099 12.9723 11.0539 13.286 11.0278C13.6116 11.0008 14.0376 11 14.6872 11V10ZM11.1094 13.5778H12.1094C12.1094 12.9282 12.1102 12.5022 12.1372 12.1766C12.1633 11.863 12.2084 11.7331 12.247 11.6588L11.3596 11.1978L10.4722 10.7369C10.2606 11.1442 10.1806 11.5715 10.1441 12.0111C10.1086 12.4387 10.1094 12.9618 10.1094 13.5778H11.1094ZM12.3072 10.2502L11.8462 9.36278C11.2577 9.66849 10.7779 10.1483 10.4722 10.7369L11.3596 11.1978L12.247 11.6588C12.3629 11.4356 12.545 11.2536 12.7682 11.1376L12.3072 10.2502ZM22.2206 26.6667V27.6667H28.8873V26.6667V25.6667H22.2206V26.6667ZM25.5538 23.3333H24.5538L24.5538 29.9999H25.5538H26.5538L26.5538 23.3333H25.5538Z" fill="#2592FF"/>
</svg>
